<svg xmlns="http://www.w3.org/2000/svg" viewBox="0 0 9.03 9.03"><defs><style>.cls-1{fill:#ffe3a6;}.cls-2{fill:#4b6596;}</style></defs><g id="Layer_2" data-name="Layer 2"><g id="Layer_2-2" data-name="Layer 2"><path class="cls-1" d="M9,4.52A4.52,4.52,0,1,1,4.51,0,4.52,4.52,0,0,1,9,4.52Z"/><path class="cls-2" d="M3.68,5.3a.86.86,0,0,0,.85.42c.35,0,.51-.1.51-.33s-.11-.31-.4-.37a3.07,3.07,0,0,1-1.06-.36,1,1,0,0,1-.46-.94,1.05,1.05,0,0,1,1-1.14V2h1V2.6a1.27,1.27,0,0,1,.87.65l-.74.47a.74.74,0,0,0-.69-.38c-.28,0-.42.1-.42.29s.15.36.69.49a2.3,2.3,0,0,1,.83.3,1,1,0,0,1,.41.9,1,1,0,0,1-1,1.15V7.3h-1V6.49a1.39,1.39,0,0,1-1.14-.71Z"/></g></g></svg>