<svg xmlns="http://www.w3.org/2000/svg" width="38.53" height="36.45" viewBox="0 0 38.53 36.45">
  <defs>
    <style>
      .cls-1 {
        fill: #ffb419;
      }
    </style>
  </defs>
  <g id="Layer_2" data-name="Layer 2">
    <g id="Landing">
      <g id="Content">
        <path class="cls-1" d="M26.49,3.34A9.44,9.44,0,0,0,12,3.47,68.93,68.93,0,0,0,.62,23,9.45,9.45,0,0,0,8.2,35.68a81.14,81.14,0,0,0,10.71.77,81,81,0,0,0,11.53-.8A9.45,9.45,0,0,0,37.93,23a65.9,65.9,0,0,0-4.67-10A66.21,66.21,0,0,0,26.49,3.34Z"/>
      </g>
    </g>
  </g>
</svg>
