<svg xmlns="http://www.w3.org/2000/svg" viewBox="0 0 123.2 15.68"><defs><style>.cls-1{fill:#4b6596;}</style></defs><g id="Layer_2" data-name="Layer 2"><g id="Layer_1-2" data-name="Layer 1"><polygon class="cls-1" points="122.91 8.48 122.29 9.17 121.73 9.9 121.09 10.57 120.46 11.26 119.79 11.89 119.22 12.62 118.62 13.33 117.98 14.01 117.33 14.68 116.67 15.34 115.97 15.68 115.3 15.45 115 14.76 115.19 13.99 115.86 13.41 116.37 12.69 117.01 12.08 117.61 11.44 118.19 10.79 118.72 10.08 119.36 9.46 119.94 8.81 119.06 8.8 118.16 8.78 117.27 8.81 116.37 8.81 115.47 8.82 114.57 8.82 113.68 8.75 112.78 8.83 111.88 8.76 110.98 8.86 110.08 8.79 109.19 8.84 108.29 8.76 107.39 8.8 106.49 8.86 105.58 8.75 104.68 8.79 103.78 8.78 102.88 8.76 101.98 8.85 101.08 8.8 100.18 8.83 99.28 8.78 98.38 8.83 97.48 8.75 96.59 8.81 95.69 8.8 94.79 8.77 93.89 8.84 92.99 8.85 92.09 8.82 91.2 8.82 90.3 8.85 89.4 8.8 88.5 8.85 87.6 8.78 86.7 8.79 85.8 8.86 84.9 8.76 84 8.79 83.1 8.82 82.2 8.78 81.3 8.75 80.4 8.76 79.5 8.77 78.6 8.75 77.69 8.77 76.79 8.81 75.89 8.84 74.99 8.81 74.09 8.77 73.19 8.77 72.3 8.77 71.4 8.8 70.5 8.85 69.6 8.77 68.7 8.79 67.8 8.8 66.89 8.84 65.99 8.79 65.09 8.82 64.19 8.79 63.29 8.79 62.38 8.82 61.48 8.84 60.58 8.75 59.68 8.77 58.78 8.85 57.88 8.78 56.98 8.86 56.08 8.75 55.18 8.77 54.28 8.8 53.38 8.78 52.47 8.82 51.57 8.77 50.67 8.76 49.77 8.81 48.87 8.79 47.97 8.8 47.07 8.78 46.17 8.86 45.28 8.86 44.38 8.84 43.48 8.84 42.59 8.86 41.69 8.84 40.79 8.86 39.89 8.79 38.99 8.85 38.09 8.75 37.18 8.77 36.28 8.78 35.38 8.85 34.48 8.85 33.58 8.79 32.67 8.85 31.77 8.76 30.87 8.83 29.97 8.83 29.07 8.78 28.17 8.82 27.26 8.83 26.36 8.82 25.45 8.75 24.55 8.79 23.65 8.77 22.75 8.83 21.84 8.81 20.94 8.8 20.03 8.79 19.13 8.75 18.23 8.86 17.32 8.77 16.41 8.84 15.51 8.84 14.6 8.82 13.7 8.82 12.8 8.78 11.89 8.77 10.99 8.77 10.08 8.77 9.18 8.74 8.27 8.82 7.37 8.79 6.46 8.77 5.55 8.86 4.65 8.83 3.74 8.82 2.83 8.75 1.92 8.84 1 8.83 0.32 8.52 0.04 7.83 0 7.82 0.29 7.11 1 6.88 1.9 6.91 2.8 6.9 3.69 6.82 4.59 6.87 5.49 6.9 6.38 6.82 7.28 6.86 8.18 6.83 9.08 6.87 9.97 6.8 10.87 6.81 11.77 6.84 12.67 6.8 13.57 6.89 14.47 6.88 15.37 6.83 16.27 6.91 17.18 6.87 18.08 6.8 18.98 6.9 19.88 6.9 20.78 6.81 21.68 6.89 22.57 6.9 23.47 6.88 24.37 6.81 25.27 6.9 26.17 6.88 27.07 6.87 27.96 6.79 28.86 6.91 29.76 6.8 30.66 6.81 31.56 6.84 32.46 6.81 33.35 6.82 34.25 6.87 35.15 6.84 36.05 6.82 36.95 6.8 37.85 6.87 38.76 6.8 39.66 6.82 40.56 6.81 41.46 6.83 42.36 6.83 43.26 6.87 44.16 6.85 45.06 6.91 45.96 6.79 46.86 6.83 47.76 6.83 48.66 6.83 49.56 6.86 50.46 6.88 51.36 6.86 52.26 6.85 53.16 6.87 54.06 6.83 54.96 6.86 55.87 6.87 56.77 6.89 57.67 6.86 58.57 6.85 59.47 6.84 60.37 6.79 61.27 6.82 62.17 6.9 63.08 6.8 63.98 6.86 64.88 6.8 65.78 6.89 66.68 6.87 67.58 6.89 68.48 6.9 69.39 6.83 70.29 6.82 71.19 6.81 72.09 6.84 72.99 6.89 73.89 6.91 74.78 6.84 75.68 6.9 76.58 6.83 77.47 6.79 78.37 6.91 79.27 6.85 80.17 6.88 81.07 6.86 81.97 6.83 82.87 6.87 83.77 6.9 84.68 6.8 85.58 6.86 86.48 6.9 87.38 6.86 88.28 6.87 89.18 6.85 90.08 6.91 90.98 6.9 91.89 6.91 92.79 6.86 93.7 6.8 94.6 6.85 95.5 6.81 96.41 6.9 97.31 6.85 98.21 6.81 99.11 6.88 100.02 6.81 100.92 6.81 101.83 6.81 102.73 6.9 103.64 6.89 104.54 6.83 105.45 6.79 106.35 6.86 107.26 6.85 108.16 6.9 109.06 6.88 109.97 6.91 110.87 6.88 111.78 6.83 112.68 6.86 113.59 6.91 114.5 6.86 115.4 6.8 116.31 6.81 117.22 6.91 118.13 6.83 119.04 6.9 119.91 6.83 119.37 6.2 118.8 5.53 118.19 4.9 117.56 4.28 117.03 3.57 116.44 2.92 115.85 2.26 115.25 1.61 115.02 0.9 115.29 0.19 116.02 0 116.72 0.27 117.33 0.97 117.95 1.66 118.56 2.35 119.21 3.01 119.81 3.71 120.41 4.41 121.05 5.08 121.7 5.75 122.29 6.47 122.95 7.13 123.2 7.82 122.91 8.48"/></g></g></svg>