<svg xmlns="http://www.w3.org/2000/svg" width="159.28" height="153.26" viewBox="0 0 159.28 153.26">
  <defs>
    <style>
      .cls-1 {
        fill: #4b6496;
      }

      .cls-2 {
        fill: #ffb419;
      }

      .cls-3 {
        fill: none;
        stroke: #ffb419;
        stroke-linecap: round;
        stroke-linejoin: round;
        stroke-width: 10px;
      }
    </style>
  </defs>
  <g id="Layer_2" data-name="Layer 2">
    <g id="branding">
      <g>
        <path class="cls-1" d="M0,153.26V79.64A79.65,79.65,0,0,1,79.64,0h0a79.65,79.65,0,0,1,79.64,79.64v73.62Z"/>
        <path class="cls-2" d="M89.83,55.41a13.79,13.79,0,0,0-21.19.19A101.51,101.51,0,0,0,52.08,84.08,13.8,13.8,0,0,0,63.14,102.6a116.38,116.38,0,0,0,15.63,1.11,115.31,115.31,0,0,0,16.82-1.16A13.79,13.79,0,0,0,106.52,84.1,97.8,97.8,0,0,0,99.7,69.54,97.69,97.69,0,0,0,89.83,55.41Z"/>
        <path class="cls-3" d="M48.64,33.24a170.24,170.24,0,0,1,61.28,0"/>
      </g>
    </g>
  </g>
</svg>
