<?xml version="1.0" encoding="utf-8"?>
<!-- Generator: Adobe Illustrator 26.0.1, SVG Export Plug-In . SVG Version: 6.00 Build 0)  -->
<svg version="1.1" id="Layer_1" xmlns="http://www.w3.org/2000/svg" xmlns:xlink="http://www.w3.org/1999/xlink" x="0px" y="0px"
	 viewBox="0 0 140.4 57.4" style="enable-background:new 0 0 140.4 57.4;" xml:space="preserve">
<style type="text/css">
	.st0{enable-background:new    ;}
	.st1{fill:#75BD43;}
	.st2{fill:#76BC21;}
	.st3{fill-rule:evenodd;clip-rule:evenodd;fill:#76BC21;}
	.st4{fill:#F58237;}
	.st5{fill:#F58238;}
	.st6{fill:#F0C319;}
	.st7{fill:#5D266A;}
	.st8{fill:#5C256A;}
	.st9{fill:#67B1E2;}
	.st10{fill:#68B1E2;}
</style>
<g id="Layer_2_00000075848867884480361300000011159153850277253003_">
	<g id="_1">
		<g class="st0">
			<path class="st1" d="M75.3,37.1h3.1v0.9h-2V39h1.7v0.9h-1.7v1.2h2.1v0.9h-3.1V37.1z"/>
		</g>
		<g class="st0">
			<path class="st1" d="M79.2,38.4h0.7l0.1,0.3c0.2-0.3,0.5-0.3,0.9-0.3c0.6,0,1,0.2,1.2,0.7c0.1,0.2,0.1,0.5,0.1,0.9v2h-1V40
				c0-0.6-0.1-0.9-0.5-0.9c-0.4,0-0.5,0.2-0.5,0.9v1.8h-1V38.4z"/>
		</g>
		<g class="st0">
			<path class="st1" d="M82.7,38.4h1l0.7,2.4l0.7-2.4h1l-1.2,3.5h-1L82.7,38.4z"/>
		</g>
		<g class="st0">
			<path class="st1" d="M86.6,37h1v0.9h-1V37z M86.6,38.4h1v3.5h-1V38.4z"/>
		</g>
		<g class="st0">
			<path class="st1" d="M88.5,38.4h0.8l0.1,0.2c0.2-0.2,0.4-0.3,0.7-0.3c0.3,0,0.5,0.1,0.8,0.2l-0.4,0.8c-0.2-0.1-0.3-0.2-0.5-0.2
				c-0.3,0-0.5,0.3-0.5,1.1v1.7h-1V38.4z"/>
		</g>
		<g class="st0">
			<path class="st1" d="M91.2,39.9c0-1.1,0.5-1.6,1.6-1.6c1.1,0,1.6,0.5,1.6,1.6v0.5c0,1.1-0.5,1.6-1.6,1.6c-1.1,0-1.6-0.5-1.6-1.6
				V39.9z M93.3,40c0-0.6-0.2-0.9-0.6-0.9c-0.4,0-0.6,0.2-0.6,0.9v0.4c0,0.6,0.2,0.9,0.6,0.9c0.4,0,0.6-0.2,0.6-0.9V40z"/>
			<path class="st1" d="M95.1,38.4h0.7l0.1,0.3c0.2-0.3,0.5-0.3,0.9-0.3c0.6,0,1,0.2,1.2,0.7c0.1,0.2,0.1,0.5,0.1,0.9v2h-1V40
				c0-0.6-0.1-0.9-0.5-0.9c-0.4,0-0.5,0.2-0.5,0.9v1.8h-1V38.4z"/>
			<path class="st1" d="M99,38.4h0.8l0.1,0.2c0.2-0.2,0.5-0.3,0.8-0.3c0.4,0,0.7,0.1,0.9,0.4c0.2-0.3,0.5-0.4,0.9-0.4
				c0.6,0,1,0.2,1.1,0.7c0.1,0.2,0.1,0.5,0.1,0.9v2h-1V40c0-0.6-0.1-0.9-0.4-0.9s-0.5,0.3-0.5,0.9v1.9h-1V40c0-0.6-0.1-0.9-0.4-0.9
				c-0.3,0-0.5,0.3-0.5,0.9v1.9h-1V38.4z"/>
			<path class="st1" d="M105.6,40.5c0,0.5,0.2,0.7,0.7,0.7c0.3,0,0.5-0.1,0.7-0.4l0.7,0.4c-0.3,0.5-0.7,0.7-1.5,0.7
				c-1.1,0-1.5-0.5-1.5-1.7v-0.2c0-0.6,0.1-1,0.3-1.3c0.2-0.3,0.7-0.5,1.3-0.5c1.1,0,1.6,0.5,1.6,1.8v0.3L105.6,40.5L105.6,40.5z
				 M106.8,39.7L106.8,39.7c0-0.5-0.2-0.7-0.6-0.7c-0.4,0-0.6,0.2-0.6,0.6v0.1H106.8z"/>
			<path class="st1" d="M108.5,38.4h0.7l0.1,0.3c0.2-0.3,0.5-0.3,0.9-0.3c0.6,0,1,0.2,1.2,0.7c0.1,0.2,0.1,0.5,0.1,0.9v2h-1V40
				c0-0.6-0.1-0.9-0.5-0.9c-0.4,0-0.5,0.2-0.5,0.9v1.8h-1V38.4z"/>
			<path class="st1" d="M112.1,39.2v-0.8h0.4l0.1-1h0.9v1h0.7v0.8h-0.7v1.2c0,0.6,0.1,0.7,0.6,0.7h0.1v0.8h-0.1
				c-1.3,0-1.6-0.3-1.6-1.6v-1.1H112.1z"/>
		</g>
		<path class="st2" d="M62.9,45.6c-3.3-0.4-5.6-3.3-5.2-6.6c0.2-1.8,1.3-3.5,2.9-4.4c0.2-0.6,0.3-1.2,0.4-1.9
			c-3.8,1.4-5.8,5.7-4.3,9.6c0.9,2.4,3,4.2,5.6,4.7C62.5,46.5,62.7,46,62.9,45.6L62.9,45.6z"/>
		<path class="st2" d="M63.6,32.3c-0.3,0-0.5,0-0.8,0c1.3,0.5,2.5,1.2,3.5,2.1c2.9,1.5,4.1,5.1,2.6,8c-0.8,1.5-2.1,2.6-3.7,3
			c-0.2,0.5-0.3,1.1-0.6,1.7c4.1-0.5,7-4.2,6.4-8.3C70.6,35,67.4,32.2,63.6,32.3L63.6,32.3z"/>
		<path class="st3" d="M61.5,32.2c-0.2,1.2-0.5,2.4-0.9,3.5c-0.7,1.6-1,3.3-0.9,5c0.1,1.5,0.9,2.9,2.1,3.8c0.4,0.2,0.5,0.2,0.7,0
			c0.5-0.8,0.8-1.7,1-2.7c0.3-1.7,0.4-3.4,0-5.1c-0.1-0.4-0.2-0.8-0.3-1.2c0-0.2,0.1-0.2,0.2,0c0.2,0.4,0.4,0.8,0.5,1.2
			c0.5,1.7,0.6,3.5,0.3,5.3c-0.4,1.8-0.9,3.5-1.8,5.1c-0.2,0.4,1.2,0.7,1.3,0.4c0.4-0.9,0.7-1.9,1-2.9c1-0.6,1.8-1.5,2.3-2.6
			c1.1-1.9,1-4.2-0.1-6.1C65.9,34,63.6,33.2,61.5,32.2L61.5,32.2z"/>
		<g class="st0">
			<path class="st4" d="M19.3,5.2h1.1v2h1.4v-2h1.1v4.9h-1.1V8h-1.4v2h-1.1V5.2z"/>
			<path class="st4" d="M24.8,6.5v1.9c0,0.6,0.1,0.9,0.5,0.9c0.3,0,0.5-0.3,0.5-0.9V6.5h1v3.5h-0.7L26,9.8c-0.2,0.3-0.4,0.4-0.9,0.4
				c-0.6,0-1-0.2-1.1-0.7c-0.1-0.2-0.1-0.5-0.1-0.9v-2H24.8z"/>
		</g>
		<g class="st0">
			<path class="st4" d="M27.7,6.5h0.7l0.1,0.3c0.2-0.3,0.5-0.3,0.9-0.3c0.6,0,1,0.2,1.2,0.7c0.1,0.2,0.1,0.5,0.1,0.9v2h-1V8.2
				c0-0.6-0.1-0.9-0.5-0.9c-0.4,0-0.5,0.2-0.5,0.9v1.8h-1V6.5z"/>
			<path class="st4" d="M33.5,10c-0.2,0.1-0.4,0.2-0.8,0.2c-0.9,0-1.3-0.5-1.3-1.6V8c0-1.1,0.4-1.6,1.3-1.6c0.4,0,0.7,0.1,0.9,0.3
				l0.1-0.2h0.8v3.4c0,0.6-0.1,1-0.3,1.3c-0.3,0.3-0.7,0.5-1.3,0.5c-0.7,0-1.1-0.2-1.4-0.7l0.7-0.4c0.2,0.3,0.3,0.4,0.6,0.4
				C33.3,10.9,33.5,10.7,33.5,10L33.5,10z M32.5,8.5c0,0.6,0.2,0.9,0.5,0.9c0.4,0,0.5-0.2,0.5-0.7V7.9c0-0.5-0.2-0.7-0.5-0.7
				s-0.5,0.3-0.5,0.9V8.5z"/>
		</g>
		<g class="st0">
			<path class="st4" d="M36.3,8.6c0,0.5,0.2,0.7,0.7,0.7c0.3,0,0.5-0.1,0.7-0.4l0.7,0.4c-0.3,0.5-0.7,0.7-1.5,0.7
				c-1.1,0-1.5-0.5-1.5-1.7V8.2c0-0.6,0.1-1,0.3-1.3c0.2-0.3,0.7-0.5,1.3-0.5c1.1,0,1.6,0.5,1.6,1.8v0.3L36.3,8.6L36.3,8.6z
				 M37.5,7.9L37.5,7.9c0-0.5-0.2-0.7-0.6-0.7c-0.4,0-0.6,0.2-0.6,0.6v0.1H37.5z"/>
			<path class="st4" d="M39.2,6.5H40l0.1,0.2c0.2-0.2,0.4-0.3,0.7-0.3c0.3,0,0.5,0.1,0.8,0.2l-0.4,0.8c-0.2-0.1-0.3-0.2-0.5-0.2
				c-0.3,0-0.5,0.3-0.5,1.1v1.7h-1V6.5z"/>
		</g>
		<path class="st5" d="M13.4,5.3c0.6,0.4,1,1.1,0.3,2.4c-0.1,0.2-0.2,0.3-0.3,0.5c-0.4,3.2-3.4,5.5-6.7,5.1c-2.4-0.3-4.4-2.1-5-4.5
			c-0.3-0.3-0.5-0.6-0.7-1C0.8,7.3,0.7,6.6,0.9,6C1.1,5.5,1.6,5.1,2.2,5C3.5,2,7,0.7,10,2c0.7,0.3,1.3,0.8,1.9,1.4
			c0.4-0.3,0.9-0.5,1.4-0.7C10.6-0.5,5.9-0.9,2.8,1.7s-3.6,7.3-0.9,10.5s7.3,3.6,10.5,0.9C14,11.7,15,9.6,15,7.4
			c0-0.9-0.2-1.7-0.4-2.5C14.2,5,13.8,5.2,13.4,5.3L13.4,5.3z"/>
		<path class="st5" d="M12.8,6.4c0,0.5-1.4,0.9-3.2,1.1C9.6,7.3,9.7,7,9.6,6.7c0.6-0.3,1.3-0.7,2-1C12.4,5.9,12.8,6.2,12.8,6.4
			L12.8,6.4z M5.6,7.6c-1,0-2-0.3-3-0.6C2.5,6.9,2.3,6.8,2.2,6.7C2.1,6.6,2.1,6.5,2.1,6.4c0-0.7,2.3-1.1,5.3-1.1
			c0.8,0,1.6,0,2.4,0.1C9.4,5.7,9.1,6,8.7,6.4C7.5,6.3,6.4,6.8,5.6,7.6L5.6,7.6z M15.4,2.4c-1.8,0.5-3.5,1.3-5,2.5l0,0L9.2,4.8
			c-0.6,0-1.2,0-1.8,0s-1.2,0-1.8,0C4.6,4.9,3.5,5,2.5,5.3C1.2,5.7,0.9,6.4,1.5,7.6c0.7,1,1.5,2,2.4,2.9c0.2,1,1.9,1.5,3.6,1.5
			s3.4-0.5,3.6-1.5c0.9-0.9,1.7-1.9,2.4-2.9c0.5-1,0.3-1.6-0.4-2c-0.2-0.1-0.4-0.2-0.6-0.2c1.1-0.5,2.3-0.9,3.5-1.2
			c0.5-0.1,0.7-0.2,0.7-0.8C16.6,3.1,16.2,2.2,15.4,2.4L15.4,2.4z"/>
		<g class="st0">
			<path class="st6" d="M78.7,18.3c0,0.4-0.1,0.7-0.3,0.9c-0.3,0.3-0.8,0.5-1.4,0.5c-0.7,0-1.1-0.2-1.5-0.6
				c-0.2-0.3-0.3-0.7-0.3-1.4v-1.1c0-0.8,0.1-1.1,0.4-1.5c0.3-0.4,0.7-0.5,1.4-0.5c1.1,0,1.6,0.5,1.7,1.4l-1,0.1
				c-0.1-0.5-0.3-0.7-0.7-0.7c-0.6,0-0.7,0.3-0.7,1.2v0.9c0,0.9,0.2,1.2,0.7,1.2c0.5,0,0.7-0.2,0.8-0.7L78.7,18.3z"/>
			<path class="st6" d="M79.4,14.7h1v1.5c0.3-0.2,0.5-0.2,0.8-0.2c0.6,0,1,0.2,1.1,0.7c0.1,0.2,0.1,0.5,0.1,0.9v2h-1v-2
				c0-0.6-0.2-0.8-0.5-0.8c-0.4,0-0.5,0.3-0.5,0.9v1.9h-1V14.7z"/>
			<path class="st6" d="M83.4,14.7h1v0.9h-1V14.7z M83.4,16.1h1v3.5h-1V16.1z"/>
			<path class="st6" d="M86.3,14.7v3.4c0,0.6,0.1,0.7,0.6,0.7H87v0.8h-0.1c-1.3,0-1.6-0.3-1.6-1.6v-3.3H86.3z"/>
			<path class="st6" d="M89.6,19.4C89.5,19.4,89.5,19.4,89.6,19.4c-0.3,0.2-0.5,0.3-0.9,0.3c-0.9,0-1.3-0.5-1.3-1.6v-0.5
				c0-1.1,0.4-1.6,1.3-1.6c0.2,0,0.4,0,0.6,0.1c0,0,0,0,0.1,0.1c0,0,0,0,0.1,0v-1.5h1v4.9h-0.8L89.6,19.4z M88.3,18
				c0,0.6,0.2,0.9,0.5,0.9c0.4,0,0.5-0.2,0.5-0.7v-0.8c0-0.5-0.2-0.7-0.5-0.7s-0.5,0.3-0.5,0.9V18z"/>
			<path class="st6" d="M91.3,14.7h1v1.5c0.3-0.2,0.5-0.2,0.8-0.2c0.6,0,1,0.2,1.1,0.7c0.1,0.2,0.1,0.5,0.1,0.9v2h-1v-2
				c0-0.6-0.2-0.8-0.5-0.8c-0.4,0-0.5,0.3-0.5,0.9v1.9h-1V14.7z"/>
			<path class="st6" d="M95.1,17.6c0-1.1,0.5-1.6,1.6-1.6c1.1,0,1.6,0.5,1.6,1.6v0.5c0,1.1-0.5,1.6-1.6,1.6c-1.1,0-1.6-0.5-1.6-1.6
				V17.6z M97.2,17.6c0-0.6-0.2-0.9-0.6-0.9c-0.4,0-0.6,0.2-0.6,0.9V18c0,0.6,0.2,0.9,0.6,0.9c0.4,0,0.6-0.2,0.6-0.9V17.6z"/>
			<path class="st6" d="M98.9,17.6c0-1.1,0.5-1.6,1.6-1.6c1.1,0,1.6,0.5,1.6,1.6v0.5c0,1.1-0.5,1.6-1.6,1.6c-1.1,0-1.6-0.5-1.6-1.6
				V17.6z M101.1,17.6c0-0.6-0.2-0.9-0.6-0.9c-0.4,0-0.6,0.2-0.6,0.9V18c0,0.6,0.2,0.9,0.6,0.9c0.4,0,0.6-0.2,0.6-0.9V17.6z"/>
			<path class="st6" d="M105,19.4C105,19.4,105,19.4,105,19.4c-0.3,0.2-0.5,0.3-0.9,0.3c-0.9,0-1.3-0.5-1.3-1.6v-0.5
				c0-1.1,0.4-1.6,1.3-1.6c0.2,0,0.4,0,0.6,0.1c0,0,0,0,0.1,0.1c0,0,0,0,0.1,0v-1.5h1v4.9h-0.8L105,19.4z M103.8,18
				c0,0.6,0.2,0.9,0.5,0.9c0.4,0,0.5-0.2,0.5-0.7v-0.8c0-0.5-0.2-0.7-0.5-0.7s-0.5,0.3-0.5,0.9V18z"/>
		</g>
		<g class="st0">
			<path class="st6" d="M111.6,18.3c0,0.4-0.1,0.7-0.3,0.9c-0.3,0.3-0.8,0.5-1.4,0.5c-0.7,0-1.1-0.2-1.5-0.6
				c-0.2-0.3-0.3-0.7-0.3-1.4v-1.1c0-0.8,0.1-1.1,0.4-1.5c0.3-0.4,0.7-0.5,1.4-0.5c1.1,0,1.6,0.5,1.7,1.4l-1,0.1
				c-0.1-0.5-0.3-0.7-0.7-0.7c-0.6,0-0.7,0.3-0.7,1.2v0.9c0,0.9,0.2,1.2,0.7,1.2c0.5,0,0.7-0.2,0.8-0.7L111.6,18.3z"/>
		</g>
		<g class="st0">
			<path class="st6" d="M114.3,17.3c0-0.4-0.2-0.5-0.5-0.5c-0.3,0-0.5,0.1-0.7,0.3l-0.7-0.5c0.3-0.4,0.8-0.7,1.4-0.7
				c0.7,0,1.1,0.2,1.3,0.6c0.1,0.2,0.1,0.4,0.1,0.9v2.1h-0.8l-0.1-0.2c-0.2,0.2-0.5,0.3-0.9,0.3c-0.9,0-1.2-0.3-1.2-1.1
				c0-0.9,0.3-1.1,1.3-1.1h0.6V17.3z M113.7,18.1c-0.4,0-0.5,0.1-0.5,0.4c0,0.3,0.1,0.4,0.5,0.4c0.4,0,0.5-0.1,0.5-0.6v-0.3H113.7z"
				/>
			<path class="st6" d="M116.1,16.1h0.7l0.1,0.3c0.2-0.3,0.5-0.3,0.9-0.3c0.6,0,1,0.2,1.2,0.7c0.1,0.2,0.1,0.5,0.1,0.9v2h-1v-1.9
				c0-0.6-0.1-0.9-0.5-0.9c-0.4,0-0.5,0.2-0.5,0.9v1.8h-1V16.1z"/>
		</g>
		<g class="st0">
			<path class="st6" d="M122.9,19c-0.3,0.5-0.7,0.7-1.4,0.7c-0.6,0-1-0.2-1.3-0.6c-0.2-0.3-0.2-0.6-0.2-1.2v-0.2
				c0-0.6,0.1-1,0.3-1.3c0.3-0.3,0.6-0.5,1.2-0.5c0.7,0,1.1,0.2,1.4,0.7l-0.7,0.4c-0.2-0.3-0.3-0.4-0.6-0.4c-0.4,0-0.5,0.3-0.5,0.9
				V18c0,0.6,0.2,0.9,0.6,0.9c0.3,0,0.4-0.1,0.6-0.3L122.9,19z"/>
		</g>
		<g class="st0">
			<path class="st6" d="M124.3,18.2c0,0.5,0.2,0.7,0.7,0.7c0.3,0,0.5-0.1,0.7-0.4l0.7,0.4c-0.3,0.5-0.7,0.7-1.5,0.7
				c-1.1,0-1.5-0.5-1.5-1.7v-0.2c0-0.6,0.1-1,0.3-1.3c0.2-0.3,0.7-0.5,1.3-0.5c1.1,0,1.6,0.5,1.6,1.8v0.3L124.3,18.2L124.3,18.2z
				 M125.5,17.4L125.5,17.4c0-0.5-0.2-0.7-0.6-0.7c-0.4,0-0.6,0.2-0.6,0.6v0.1H125.5z"/>
			<path class="st6" d="M127.2,16.1h0.8l0.1,0.2c0.2-0.2,0.4-0.3,0.7-0.3c0.3,0,0.5,0.1,0.8,0.2l-0.4,0.8c-0.2-0.1-0.3-0.2-0.5-0.2
				c-0.3,0-0.5,0.3-0.5,1.1v1.7h-1V16.1z"/>
		</g>
		<path class="st6" d="M63.7,10c-4.1,0-7.4,3.3-7.4,7.4c0,2.2,1,4.3,2.7,5.7c0.1-0.1,0.1-0.3,0.2-0.4l0,0l0.6-0.9
			c-2.4-2.2-2.7-5.9-0.5-8.4c0.3-0.4,0.7-0.7,1.2-1c0.6-1.8,2.6-2.8,4.5-2.2c1,0.4,1.8,1.2,2.2,2.2l0,0c2.7,1.8,3.4,5.5,1.6,8.2
			c-0.3,0.4-0.6,0.7-0.9,1l0.4,0.6l0.1,0.1c0.1,0.2,0.3,0.4,0.4,0.6c3.1-2.7,3.5-7.3,0.8-10.5C68,10.9,65.9,9.9,63.7,10L63.7,10z"/>
		<path class="st6" d="M65.5,24.6C65.5,24.6,65.5,24.5,65.5,24.6l-0.1-0.2l-0.7-1.1c-0.3,0.1-0.7,0.1-1,0.1c-0.3,0-0.6,0-0.8-0.1
			l-0.3,0.6l-0.5,0.8c1.1,0.3,2.3,0.3,3.4,0L65.5,24.6L65.5,24.6z"/>
		<path class="st6" d="M62.9,15c-0.3-0.5-0.3-1.1-0.2-1.7c0.1-0.5,0.5-0.8,1-0.8l0,0c0.5,0,0.9,0.3,1,0.8c0.2,0.6,0.1,1.2-0.2,1.7
			c-0.2,0.4-0.5,0.8-0.8,1.4C63.5,15.8,63.2,15.3,62.9,15L62.9,15z M67.8,22.6c-0.2-0.2-1.4-2.1-2.7-4.1c0.5-1,1-1.8,1.3-2.5
			c0.6-1.1,0.6-2.3,0.2-3.5c-0.4-1.2-1.6-2.1-2.9-2.1l0,0c-1.3,0-2.5,0.9-2.9,2.1c-0.4,1.1-0.4,2.4,0.2,3.5c0.3,0.6,0.8,1.5,1.4,2.5
			c-1.4,2.2-2.8,4.4-2.8,4.4c-0.4,0.6-0.3,1.4,0.3,1.8c0.4,0.5,1.1,0.5,1.5,0.2c0.1-0.1,0.2-0.2,0.3-0.4c0.1-0.1,1-1.8,2.1-3.6
			c1,1.7,2,3.2,2,3.4s0.7,1.5,1.9,0.7S68,23,67.8,22.6L67.8,22.6z"/>
		<g class="st0">
			<path class="st7" d="M18.7,26.2h1.1l1.1,3.5l1.1-3.5h1.1l-1.6,4.9h-0.9L18.7,26.2z"/>
		</g>
		<g class="st0">
			<path class="st7" d="M23.6,26.2h1v0.9h-1V26.2z M23.6,27.6h1v3.5h-1V27.6z"/>
			<path class="st7" d="M25.9,30.1c0.2,0.3,0.3,0.4,0.7,0.4c0.4,0,0.6-0.1,0.6-0.4c0-0.2-0.1-0.3-0.4-0.3c-0.6-0.1-0.8-0.1-1-0.2
				c-0.3-0.2-0.5-0.4-0.5-0.9c0-0.7,0.5-1.2,1.3-1.2c0.7,0,1.1,0.2,1.4,0.7l-0.7,0.4c-0.2-0.3-0.3-0.4-0.6-0.4
				c-0.3,0-0.5,0.1-0.5,0.3c0,0.2,0.1,0.3,0.5,0.3c1.1,0.1,1.4,0.3,1.4,1.1c0,0.8-0.5,1.1-1.5,1.1c-0.8,0-1.3-0.2-1.5-0.7L25.9,30.1
				z"/>
			<path class="st7" d="M28.9,26.2h1v0.9h-1V26.2z M28.9,27.6h1v3.5h-1V27.6z"/>
			<path class="st7" d="M30.7,29.1c0-1.1,0.5-1.6,1.6-1.6c1.1,0,1.6,0.5,1.6,1.6v0.5c0,1.1-0.5,1.6-1.6,1.6c-1.1,0-1.6-0.5-1.6-1.6
				V29.1z M32.8,29.2c0-0.6-0.2-0.9-0.6-0.9c-0.4,0-0.6,0.2-0.6,0.9v0.4c0,0.6,0.2,0.9,0.6,0.9c0.4,0,0.6-0.2,0.6-0.9V29.2z"/>
			<path class="st7" d="M34.6,27.6h0.7l0.1,0.3c0.2-0.3,0.5-0.3,0.9-0.3c0.6,0,1,0.2,1.2,0.7c0.1,0.2,0.1,0.5,0.1,0.9v2h-1v-1.9
				c0-0.6-0.1-0.9-0.5-0.9c-0.4,0-0.5,0.2-0.5,0.9v1.8h-1V27.6z"/>
		</g>
		<path class="st8" d="M7.6,22.6c-3.3,0-5.9,2.7-5.9,5.9s2.7,5.9,5.9,5.9s5.9-2.7,5.9-5.9l0,0C13.5,25.3,10.9,22.7,7.6,22.6z
			 M7.6,36c-4.1,0-7.4-3.3-7.4-7.5c0-4.1,3.3-7.4,7.5-7.4s7.4,3.3,7.4,7.5c0,0,0,0,0,0C15,32.7,11.7,36,7.6,36z"/>
		<path class="st8" d="M11.5,28.9C10.8,30,9.7,30.8,8.3,31c-1.3,0.2-2.7-0.1-3.7-1c-0.4-0.3-0.7-0.7-1-1.1c-0.1-0.1-0.1-0.2,0-0.3
			c0.5-0.7,1.1-1.2,1.8-1.6c-0.4,0.9-0.2,1.9,0.4,2.7l0,0c0.5,0.5,1.1,0.8,1.8,0.8c1.3,0,2.4-1.1,2.4-2.4c0-0.4-0.1-0.8-0.3-1.1
			c0.1,0,0.1,0,0.2,0.1c0.7,0.4,1.2,0.9,1.7,1.6C11.6,28.7,11.6,28.8,11.5,28.9L11.5,28.9z M7.5,26.5c0.1,0,0.3,0,0.3,0.2
			s-0.1,0.2-0.3,0.2c-0.6,0-1,0.5-1,1c0,0.2-0.1,0.3-0.3,0.3S6,28.1,6.1,28C6.1,27.2,6.8,26.5,7.5,26.5L7.5,26.5z M8.3,28
			c0,0.4-0.3,0.7-0.7,0.7S7,28.4,7,28c0-0.4,0.3-0.7,0.7-0.7l0,0C8,27.4,8.3,27.7,8.3,28z M8.4,26.6c0.2,0,0.3,0.1,0.3,0.3
			c0,0.2-0.2,0.3-0.4,0.3c-0.1,0-0.3-0.1-0.3-0.3C8.1,26.8,8.2,26.6,8.4,26.6z M12.2,28.3c-1.1-1.9-3.3-2.8-5.5-2.5
			C5.2,26.1,3.8,27,3,28.3c-0.2,0.2-0.2,0.5,0,0.8c1,1.6,2.7,2.6,4.6,2.7c1.9-0.1,3.6-1,4.5-2.6C12.4,28.9,12.4,28.5,12.2,28.3z"/>
		<g class="st0">
			<path class="st9" d="M18.9,47.2h1.7c1.3,0,1.9,0.6,1.9,1.9v1.1c0,1.3-0.6,1.9-1.9,1.9h-1.7V47.2z M20.5,51.2c0.8,0,1-0.2,1-1.2
				v-0.9c0-0.9-0.2-1.2-1-1.2H20v3.2H20.5z"/>
			<path class="st9" d="M23.4,47.1h1v0.9h-1V47.1z M23.4,48.5h1v3.5h-1V48.5z"/>
			<path class="st9" d="M27.1,49.8c0-0.4-0.2-0.5-0.5-0.5c-0.3,0-0.5,0.1-0.7,0.3l-0.7-0.5c0.3-0.4,0.8-0.7,1.4-0.7
				c0.7,0,1.1,0.2,1.3,0.6c0.1,0.2,0.1,0.4,0.1,0.9v2.1h-0.8l-0.1-0.2c-0.2,0.2-0.5,0.3-0.9,0.3c-0.9,0-1.2-0.3-1.2-1.1
				c0-0.9,0.3-1.1,1.3-1.1h0.6V49.8z M26.6,50.6c-0.4,0-0.5,0.1-0.5,0.4c0,0.3,0.1,0.4,0.5,0.4c0.4,0,0.5-0.1,0.5-0.6v-0.3H26.6z"/>
			<path class="st9" d="M29,47.2h1v1.5c0.3-0.2,0.5-0.2,0.7-0.2c0.9,0,1.3,0.5,1.3,1.6v0.5c0,1.1-0.4,1.6-1.3,1.6
				c-0.4,0-0.6-0.1-0.9-0.3l-0.1,0.2H29V47.2z M31.1,50.1c0-0.6-0.2-0.9-0.5-0.9S30,49.5,30,49.9v0.8c0,0.5,0.2,0.7,0.5,0.7
				c0.4,0,0.5-0.3,0.5-0.9V50.1z"/>
		</g>
		<g class="st0">
			<path class="st9" d="M33.8,50.6c0,0.5,0.2,0.7,0.7,0.7c0.3,0,0.5-0.1,0.7-0.4l0.7,0.4c-0.3,0.5-0.7,0.7-1.5,0.7
				c-1.1,0-1.5-0.5-1.5-1.7v-0.2c0-0.6,0.1-1,0.3-1.3c0.2-0.3,0.7-0.5,1.3-0.5c1.1,0,1.6,0.5,1.6,1.8v0.3L33.8,50.6L33.8,50.6z
				 M35,49.9L35,49.9c0-0.5-0.2-0.7-0.6-0.7c-0.4,0-0.6,0.2-0.6,0.6v0.1H35z"/>
		</g>
		<g class="st0">
			<path class="st9" d="M36.4,49.3v-0.8h0.4l0.1-1h0.9v1h0.7v0.8h-0.7v1.2c0,0.6,0.1,0.7,0.6,0.7h0.1v0.8h-0.1
				c-1.3,0-1.6-0.3-1.6-1.6v-1.1H36.4z"/>
		</g>
		<g class="st0">
			<path class="st9" d="M40.1,50.6c0,0.5,0.2,0.7,0.7,0.7c0.3,0,0.5-0.1,0.7-0.4l0.7,0.4c-0.3,0.5-0.7,0.7-1.5,0.7
				c-1.1,0-1.5-0.5-1.5-1.7v-0.2c0-0.6,0.1-1,0.3-1.3c0.2-0.3,0.7-0.5,1.3-0.5c1.1,0,1.6,0.5,1.6,1.8v0.3L40.1,50.6L40.1,50.6z
				 M41.2,49.9L41.2,49.9c0-0.5-0.2-0.7-0.6-0.7c-0.4,0-0.6,0.2-0.6,0.6v0.1H41.2z"/>
		</g>
		<g class="st0">
			<path class="st9" d="M43.4,51c0.2,0.3,0.3,0.4,0.7,0.4c0.4,0,0.6-0.1,0.6-0.4c0-0.2-0.1-0.3-0.4-0.3c-0.6-0.1-0.8-0.1-1-0.2
				c-0.3-0.2-0.5-0.4-0.5-0.9c0-0.7,0.5-1.2,1.3-1.2c0.7,0,1.1,0.2,1.4,0.7l-0.7,0.4c-0.2-0.3-0.3-0.4-0.6-0.4
				c-0.3,0-0.5,0.1-0.5,0.3c0,0.2,0.1,0.3,0.5,0.3c1.1,0.1,1.4,0.3,1.4,1.1c0,0.8-0.5,1.1-1.5,1.1c-0.8,0-1.3-0.2-1.5-0.7L43.4,51z"
				/>
		</g>
		<path class="st10" d="M9.3,55.6c0.3-0.5,0.7-0.9,1.2-1.2c0.3-0.2,0.5-0.4,0.8-0.7c0.2-0.3,0.3-0.7,0.3-1c0.1-0.5,0.2-1.1,0.4-1.5
			l0.1-0.5c0.1-0.4,0.5-1.5,0.5-1.8c-0.1,0-0.2,0-0.3,0c-0.4,0.1-0.7,0.4-0.9,0.7c-0.1,0.4-0.3,0.8-0.3,1c0,0,0.1,0,0.1,0.1
			c0.2,0.3-0.2,1.3-0.4,1.5l-0.2,0.2c-0.3,0.2-0.5,0.5-0.6,0.9c0,0-0.1,0.1-0.1,0.1c0,0-0.1-0.1-0.1-0.1c0.1-0.4,0.3-0.7,0.6-1
			c0.1-0.1,0.1-0.1,0.2-0.2c0.2-0.2,0.6-1.1,0.4-1.3c0,0,0,0-0.1,0l0,0H11c-0.3,0.1-0.6,0.4-0.7,0.7c-0.2,0.3-0.5,0.6-0.9,0.8
			c-0.7,0.4-1.3,0.9-1.8,1.6c-0.1,0.7-0.1,1.4,0,2.2H7.3c0.1-0.7,0.1-1.4,0-2.2c-0.4-0.7-1-1.2-1.8-1.6c-0.3-0.2-0.6-0.5-0.9-0.8
			c-0.2-0.3-0.4-0.5-0.7-0.7H3.9l0,0H3.8C3.7,50.9,4,51.8,4.2,52c0.1,0.1,0.1,0.1,0.2,0.2c0.3,0.3,0.5,0.6,0.6,1c0,0,0,0.1-0.1,0.1
			c0,0-0.1,0-0.1-0.1c-0.1-0.4-0.3-0.7-0.6-0.9l-0.2-0.2C3.9,52,3.5,51,3.7,50.7c0,0,0.1-0.1,0.1-0.1c-0.1-0.2-0.2-0.7-0.3-1
			c-0.1-0.4-0.5-0.7-0.8-0.7c-0.1,0-0.2,0-0.3,0c0.1,0.3,0.5,1.3,0.6,1.8L3,51.1c0.1,0.5,0.3,1.1,0.4,1.5c0.1,0.3,0.2,0.7,0.3,1
			c0.2,0.3,0.5,0.5,0.8,0.7c0.5,0.3,0.9,0.7,1.2,1.2c-3.1-1-4.8-4.4-3.8-7.5s4.4-4.8,7.5-3.8s4.8,4.4,3.8,7.5
			C12.6,53.6,11.2,55,9.3,55.6L9.3,55.6z M7.4,42.5c-4.1,0-7.5,3.3-7.5,7.4c0,4.1,3.3,7.5,7.4,7.5s7.5-3.3,7.5-7.4c0,0,0,0,0,0
			C14.9,45.8,11.6,42.5,7.4,42.5z"/>
		<path class="st10" d="M8,50.7c0.2,0,0.4-0.1,0.6-0.2C8.4,50.5,8.2,50.6,8,50.7z"/>
		<path class="st10" d="M6.9,50.7L6.9,50.7z M5.3,49.3c-0.5-1.2,0-2.6,1.2-3.2c0.1-0.1,0.2-0.1,0.4-0.1l0,0H7h0.1h0.4h0.1
			c0.2,0,0.5,0.1,0.7,0.1c1.2,0.4,1.9,1.8,1.5,3c-0.1,0.2-0.1,0.4-0.2,0.5l0,0c0,0,0,0,0,0.1c-0.2,0.2-0.4,0.4-0.6,0.6l0,0H8.8
			l-0.1,0l0.1,0c-0.4,0.2-0.8,0.3-1.2,0.3c-0.2,0-0.4,0-0.6-0.1c0.3,0.1,0.7,0.1,1.1,0C7,50.9,5.8,50.3,5.3,49.3L5.3,49.3z
			 M10.7,46.6c-0.2-0.4-0.5-0.8-0.9-1.1C9.4,45.2,9,45,8.5,44.8c-0.5-0.1-0.9-0.2-1.4-0.1c-0.4,0-0.7,0.1-1.1,0.3L5.9,45l0,0
			c-1.8,0.8-2.6,3-1.8,4.8c0.1,0.2,0.2,0.4,0.3,0.6c0.2,0.3,0.4,0.5,0.7,0.7c0.4,0.3,0.8,0.5,1.2,0.7C6.8,52,7.3,52,7.8,52
			c0.2,0,0.4,0,0.6-0.1h0.1l0,0c0.4-0.1,0.8-0.3,1.1-0.5l0,0l0.1-0.1l0.1-0.1l0,0c0.5-0.5,0.9-1,1.1-1.7c0.3-0.9,0.2-1.9-0.2-2.8
			L10.7,46.6z"/>
	</g>
</g>
</svg>
