<svg xmlns="http://www.w3.org/2000/svg" width="2192.57" height="3429.94" viewBox="0 0 2192.57 3429.94">
  <defs>
    <style>
      .cls-1 {
        opacity: 0.4;
      }

      .cls-2 {
        fill: #ffe3a6;
      }

      .cls-3 {
        fill: #ffb419;
      }

      .cls-4 {
        fill: none;
      }
    </style>
  </defs>
  <g id="Layer_2" data-name="Layer 2">
    <g id="HowWeHelp">
      <g id="Content">
        <g class="cls-1">
          <path class="cls-2" d="M1705.68,329.71c7.55,155.59,191.67,240.27,163.57,377.47C1858,762.23,1766.4,821.06,1745.52,837.43l40.72,10.11c4.72-3,9.32-6.21,13.77-9.61a245.37,245.37,0,0,0,19.33-16.67q9.18-8.73,17.45-18.32a225.14,225.14,0,0,0,28.84-41.78A179.45,179.45,0,0,0,1883.18,713a158.93,158.93,0,0,0,2.29-51.53,185.27,185.27,0,0,0-13.3-49.07,314.6,314.6,0,0,0-22.87-43.7c-8.49-13.82-17.59-27-26.71-40-18.23-25.88-36.71-50.93-52.16-77A336.56,336.56,0,0,1,1750,412a219.24,219.24,0,0,1-13.08-40.87,174.44,174.44,0,0,1-3-20.61,155.77,155.77,0,0,1-.52-20.47,160.84,160.84,0,0,1,2-20.15c.31-1.66.53-3.32.89-5l1-4.93,1.21-4.9c.39-1.62.9-3.24,1.34-4.85a187.06,187.06,0,0,1,15.52-37.33c1.57-3,3.38-5.93,5.08-8.87.86-1.46,1.82-2.9,2.72-4.35s1.78-2.91,2.78-4.33c2-2.84,3.85-5.68,5.94-8.45l3.06-4.16,3.21-4.11c17.22-21.77,38-41.34,60.92-58.74,11.44-8.73,23.43-16.91,35.85-24.56,6.34-3.74,12.47-7.59,19-11,6.38-3.59,13-6.93,19.7-10.15l-50.32-59.06C1758.05,159.05,1702.81,270.7,1705.68,329.71Z"/>
          <path class="cls-3" d="M1869.25,707.18c28.1-137.2-156-221.88-163.57-377.47-2.87-59,52.37-170.66,157.7-274.6L1816.41,0c-2.56,3.55-5.2,7-7.78,10.46s-5.24,6.91-7.81,10.39l-7.76,10.41-7.7,10.44c-10.15,14.07-20.1,28.25-29.69,42.73-19.1,29-36.8,59.3-50.93,91.8l-2.64,6.08-2.49,6.18c-1.69,4.08-3.17,8.31-4.71,12.47-.81,2.06-1.48,4.21-2.22,6.31s-1.46,4.2-2.12,6.34c-1.3,4.3-2.67,8.52-3.79,12.88a289.93,289.93,0,0,0-9.7,53,240.85,240.85,0,0,0-.9,27,243.83,243.83,0,0,0,14.57,78.08,297.33,297.33,0,0,0,21.59,46.3,451,451,0,0,0,27,41.36c19,26.28,39.51,50.36,58.51,74.82,9.51,12.22,18.62,24.54,26.89,37.19A252.81,252.81,0,0,1,1846,623.33,145.54,145.54,0,0,1,1857,664.67a121.8,121.8,0,0,1-2.89,41.83,139.12,139.12,0,0,1-16.23,39.11,175.49,175.49,0,0,1-26.62,33.79c-.86.86-1.74,1.71-2.62,2.56h0c-3.2,9.35,8.67,16.48,15.38,9.22C1842.51,771.2,1861.94,742.86,1869.25,707.18Z"/>
          <g>
            <path class="cls-4" d="M1507.15,800.88c1,.48,2.11.94,3.16,1.41C1509.26,801.82,1508.2,801.36,1507.15,800.88Z"/>
            <path class="cls-4" d="M1495.16,795.49l3.2,1.45Z"/>
            <path class="cls-4" d="M1160.22,651.12l3.67,1.21Z"/>
            <path class="cls-4" d="M1501.18,798.21l3.17,1.42Z"/>
            <path class="cls-4" d="M1513.08,803.51l3.16,1.39Z"/>
            <path class="cls-4" d="M1143.72,645.86l3.46,1.08Z"/>
            <path class="cls-4" d="M1524.82,808.62,1528,810Z"/>
            <path class="cls-4" d="M1152,648.46l3.61,1.16Z"/>
            <path class="cls-4" d="M1519,806.09l3.17,1.37Z"/>
            <path class="cls-4" d="M1530.63,811.1l3.16,1.33Z"/>
            <path class="cls-4" d="M1470.69,784.21l3.32,1.55Z"/>
            <path class="cls-4" d="M1476.85,787.08l3.3,1.53Z"/>
            <path class="cls-4" d="M1168.4,653.82l3.68,1.24Z"/>
            <path class="cls-4" d="M1464.35,781.24l3.46,1.63Z"/>
            <path class="cls-4" d="M1458,778.26l3.62,1.71Z"/>
            <path class="cls-4" d="M1489.08,792.72l3.26,1.49Z"/>
            <path class="cls-4" d="M1483,789.92l3.3,1.52Z"/>
            <path class="cls-4" d="M1176.53,656.56l3.7,1.27Z"/>
            <path class="cls-4" d="M1184.6,659.34l3.71,1.3Z"/>
            <path class="cls-4" d="M1578,829.69l3.16,1.11Z"/>
            <path class="cls-4" d="M1583.58,831.63l3,1Z"/>
            <path class="cls-4" d="M1098,632.62l3.58,1Z"/>
            <path class="cls-4" d="M1106.89,635l3.2.88Z"/>
            <path class="cls-4" d="M1594.45,835.26l2.92.94Z"/>
            <path class="cls-4" d="M1589,833.49l3,1Z"/>
            <path class="cls-4" d="M1536.41,813.53l3.23,1.34Z"/>
            <path class="cls-4" d="M1572.31,827.63l3.41,1.24Z"/>
            <path class="cls-4" d="M1089.22,630.32l3.75,1Z"/>
            <path class="cls-4" d="M1542.13,815.9l3.38,1.37Z"/>
            <path class="cls-4" d="M1547.82,818.21l3.65,1.46Z"/>
            <path class="cls-4" d="M1135.39,643.3l3.1,1Z"/>
            <path class="cls-4" d="M1127,640.79l2,.58Z"/>
            <path class="cls-4" d="M1116.45,637.72l2.12.61Z"/>
            <path class="cls-4" d="M1553.48,820.47l4.64,1.81Z"/>
            <path class="cls-4" d="M1566.32,825.41l3.9,1.46Z"/>
            <path class="cls-4" d="M1559.1,822.67l5.57,2.13Z"/>
            <path class="cls-4" d="M1353.05,728.68l3.15,1.46Z"/>
            <path class="cls-4" d="M1346,725.46l3.16,1.45Z"/>
            <path class="cls-4" d="M1255.21,686l3.33,1.35Z"/>
            <path class="cls-4" d="M1339,722.22l3.24,1.48Z"/>
            <path class="cls-4" d="M1331.88,719l3.28,1.49Z"/>
            <path class="cls-4" d="M1324.76,715.79l3.24,1.46Z"/>
            <path class="cls-4" d="M1360,731.89l3.19,1.49Z"/>
            <path class="cls-4" d="M1599.81,837l2.89.89Z"/>
            <path class="cls-4" d="M1239.79,679.84l3.51,1.38Z"/>
            <path class="cls-4" d="M1247.51,682.9l3.43,1.38Z"/>
            <path class="cls-4" d="M1295.79,703l2.36,1Z"/>
            <path class="cls-4" d="M1192.63,662.17l3.69,1.32Z"/>
            <path class="cls-4" d="M1303.1,706.19l2.92,1.28Z"/>
            <path class="cls-4" d="M1287.83,699.59l.6.26Z"/>
            <path class="cls-4" d="M1270.6,692.32l3,1.24Z"/>
            <path class="cls-4" d="M1262.89,689.13l3.2,1.32Z"/>
            <path class="cls-4" d="M1317.58,712.58l3.21,1.44Z"/>
            <path class="cls-4" d="M1310.36,709.38l3.12,1.38Z"/>
            <path class="cls-4" d="M1278.5,695.63l2.54,1.07Z"/>
            <path class="cls-4" d="M1438.18,768.88l4.51,2.14Z"/>
            <path class="cls-4" d="M1208.53,667.92l3.66,1.36Z"/>
            <path class="cls-4" d="M1426.77,763.45l9.47,4.51Z"/>
            <path class="cls-4" d="M1415,757.82l2,.95Z"/>
            <path class="cls-4" d="M1407.75,754.4l2.63,1.25Z"/>
            <path class="cls-4" d="M1200.61,665l3.68,1.34Z"/>
            <path class="cls-4" d="M1451.52,775.2l3.81,1.8Z"/>
            <path class="cls-4" d="M1444.87,772.05l4.19,2Z"/>
            <path class="cls-4" d="M1224.26,673.82l3.58,1.37Z"/>
            <path class="cls-4" d="M1232.05,676.82l3.55,1.38Z"/>
            <path class="cls-4" d="M1387.37,744.73l3.05,1.45Z"/>
            <path class="cls-4" d="M1216.42,670.86l3.62,1.36Z"/>
            <path class="cls-4" d="M1373.75,738.32l3.14,1.47Z"/>
            <path class="cls-4" d="M1380.57,741.52l3.14,1.48Z"/>
            <path class="cls-4" d="M1400.91,751.15l2.92,1.38Z"/>
            <path class="cls-4" d="M1366.87,735.1l3.19,1.49Z"/>
            <path class="cls-4" d="M1394.22,748l2.88,1.37Z"/>
            <path class="cls-4" d="M1651.41,849.44l2.87.45Z"/>
            <path class="cls-4" d="M990.49,609.65l4.22.68Z"/>
            <path class="cls-4" d="M1751.17,842.24c.85-.31,1.7-.65,2.54-1C1752.87,841.59,1752,841.93,1751.17,842.24Z"/>
            <path class="cls-4" d="M1027.07,616.15l4.2.84Z"/>
            <path class="cls-4" d="M1666.21,851.44c1.63.17,3.25.33,4.87.47C1669.46,851.77,1667.84,851.61,1666.21,851.44Z"/>
            <path class="cls-4" d="M1746.83,843.8c.82-.28,1.64-.58,2.46-.88C1748.47,843.22,1747.65,843.52,1746.83,843.8Z"/>
            <path class="cls-4" d="M953,604.42l3.74.47Z"/>
            <path class="cls-4" d="M1671.82,852c1.37.11,2.73.22,4.09.31C1674.55,852.19,1673.19,852.08,1671.82,852Z"/>
            <path class="cls-4" d="M1755.48,840.56c.91-.37,1.82-.76,2.73-1.15C1757.3,839.8,1756.39,840.19,1755.48,840.56Z"/>
            <path class="cls-4" d="M1656.38,850.2c1,.15,2,.28,3,.41C1658.37,850.48,1657.38,850.35,1656.38,850.2Z"/>
            <path class="cls-4" d="M1661.31,850.87l3.35.39Z"/>
            <path class="cls-4" d="M1715.6,851.1l2.44-.34Z"/>
            <path class="cls-4" d="M1036.09,618l4.16.87Z"/>
            <path class="cls-4" d="M1701.74,852.43l2.53-.16Z"/>
            <path class="cls-4" d="M1697.05,852.64l2.57-.1Z"/>
            <path class="cls-4" d="M1008.89,612.75l4.23.76Z"/>
            <path class="cls-4" d="M1742.45,845.22c.81-.25,1.62-.52,2.42-.78C1744.07,844.7,1743.26,845,1742.45,845.22Z"/>
            <path class="cls-4" d="M1677.62,852.38c1,.06,2.07.12,3.1.16C1679.69,852.5,1678.65,852.44,1677.62,852.38Z"/>
            <path class="cls-4" d="M1733.62,847.67l2.4-.62Z"/>
            <path class="cls-4" d="M1738.05,846.51c.81-.22,1.61-.46,2.41-.7C1739.66,846.05,1738.86,846.29,1738.05,846.51Z"/>
            <path class="cls-4" d="M962.48,605.6l4,.54Z"/>
            <path class="cls-4" d="M1018,614.41l4.22.8Z"/>
            <path class="cls-4" d="M1682.65,852.61l2.84.1Z"/>
            <path class="cls-4" d="M1692.32,852.74c.87,0,1.75,0,2.62,0C1694.07,852.73,1693.19,852.73,1692.32,852.74Z"/>
            <path class="cls-4" d="M1706.4,852.1l2.49-.22Z"/>
            <path class="cls-4" d="M1711,851.66l2.47-.28Z"/>
            <path class="cls-4" d="M1631.2,845.47c.92.22,1.84.42,2.76.62C1633,845.89,1632.12,845.69,1631.2,845.47Z"/>
            <path class="cls-4" d="M1071.66,625.92l4,1Z"/>
            <path class="cls-4" d="M943.52,603.33l3.15.36Z"/>
            <path class="cls-4" d="M1062.83,623.83l4,.94Z"/>
            <path class="cls-4" d="M1626.07,844.26l2.76.66Z"/>
            <path class="cls-4" d="M1615.68,841.58c.93.26,1.86.51,2.8.75C1617.54,842.09,1616.61,841.84,1615.68,841.58Z"/>
            <path class="cls-4" d="M1724.67,849.63c.81-.15,1.61-.31,2.41-.48C1726.28,849.32,1725.48,849.48,1724.67,849.63Z"/>
            <path class="cls-4" d="M1605.14,838.58l2.85.84Z"/>
            <path class="cls-4" d="M1729.17,848.71c.8-.17,1.6-.36,2.39-.54C1730.77,848.35,1730,848.54,1729.17,848.71Z"/>
            <path class="cls-4" d="M1080.46,628.08l3.85,1Z"/>
            <path class="cls-4" d="M1610.44,840.12l2.81.8Z"/>
            <path class="cls-4" d="M1620.89,843l2.78.7Z"/>
            <path class="cls-4" d="M1054,621.8l4.08.92Z"/>
            <path class="cls-4" d="M1641.37,847.64l2.78.53Z"/>
            <path class="cls-4" d="M1760.47,838.43l-.7.31.14-.06Z"/>
            <path class="cls-4" d="M1690.23,852.76c-.9,0-1.81,0-2.71,0C1688.42,852.75,1689.33,852.76,1690.23,852.76Z"/>
            <path class="cls-4" d="M1045.05,619.85l4.12.89Z"/>
            <path class="cls-4" d="M1646.41,848.59l2.8.48Z"/>
            <path class="cls-4" d="M999.71,611.16l4.24.72Z"/>
            <path class="cls-4" d="M981.21,608.22l4.18.64Z"/>
            <path class="cls-4" d="M1720.16,850.43l2.42-.42Z"/>
            <path class="cls-4" d="M971.87,606.87l4.11.59Z"/>
            <path class="cls-4" d="M1636.31,846.6l2.76.57Z"/>
            <path class="cls-2" d="M300.63,1806.05c-159-319.43-235.51-797.44-12.58-1031.76C492.3,559.6,877.31,596.67,934,602.33q4.8.48,9.57,1l3.15.36,6.36.73,3.74.47,5.71.71,4,.54,5.39.73,4.11.59,5.23.76,4.18.64,5.1.79,4.22.68,5,.83,4.24.72,4.94.87,4.23.76,4.89.9,4.22.8,4.84.94,4.2.84,4.82,1,4.16.87c1.6.33,3.2.68,4.8,1l4.12.89,4.8,1.06,4.08.92,4.78,1.11,4,.94,4.8,1.15,4,1,4.84,1.2,3.85,1,4.91,1.27,3.75,1,5,1.33,3.58,1,5.33,1.46,3.2.88,6.36,1.8,2.12.61q4.25,1.21,8.44,2.46l2,.58,6.41,1.93,3.1,1,5.23,1.61,3.46,1.08,4.81,1.52,3.61,1.16,4.62,1.5,3.67,1.21,4.51,1.49,3.68,1.24,4.45,1.5,3.7,1.27,4.37,1.51,3.71,1.3,4.32,1.53,3.69,1.32,4.29,1.54,3.68,1.34,4.24,1.55,3.66,1.36c1.42.52,2.83,1.05,4.23,1.58l3.62,1.36,4.22,1.6,3.58,1.37,4.21,1.63,3.55,1.38,4.19,1.64,3.51,1.38,4.21,1.68,3.43,1.38,4.27,1.72,3.33,1.35,4.35,1.78,3.2,1.32,4.51,1.87,3,1.24,4.92,2.07,2.54,1.07,6.79,2.89.6.26,7.36,3.16,2.36,1,4.95,2.15,2.92,1.28,4.34,1.91,3.12,1.38,4.1,1.82,3.21,1.44,4,1.77,3.24,1.46,3.88,1.75,3.28,1.49,3.81,1.73,3.24,1.48,3.83,1.76,3.16,1.45,3.85,1.77,3.15,1.46,3.78,1.75,3.19,1.49,3.7,1.72,3.19,1.49,3.69,1.73,3.14,1.47,3.68,1.73,3.14,1.48,3.66,1.73,3.05,1.45,3.8,1.79,2.88,1.37,3.81,1.81,2.92,1.38,3.92,1.87,2.63,1.25,4.57,2.17,2,.95,9.82,4.68,9.47,4.51,1.94.92,4.51,2.14,2.18,1,4.19,2,2.46,1.16,3.81,1.8,2.68,1.26,3.62,1.71,2.72,1.27,3.46,1.63,2.88,1.34,3.32,1.55,2.84,1.32,3.3,1.53,2.83,1.31,3.3,1.52,2.8,1.28,3.26,1.49,2.82,1.28,3.2,1.45,2.82,1.27,3.17,1.42,2.8,1.25c1,.48,2.11.94,3.16,1.41l2.77,1.22,3.16,1.39,2.72,1.19,3.17,1.37,2.69,1.16L1528,810l2.66,1.13,3.16,1.33,2.62,1.1,3.23,1.34,2.49,1,3.38,1.37,2.31.94,3.65,1.46,2,.8,4.64,1.81,1,.39,5.57,2.13,1.65.61,3.9,1.46,2.09.76,3.41,1.24,2.3.82,3.16,1.11,2.4.83,3,1,2.43.82,3,1,2.44.79,2.92.94,2.44.76,2.89.89,2.44.73,2.85.84,2.45.7,2.81.8,2.43.66c.93.26,1.86.51,2.8.75l2.41.64,2.78.7,2.4.59,2.76.66,2.37.55c.92.22,1.84.42,2.76.62l2.35.51,2.76.57,2.3.47,2.78.53,2.26.42,2.8.48,2.2.37,2.87.45,2.1.31c1,.15,2,.28,3,.41l1.94.26,3.35.39,1.55.18c1.63.17,3.25.33,4.87.47l.74.06c1.37.11,2.73.22,4.09.31l1.71.1c1,.06,2.07.12,3.1.16l1.93.07,2.84.1,2,0c.9,0,1.81,0,2.71,0l2.09,0c.87,0,1.75,0,2.62,0l2.11-.07,2.57-.1,2.12-.11,2.53-.16,2.13-.17,2.49-.22,2.12-.22,2.47-.28,2.12-.28,2.44-.34,2.12-.33,2.42-.42,2.09-.38c.81-.15,1.61-.31,2.41-.48s1.39-.28,2.09-.44,1.6-.36,2.39-.54l2.06-.5,2.4-.62c.68-.18,1.36-.35,2-.54s1.61-.46,2.41-.7l2-.59c.81-.25,1.62-.52,2.42-.78l2-.64c.82-.28,1.64-.58,2.46-.88.62-.22,1.25-.44,1.88-.68.85-.31,1.7-.65,2.54-1l1.77-.7c.91-.37,1.82-.76,2.73-1.15l1.56-.67.7-.31c1.83-.88,5-2.64,8.79-4.83a11.86,11.86,0,0,1,3.69-1.4q6.27-3.48,12.42-7.58c2-1.31,50.65-32.27,56.15-36.59L1808.68,782c-4.32,4.17-8.82,8.18-13.5,11.94a187.55,187.55,0,0,1-17.42,12.55c-2.91,1.89-6,3.5-9,5.21-.76.41-1.51.86-2.28,1.24l-2.34,1.12-4.66,2.24c-1.57.7-3.18,1.29-4.76,2l-2.37,1-1.19.48-1.21.41c-3.26,1-6.43,2.24-9.74,3a137.27,137.27,0,0,1-40.27,4.78l-5.13-.13-5.16-.4c-3.41-.16-6.89-.74-10.31-1.13-1.72-.18-3.45-.54-5.18-.82l-5.16-.87c-3.46-.75-6.89-1.41-10.34-2.26-27.59-6.69-54.86-18.11-81.66-31.5s-53.26-28.89-79.69-45.15q-9.91-6.09-19.82-12.34c-6.61-4.13-13.22-8.37-19.84-12.59Q1437.76,708,1417.69,695l-40.45-25.9-20.5-12.92q-10.29-6.48-20.7-12.89-41.64-25.64-85.52-49.78c-29.31-16-59.48-31.21-90.63-45.25l-11.72-5.23c-3.91-1.75-7.87-3.39-11.81-5.1-7.88-3.44-15.89-6.59-23.89-9.83-4-1.64-8-3.14-12.09-4.71s-8.07-3.14-12.15-4.62c-8.18-2.91-16.33-6-24.61-8.7a964.57,964.57,0,0,0-101.55-28.71l-13-2.86-6.32-1.34-6.37-1.3c-8.59-1.73-17.24-3.3-25.85-4.82s-17.25-2.86-25.88-4.17-17.26-2.44-25.91-3.54q-51.88-6.45-104.59-7.95a998.63,998.63,0,0,0-106.52,2.69,894.82,894.82,0,0,0-108.28,15.2q-27.24,5.56-54.55,13.08t-54.54,17.36a730.93,730.93,0,0,0-107.68,48.82c-17.62,9.85-35,20.56-52.05,32.23A578.43,578.43,0,0,0,133,715.8q-4.74,6.45-9.43,12.94c-1.59,2.16-3,4.37-4.54,6.56l-4.46,6.6c-1.47,2.21-3,4.4-4.41,6.62l-4.21,6.7-4.2,6.71-2.08,3.36-2,3.39L89.8,782.29,82.41,796c-2.51,4.57-4.73,9.2-7,13.83s-4.59,9.25-6.66,13.91c-8.74,18.59-16.2,37.39-23,56.23s-12.48,37.74-17.59,56.6l-3.66,14.15-3.3,14.13c-1.13,4.71-2.06,9.4-3.05,14.1s-2,9.41-2.79,14.09c-3.6,18.77-6.31,37.44-8.64,56-1,9.27-2.14,18.56-2.87,27.78-.38,4.61-.86,9.25-1.15,13.84l-.93,13.79c-1,18.34-1.72,36.61-1.71,54.7,0,4.53-.07,9.06,0,13.56l.17,13.52.4,13.46.21,6.72.3,6.7.66,13.38.88,13.32.44,6.65.54,6.63,1.12,13.23a1334.33,1334.33,0,0,0,35.86,205.47c4.18,16.67,8.78,33.17,13.5,49.61s9.85,32.74,15.2,48.92c10.54,32.43,22.34,64.34,35,95.88s26.38,62.57,41.05,93.19,30.41,60.77,47.26,90.43,34.83,58.9,54.19,87.48,40.08,56.42,62,83.25l4.11,5c1.37,1.68,2.79,3.32,4.18,5l8.41,9.91c2.78,3.32,5.7,6.51,8.55,9.77s5.71,6.5,8.61,9.7c11.66,12.77,23.44,25.38,35.61,37.52,24.22,24.39,49.38,47.49,75.15,69.23s52.05,42.3,78.59,61.86,53.33,38.14,80.21,56.08c53.82,35.83,107.82,69.4,161.7,102.36q40.38,24.76,80.67,49.15l40.2,24.47,20.07,12.23c6.68,4.09,13.41,8.11,20.3,11.89a467,467,0,0,0,42.68,20.71c3.68,1.55,7.41,3,11.1,4.56s7.44,3,11.2,4.42c7.47,2.95,15.09,5.67,22.64,8.5s15.13,5.63,22.68,8.49c3.79,1.39,7.48,2.93,11.23,4.4l5.6,2.22,5.54,2.31a398.56,398.56,0,0,1,42.67,20.89l2.91,1.7,33.51,22.16,6.27-13.91C682.84,2234.78,463.19,2132.54,300.63,1806.05Z"/>
            <path class="cls-2" d="M2056.26,3187.92c-11.6-10.69-23.34-21.23-35-31.82s-23.54-21-35.39-31.44l-17.8-15.6-17.87-15.52c-12-10.26-23.89-20.61-36-30.76q-144.4-122.46-296.86-235l-38.17-28c-12.79-9.25-25.56-18.53-38.4-27.7l-19.29-13.73c-6.44-4.57-12.86-9.15-19.33-13.67s-12.91-9.08-19.41-13.56-13.07-8.86-19.75-13.1a764.62,764.62,0,0,0-83.62-46.16c-7.28-3.42-14.47-7-21.84-10.23l-22-9.94c-14.65-6.65-29.43-13.1-44-19.84a880.6,880.6,0,0,1-84.62-43.8c-4.75-2.82-9.45-5.71-14.13-8.63l-43.69-29.65,4.12,21.45c141.53,101.24,305.75,223.68,498,379.82,183,148.65,370.19,317.68,488.6,425.92l52.82-57.58C2148.53,3274.1,2102.73,3230.63,2056.26,3187.92Z"/>
            <path class="cls-3" d="M1153.2,2571.24h0c-8.18-1.69-13,8.91-6.27,13.91.91.68,1.82,1.36,2.72,2q9.38,7.07,18.52,14.42t18,15.13c11.87,10.27,23.32,21.1,34.52,32.25s22,22.8,32.65,34.7c21.26,23.77,41.82,48.38,62.9,72.18q15.84,17.8,32.28,34.75c11,11.23,22.22,22.18,33.78,32.68q8.65,7.86,17.49,15.52c5.9,5.08,11.86,10.09,17.79,15.13l35.54,30.28,71,60.68q141.73,121.48,282.77,243.44l70.67,60.82,70.79,60.68q35.48,30.27,71.09,60.39c23.78,20,47.58,40.07,71.78,59.69l48.58-53c-118.41-108.24-305.62-277.27-488.6-425.92C1459,2794.92,1294.73,2672.48,1153.2,2571.24Z"/>
            <path class="cls-3" d="M1759.91,838.68l-.14.06-1.56.67c-.91.39-1.82.78-2.73,1.15l-1.77.7c-.84.33-1.69.67-2.54,1-.63.24-1.26.46-1.88.68-.82.3-1.64.6-2.46.88l-2,.64c-.8.26-1.61.53-2.42.78l-2,.59c-.8.24-1.6.48-2.41.7s-1.35.36-2,.54l-2.4.62-2.06.5c-.79.18-1.59.37-2.39.54s-1.39.3-2.09.44-1.6.33-2.41.48l-2.09.38-2.42.42-2.12.33-2.44.34-2.12.28-2.47.28-2.12.22-2.49.22-2.13.17-2.53.16-2.12.11-2.57.1-2.11.07c-.87,0-1.75,0-2.62,0l-2.09,0c-.9,0-1.81,0-2.71,0l-2,0-2.84-.1-1.93-.07c-1,0-2.07-.1-3.1-.16l-1.71-.1c-1.36-.09-2.72-.2-4.09-.31l-.74-.06c-1.62-.14-3.24-.3-4.87-.47l-1.55-.18-3.35-.39-1.94-.26c-1-.13-2-.26-3-.41l-2.1-.31-2.87-.45-2.2-.37-2.8-.48-2.26-.42-2.78-.53-2.3-.47-2.76-.57-2.35-.51c-.92-.2-1.84-.4-2.76-.62l-2.37-.55-2.76-.66-2.4-.59-2.78-.7-2.41-.64c-.94-.24-1.87-.49-2.8-.75l-2.43-.66-2.81-.8-2.45-.7-2.85-.84-2.44-.73-2.89-.89-2.44-.76-2.92-.94-2.44-.79-3-1-2.43-.82-3-1-2.4-.83-3.16-1.11-2.3-.82-3.41-1.24-2.09-.76-3.9-1.46-1.65-.61-5.57-2.13-1-.39-4.64-1.81-2-.8-3.65-1.46-2.31-.94-3.38-1.37-2.49-1-3.23-1.34-2.62-1.1-3.16-1.33L1528,810l-3.15-1.35-2.69-1.16-3.17-1.37-2.72-1.19-3.16-1.39-2.77-1.22c-1-.47-2.11-.93-3.16-1.41l-2.8-1.25-3.17-1.42-2.82-1.27-3.2-1.45-2.82-1.28-3.26-1.49-2.8-1.28-3.3-1.52-2.83-1.31-3.3-1.53-2.84-1.32-3.32-1.55-2.88-1.34-3.46-1.63-2.72-1.27-3.62-1.71-2.68-1.26-3.81-1.8-2.46-1.16-4.19-2-2.18-1-4.51-2.14-1.94-.92-9.47-4.51-9.82-4.68-2-.95-4.57-2.17-2.63-1.25-3.92-1.87-2.92-1.38-3.81-1.81-2.88-1.37-3.8-1.79-3.05-1.45-3.66-1.73-3.14-1.48-3.68-1.73-3.14-1.47-3.69-1.73-3.19-1.49-3.7-1.72-3.19-1.49-3.78-1.75-3.15-1.46-3.85-1.77-3.16-1.45-3.83-1.76-3.24-1.48-3.81-1.73-3.28-1.49-3.88-1.75-3.24-1.46-4-1.77-3.21-1.44-4.1-1.82-3.12-1.38-4.34-1.91-2.92-1.28-4.95-2.15-2.36-1-7.36-3.16-.6-.26L1281,696.7l-2.54-1.07-4.92-2.07-3-1.24-4.51-1.87-3.2-1.32-4.35-1.78-3.33-1.35-4.27-1.72-3.43-1.38-4.21-1.68-3.51-1.38-4.19-1.64-3.55-1.38-4.21-1.63-3.58-1.37-4.22-1.6-3.62-1.36c-1.4-.53-2.81-1.06-4.23-1.58l-3.66-1.36-4.24-1.55-3.68-1.34-4.29-1.54-3.69-1.32-4.32-1.53-3.71-1.3-4.37-1.51-3.7-1.27-4.45-1.5-3.68-1.24-4.51-1.49-3.67-1.21-4.62-1.5-3.61-1.16-4.81-1.52-3.46-1.08-5.23-1.61-3.1-1-6.41-1.93-2-.58q-4.2-1.24-8.44-2.46l-2.12-.61-6.36-1.8-3.2-.88-5.33-1.46-3.58-1-5-1.33-3.75-1-4.91-1.27-3.85-1-4.84-1.2-4-1-4.8-1.15-4-.94-4.78-1.11-4.08-.92-4.8-1.06-4.12-.89c-1.6-.34-3.2-.69-4.8-1l-4.16-.87-4.82-1-4.2-.84-4.84-.94-4.22-.8-4.89-.9-4.23-.76-4.94-.87-4.24-.72-5-.83-4.22-.68-5.1-.79-4.18-.64-5.23-.76-4.11-.59-5.39-.73-4-.54-5.71-.71-3.74-.47-6.36-.73-3.15-.36q-4.77-.52-9.57-1c-56.64-5.66-441.65-42.73-645.9,172-222.93,234.32-146.47,712.33,12.58,1031.76,162.56,326.49,382.21,428.73,852.57,765.19h0c8.3,1.72,13-9.18,6-14l-1.37-1q-14.5-10.41-28-22.16-4.46-3.88-8.82-7.9c-2.9-2.68-5.74-5.46-8.6-8.21q-8.48-8.38-16.63-17.24c-10.83-11.86-21.34-24.2-31.85-36.56s-21.12-24.58-32.12-36.26a453.88,453.88,0,0,0-34.5-32.86c-6-5.14-12.13-10-18.33-14.84l-18.56-14.49-37.09-28.94q-37-29-73.67-58c-24.37-19.44-48.61-38.86-72.43-58.54q-8.94-7.36-17.81-14.77t-17.65-14.83l-8.78-7.44-8.68-7.49-8.68-7.49-8.58-7.54c-22.88-20.09-45.17-40.43-66.63-61.13s-41.89-41.9-61.32-63.51l-3.65-4-3.58-4.09-7.13-8.17c-2.39-2.71-4.66-5.5-7-8.24s-4.66-5.49-6.93-8.26l-6.77-8.35-3.38-4.16-3.29-4.22-6.58-8.43c-2.19-2.81-4.28-5.68-6.42-8.52-8.58-11.32-16.69-22.91-24.67-34.53-2-2.91-3.9-5.88-5.85-8.81s-3.93-5.83-5.78-8.83l-5.65-8.92c-.93-1.49-1.89-3-2.81-4.46l-2.73-4.51q-22-36-40.69-74t-34.74-78c-10.8-26.55-20.57-53.65-29.73-80.94-4.49-13.69-8.87-27.4-13-41.21-2.13-6.88-4.06-13.83-6.09-20.73l-2.89-10.4c-1-3.47-1.94-6.93-2.84-10.42l-2.78-10.42-2.69-10.44c-1.82-7-3.47-14-5.18-20.93-3.28-14-6.5-28-9.41-42s-5.59-28-8.21-42.06l-1.83-10.53-.92-5.25-.86-5.27-1.72-10.51-1.6-10.52a1270.11,1270.11,0,0,1-14.33-166.64c-.8-54.58,2.48-107.92,11-157.69s22.36-95.67,41.54-134.42a318.23,318.23,0,0,1,32.51-52.7c6.07-7.83,12.44-15.21,19-22.25q10.44-10.77,22.13-20.78A343.32,343.32,0,0,1,476,824.76,456,456,0,0,1,538.8,795q16.8-6.6,34.51-12.51t36.24-11.06c24.65-6.94,50.25-13,76.53-18.25,52.55-10.48,107.85-17.83,163.9-22.39,14-1.14,28-2.08,42-2.82,7-.39,14-.68,21-.95l5.32-.19,5.36-.13,10.34-.28c27.62-.74,55.55-.11,83.84,1.45,14.13.79,28.34,1.95,42.64,3.29,7.14.73,14.3,1.45,21.48,2.32,3.59.43,7.2.8,10.8,1.28l10.8,1.42c3.62.45,7.22,1,10.84,1.54s7.23,1,10.85,1.62c7.24,1.2,14.5,2.3,21.76,3.64,14.55,2.51,29.14,5.4,43.78,8.45,7.31,1.57,14.65,3.13,22,4.84s14.69,3.41,22,5.2c14.7,3.67,29.45,7.48,44.24,11.56s29.62,8.26,44.45,12.8l22.31,6.81,22.34,7.1c14.94,4.75,29.88,9.72,44.91,14.7l45.34,15.08c30.4,10.08,61.22,20.15,92.95,28.94,15.88,4.37,32,8.41,48.47,11.75a430.83,430.83,0,0,0,50.46,7.39,267.5,267.5,0,0,0,52.36-.59c4.39-.39,8.79-1.25,13.17-1.91l1.64-.26,1.64-.34,3.27-.69c2.17-.48,4.35-.88,6.52-1.45l6.46-1.74c1.07-.31,2.15-.57,3.21-.9l3.19-1,6.35-2.09c2.08-.78,4.15-1.62,6.22-2.43,4.18-1.54,8.16-3.54,12.19-5.39l1.51-.7,1.46-.77,2.93-1.56c1.94-1.06,3.91-2.06,5.81-3.16,2.73-1.61,5.4-3.28,8-5h0A11.75,11.75,0,0,0,1773,832.2q-6.18,3.42-12.48,6.23Z"/>
            <path class="cls-3" d="M934,602.33q4.8.48,9.57,1Q938.75,602.81,934,602.33Z"/>
            <path class="cls-3" d="M1258.54,687.35l4.35,1.78Z"/>
            <path class="cls-3" d="M1243.3,681.22l4.21,1.68Z"/>
            <path class="cls-3" d="M1227.84,675.19l4.21,1.63Z"/>
            <path class="cls-3" d="M1273.58,693.56l4.92,2.07Z"/>
            <path class="cls-3" d="M1266.09,690.45l4.51,1.87Z"/>
            <path class="cls-3" d="M1235.6,678.2l4.19,1.64Z"/>
            <path class="cls-3" d="M966.48,606.14l5.39.73Z"/>
            <path class="cls-3" d="M1250.94,684.28l4.27,1.72Z"/>
            <path class="cls-3" d="M946.67,603.69l6.36.73Z"/>
            <path class="cls-3" d="M956.77,604.89l5.71.71Z"/>
            <path class="cls-3" d="M1147.18,646.94l4.81,1.52Z"/>
            <path class="cls-3" d="M1049.17,620.74l4.8,1.06Z"/>
            <path class="cls-3" d="M1138.49,644.25l5.23,1.61Z"/>
            <path class="cls-3" d="M1058.05,622.72l4.78,1.11Z"/>
            <path class="cls-3" d="M1129,641.37l6.41,1.93Z"/>
            <path class="cls-3" d="M1040.25,618.83c1.6.33,3.2.68,4.8,1C1043.45,619.51,1041.85,619.16,1040.25,618.83Z"/>
            <path class="cls-3" d="M1084.31,629.05l4.91,1.27Z"/>
            <path class="cls-3" d="M976,607.46l5.23.76Z"/>
            <path class="cls-3" d="M1110.09,635.92l6.36,1.8Z"/>
            <path class="cls-3" d="M1075.62,626.88l4.84,1.2Z"/>
            <path class="cls-3" d="M1093,631.29l5,1.33Z"/>
            <path class="cls-3" d="M1101.56,633.58l5.33,1.46Z"/>
            <path class="cls-3" d="M1066.86,624.77l4.8,1.15Z"/>
            <path class="cls-3" d="M1118.57,638.33q4.25,1.21,8.44,2.46Q1122.81,639.55,1118.57,638.33Z"/>
            <path class="cls-3" d="M1155.6,649.62l4.62,1.5Z"/>
            <path class="cls-3" d="M1281,696.7l6.79,2.89Z"/>
            <path class="cls-3" d="M994.71,610.33l5,.83Z"/>
            <path class="cls-3" d="M1031.27,617l4.82,1Z"/>
            <path class="cls-3" d="M1204.29,666.37l4.24,1.55Z"/>
            <path class="cls-3" d="M985.39,608.86l5.1.79Z"/>
            <path class="cls-3" d="M1220,672.22l4.22,1.6Z"/>
            <path class="cls-3" d="M1004,611.88l4.94.87Z"/>
            <path class="cls-3" d="M1212.19,669.28c1.42.52,2.83,1.05,4.23,1.58C1215,670.33,1213.61,669.8,1212.19,669.28Z"/>
            <path class="cls-3" d="M1196.32,663.49l4.29,1.54Z"/>
            <path class="cls-3" d="M1022.23,615.21l4.84.94Z"/>
            <path class="cls-3" d="M1172.08,655.06l4.45,1.5Z"/>
            <path class="cls-3" d="M1188.31,660.64l4.32,1.53Z"/>
            <path class="cls-3" d="M1163.89,652.33l4.51,1.49Z"/>
            <path class="cls-3" d="M1013.12,613.51l4.89.9Z"/>
            <path class="cls-3" d="M1180.23,657.83l4.37,1.51Z"/>
            <path class="cls-3" d="M1692.32,852.74l-2.09,0Z"/>
            <path class="cls-3" d="M1671.08,851.91l.74.06Z"/>
            <path class="cls-3" d="M1644.15,848.17l2.26.42Z"/>
            <path class="cls-3" d="M1564.67,824.8l1.65.61Z"/>
            <path class="cls-3" d="M1628.83,844.92l2.37.55Z"/>
            <path class="cls-3" d="M1623.67,843.67l2.4.59Z"/>
            <path class="cls-3" d="M1654.28,849.89l2.1.31Z"/>
            <path class="cls-3" d="M1659.37,850.61l1.94.26Z"/>
            <path class="cls-3" d="M1664.66,851.26l1.55.18Z"/>
            <path class="cls-3" d="M1618.48,842.33l2.41.64Z"/>
            <path class="cls-3" d="M1649.21,849.07l2.2.37Z"/>
            <path class="cls-3" d="M1639.07,847.17l2.3.47Z"/>
            <path class="cls-3" d="M1581.18,830.8l2.4.83Z"/>
            <path class="cls-3" d="M1586.61,832.67l2.43.82Z"/>
            <path class="cls-3" d="M1575.72,828.87l2.3.82Z"/>
            <path class="cls-3" d="M1570.22,826.87l2.09.76Z"/>
            <path class="cls-3" d="M1597.37,836.2l2.44.76Z"/>
            <path class="cls-3" d="M1608,839.42l2.45.7Z"/>
            <path class="cls-3" d="M1592,834.47l2.44.79Z"/>
            <path class="cls-3" d="M1602.7,837.85l2.44.73Z"/>
            <path class="cls-3" d="M1613.25,840.92l2.43.66Z"/>
            <path class="cls-3" d="M1634,846.09l2.35.51Z"/>
            <path class="cls-3" d="M1675.91,852.28l1.71.1Z"/>
            <path class="cls-3" d="M1740.46,845.81l2-.59Z"/>
            <path class="cls-3" d="M1736,847.05c.68-.18,1.36-.35,2-.54C1737.38,846.7,1736.7,846.87,1736,847.05Z"/>
            <path class="cls-3" d="M1731.56,848.17l2.06-.5Z"/>
            <path class="cls-3" d="M1749.29,842.92c.62-.22,1.25-.44,1.88-.68C1750.54,842.48,1749.91,842.7,1749.29,842.92Z"/>
            <path class="cls-3" d="M1758.21,839.41l1.56-.67Z"/>
            <path class="cls-3" d="M1760.47,838.43q6.3-2.82,12.48-6.23a11.86,11.86,0,0,0-3.69,1.4C1765.48,835.79,1762.3,837.55,1760.47,838.43Z"/>
            <path class="cls-3" d="M1753.71,841.26l1.77-.7Z"/>
            <path class="cls-3" d="M1727.08,849.15c.7-.14,1.39-.28,2.09-.44C1728.47,848.87,1727.78,849,1727.08,849.15Z"/>
            <path class="cls-3" d="M1744.87,844.44l2-.64Z"/>
            <path class="cls-3" d="M1694.94,852.71l2.11-.07Z"/>
            <path class="cls-3" d="M1699.62,852.54l2.12-.11Z"/>
            <path class="cls-3" d="M1685.49,852.71l2,0Z"/>
            <path class="cls-3" d="M1680.72,852.54l1.93.07Z"/>
            <path class="cls-3" d="M1708.89,851.88l2.12-.22Z"/>
            <path class="cls-3" d="M1718,850.76l2.12-.33Z"/>
            <path class="cls-3" d="M1713.48,851.38l2.12-.28Z"/>
            <path class="cls-3" d="M1722.58,850l2.09-.38Z"/>
            <path class="cls-3" d="M1704.27,852.27l2.13-.17Z"/>
            <path class="cls-3" d="M1306,707.47l4.34,1.91Z"/>
            <path class="cls-3" d="M1383.71,743l3.66,1.73Z"/>
            <path class="cls-3" d="M1376.89,739.79l3.68,1.73Z"/>
            <path class="cls-3" d="M1390.42,746.18l3.8,1.79Z"/>
            <path class="cls-3" d="M1370.06,736.59l3.69,1.73Z"/>
            <path class="cls-3" d="M1403.83,752.53l3.92,1.87Z"/>
            <path class="cls-3" d="M1417,758.77l9.82,4.68Z"/>
            <path class="cls-3" d="M1410.38,755.65l4.57,2.17Z"/>
            <path class="cls-3" d="M1397.1,749.34l3.81,1.81Z"/>
            <path class="cls-3" d="M1363.17,733.38l3.7,1.72Z"/>
            <path class="cls-3" d="M1335.16,720.49l3.81,1.73Z"/>
            <path class="cls-3" d="M1313.48,710.76l4.1,1.82Z"/>
            <path class="cls-3" d="M1320.79,714l4,1.77Z"/>
            <path class="cls-3" d="M1288.43,699.85l7.36,3.16Z"/>
            <path class="cls-3" d="M1298.15,704l4.95,2.15Z"/>
            <path class="cls-3" d="M1342.21,723.7l3.83,1.76Z"/>
            <path class="cls-3" d="M1356.2,730.14l3.78,1.75Z"/>
            <path class="cls-3" d="M1349.2,726.91l3.85,1.77Z"/>
            <path class="cls-3" d="M1328,717.25l3.88,1.75Z"/>
            <path class="cls-3" d="M1436.24,768l1.94.92Z"/>
            <path class="cls-3" d="M1551.47,819.67l2,.8Z"/>
            <path class="cls-3" d="M1528,810l2.66,1.13Z"/>
            <path class="cls-3" d="M1442.69,771l2.18,1Z"/>
            <path class="cls-3" d="M1504.35,799.63l2.8,1.25Z"/>
            <path class="cls-3" d="M1510.31,802.29l2.77,1.22Z"/>
            <path class="cls-3" d="M1516.24,804.9l2.72,1.19Z"/>
            <path class="cls-3" d="M1533.79,812.43l2.62,1.1Z"/>
            <path class="cls-3" d="M1558.12,822.28l1,.39Z"/>
            <path class="cls-3" d="M1545.51,817.27l2.31.94Z"/>
            <path class="cls-3" d="M1539.64,814.87l2.49,1Z"/>
            <path class="cls-3" d="M1522.13,807.46l2.69,1.16Z"/>
            <path class="cls-3" d="M1461.63,780l2.72,1.27Z"/>
            <path class="cls-3" d="M1467.81,782.87l2.88,1.34Z"/>
            <path class="cls-3" d="M1498.36,796.94l2.82,1.27Z"/>
            <path class="cls-3" d="M1449.06,774l2.46,1.16Z"/>
            <path class="cls-3" d="M1455.33,777l2.68,1.26Z"/>
            <path class="cls-3" d="M1486.28,791.44l2.8,1.28Z"/>
            <path class="cls-3" d="M1474,785.76l2.84,1.32Z"/>
            <path class="cls-3" d="M1492.34,794.21l2.82,1.28Z"/>
            <path class="cls-3" d="M1480.15,788.61l2.83,1.31Z"/>
          </g>
        </g>
      </g>
    </g>
  </g>
</svg>
