<svg xmlns="http://www.w3.org/2000/svg" width="2411.72" height="3368.49" viewBox="0 0 2411.72 3368.49">
  <defs>
    <style>
      .cls-1 {
        opacity: 0.5;
      }

      .cls-2 {
        fill: #ffe7b1;
      }

      .cls-3 {
        opacity: 0.4;
      }

      .cls-4 {
        fill: #ffe3a6;
      }

      .cls-5 {
        fill: #ffb419;
      }
    </style>
  </defs>
  <g id="Layer_2" data-name="Layer 2">
    <g id="Landing">
      <g id="Content">
        <g class="cls-1">
          <g>
            <path class="cls-2" d="M771.41,870.49c-1.23-1.59-1.12-.38,1.63,4.48.91,1,1.81,2,2.69,3.11C774.38,875.48,772.92,873,771.41,870.49Z"/>
            <path class="cls-2" d="M766.12,895.55c-3.16-.85-6.5-2-8.62-2.66s-3.07-.62-1.37.75l7.09,2.38c1,.32,2,.62,3.29.89a21.2,21.2,0,0,0,4.52.5,16.76,16.76,0,0,0,2.11.15,9.6,9.6,0,0,0,2.07-.26,4.79,4.79,0,0,0,2.74-1.91,8.78,8.78,0,0,0,.89-1.86c.15-.39.26-.48.31-.17a18.65,18.65,0,0,0-.73-6,20.12,20.12,0,0,0-2.49-5.82c.55,1.75,1.14,3.61,1.62,5.61a27,27,0,0,1,.58,3.1,14.89,14.89,0,0,1,.11,1.64,9.25,9.25,0,0,1-.17,1.74,4.27,4.27,0,0,1-1.91,2.89,6.78,6.78,0,0,1-3.56.79,28.83,28.83,0,0,1-7.09-1.29C763.64,895.11,765.62,895.58,766.12,895.55Z"/>
            <path class="cls-2" d="M670.34,900.24l2.87,2C672.44,901.66,671.46,901,670.34,900.24Z"/>
            <path class="cls-2" d="M699.94,976.73a18.64,18.64,0,0,0,3.34,1.7C701.21,977.3,699.49,976.37,699.94,976.73Z"/>
            <path class="cls-2" d="M651.11,947l2.88,1.75A23.38,23.38,0,0,0,651.11,947Z"/>
            <path class="cls-2" d="M670.34,900.24,663,895.16C662.26,895.09,666.71,897.81,670.34,900.24Z"/>
            <path class="cls-2" d="M753.25,896.16c-1.44-1.21-2.68-2.17-3.83-3l3.5,2.94A1.4,1.4,0,0,1,753.25,896.16Z"/>
            <path class="cls-2" d="M777.41,966.67l-1.89-1.9c-.65-.48-1.27-.9-1.89-1.28C774.91,964.54,776.17,965.59,777.41,966.67Z"/>
            <path class="cls-2" d="M702.25,888.26a7,7,0,0,0-1.89-.59,4.84,4.84,0,0,0-1.11,0l-.36,0a3.57,3.57,0,0,0-.47.11,2.44,2.44,0,0,0-1.19.78,2.36,2.36,0,0,0-.39.71,2.15,2.15,0,0,0-.1.62,1.53,1.53,0,0,0,0,.43,2.69,2.69,0,0,0,.09.32,2.49,2.49,0,0,0,.44.67,6.69,6.69,0,0,0,.77.66,3.27,3.27,0,0,1-.9-1.41,2.29,2.29,0,0,1-.07-.42,2,2,0,0,1,.07-.62,1.83,1.83,0,0,1,.45-.74,2,2,0,0,1,.33-.27,1.77,1.77,0,0,1,.31-.15,3,3,0,0,1,1.49-.14,12.7,12.7,0,0,1,3.35,1.12C703.22,889.21,703,888.87,702.25,888.26Z"/>
            <path class="cls-2" d="M769.69,915.83l-2.39-2.1Z"/>
            <path class="cls-2" d="M726.45,936a2.93,2.93,0,0,0-.7-.82C725.69,935.31,726,935.61,726.45,936Z"/>
            <path class="cls-2" d="M463.92,1072.15c-.11,0,0,.11-.05.15C464.51,1072.47,464.72,1072.49,463.92,1072.15Z"/>
            <path class="cls-2" d="M584,1125.47l-1.71-.64c-.24.08-.48.15-.54.29Z"/>
            <path class="cls-2" d="M553.62,899a4.44,4.44,0,0,1,.6-.16,15.94,15.94,0,0,1,2-.36l-.44,0-.63.09A6.89,6.89,0,0,0,553.62,899Z"/>
            <path class="cls-2" d="M621.61,1089.22c9.63,5.1-16.57-6.29-2,1.12C618.4,1089.42,633.8,1095.14,621.61,1089.22Z"/>
            <path class="cls-2" d="M755.37,898.19l3.48,3.1C757.29,899.85,756.22,898.9,755.37,898.19Z"/>
            <path class="cls-2" d="M619.66,1090.34h0l1.51.76Z"/>
            <path class="cls-2" d="M720.81,1070.5a11.24,11.24,0,0,0-.94-2.14A10,10,0,0,0,720.81,1070.5Z"/>
            <path class="cls-2" d="M591.58,947.77l3.26,3C593.57,949.57,592.51,948.61,591.58,947.77Z"/>
            <path class="cls-2" d="M651,1059.6c-2.2-1-2.91-1.4-6-2.56.26.15.53.3.88.48A38.18,38.18,0,0,1,651,1059.6Z"/>
            <path class="cls-2" d="M562.55,1019.93c.43.28,1,.61,1.54.92l2.8,1.27Z"/>
            <path class="cls-2" d="M569.87,1106a34.44,34.44,0,0,1,3.82,2.46C572.55,1107.35,585.75,1112.78,569.87,1106Z"/>
            <path class="cls-2" d="M753,896.54a9.4,9.4,0,0,1,2.4,1.65l-2.45-2.11C752.63,896,752.5,896,753,896.54Z"/>
            <path class="cls-2" d="M644.79,1064.24q-7.12-3-14.2-6.16C634.53,1059.87,639.69,1062.11,644.79,1064.24Z"/>
            <path class="cls-2" d="M498.37,1059.13l-3.33-1.21A32.58,32.58,0,0,0,498.37,1059.13Z"/>
            <path class="cls-2" d="M588.68,1039.47c-2.38-1.43-5-2.81-7.65-4.18-.61-.21-1.29-.47-1.72-.56Z"/>
            <path class="cls-2" d="M573.72,1108.52l0,0Z"/>
            <path class="cls-2" d="M569.75,1119.74c13.76,5.2,6.85,1.41,10,1.92,16.55,5.84,7.32,3.6,12.73,6.21,5.2,1.76,9.88,3.11,14.23,4.35l6.35,1.78,3.15.86a19.55,19.55,0,0,0,1.91.42,3.18,3.18,0,0,0,.47,0H619a4.39,4.39,0,0,0,.81-.11l.13,0a2.11,2.11,0,0,0,.45-.18,3.11,3.11,0,0,0,.89-.62,3.18,3.18,0,0,0,1-2.1,3.42,3.42,0,0,0,0-.72c0-.15,0-.17,0-.23l0-.15a3.22,3.22,0,0,0-.24-.61,2.5,2.5,0,0,0-.2-.33l-.16-.21a2.06,2.06,0,0,0-.23-.27l-.18-.18-.24-.2a9.86,9.86,0,0,0-1-.68c-.55-.53-2-1.39-.11-.61l-21.59-9.44c-8.12-3.52-16.48-7-22.9-9.2a9.38,9.38,0,0,1-1.51-.94c1.79,1.37,1.87,2,1.3,2.21-6.06-2.58-11.51-4.16-13.51-5.8a30.4,30.4,0,0,0,6,2l-6.47-2.42c-5.31-3.4,8.8,3.36,9.11,2.66-12.52-5-27.29-10.32-36.68-14.61-1.58-1.78,22.34,9.1,10,2.89l14.53,6.6c-10.59-6.26,8.88,3.9-.75-2.07-19.22-8.49-21.84-8.7-41-17.14-4.57-1.31,1.11,1.38-3.46.07-27.82-10.66-20.59-11.48-41.28-18.76-5.47-1.59-8-1.25-22.07-8l5.34,1a116.24,116.24,0,0,0-15-5.7,54.76,54.76,0,0,1-5.22-1.87c-1.15-.47-2.51-1.06-4.17-1.83-.83-.39-1.74-.82-2.72-1.3l-1.52-.77-.78-.41a6.74,6.74,0,0,1-.63-.38c.18,0,.79.31,1.38.54l2.05.84,4.56,1.91c2.89,1.21,5,2.09,3.6,1.42-6.12-3.17-8.38-4-10.25-4.62l-.67-.21c-.19,0-.44-.14-.51-.14h0l-.22.34c-.13.22-.27.43-.41.64l-.38.56-.35.45c-.17.24-.42.45-.44.42s0,.11,0,.2a1.68,1.68,0,0,1,0,.44c0,.16,0,.4-.08.6l-.13.7c-.05.27-.11.54-.17.81s0,.14,0,.14h.1c.2,0,.48.07.78.13a39.62,39.62,0,0,1,5.35,1.7l1.68,1.72c20.2,7.6,42.62,15.81,65,24.47-1.34-.21-5.28-1.43-.18.93,28.28,10.69,59.93,23.95,86.95,35l10.73,3.18c2.42.93,4.36,2.09,1.67,1.25,10.53,4.35.75-.31,6,1.3,6.08,2.23,7.84,3.48,3.9,2.29,4.77,1.58,10.55,3.53,16.92,5.56q2.38.77,4.9,1.52c1.71.5,3.35,1,5.37,1.41.27,0,.54.09.89.13a5.49,5.49,0,0,0,.65,0,3.65,3.65,0,0,0,.53,0,2.36,2.36,0,0,0,.45-.08,3.3,3.3,0,0,0,1.4-.74,3,3,0,0,0,.94-2.71,2.51,2.51,0,0,0-.17-.65c0-.09-.08-.18-.12-.27a4.46,4.46,0,0,0-.31-.52.89.89,0,0,0-.12-.15l-.08-.09-.17-.18-.17-.17-.11-.1c-.33-.28-.56-.43-.8-.61-.91-.61-1.71-1-2.54-1.51-1.64-.89-3.26-1.71-4.9-2.53-13-6.41-26.23-12.49-35.62-17.4l3.85,1.5c-14.79-7.26-17.62-6.17-31.15-13.29l2.72,1.08c-32.31-15.23-68.6-30.78-92.76-43.42-2.61-.52-10.57-4.35-18.2-8s-14.89-7.21-16.3-6.92c-4.47-2.44-7.44-4.17-9.73-5.6a32.94,32.94,0,0,1-2.84-1.94l-.21-.18,0,0h0l0,0-.09.09c-.1.12-.27.27-.33.36a5.37,5.37,0,0,1-.51.56,5.48,5.48,0,0,1-.58.48,1.09,1.09,0,0,1-.36.28l-.2.08a.09.09,0,0,1-.07,0c-.09,0-.07,0,0,0a5.6,5.6,0,0,1,.14,2.38l0,.48c0,.12,0,0,0,.06h0l.09,0,.27.08.69.22c2,.68,4.43,1.62,7.93,3l14.78,5.93c7.11,2.81,11,3.07,19.93,6.36l-.12.94,12.33,3.83,5.95,3.55,8.35,3.07c-3.27-1.37-6.84-3.17-6.24-3.22,6.53,2.37,14.34,5.65,20.52,8.42s10.77,5,10.84,5.29L551,1079.88c-.82.07-6-1.85-10.11-3.24,16.65,5.62,2.6,2.09,17.86,7.23-1.92-1,1.29-.08,1.7-.12,7.24,3.48,24.21,10.21,36.89,14.89l-2.64-.35c11.34,4.5,23.37,9.08,35.9,13.52,3.14,1.11,6.31,2.21,9.54,3.27,1.61.53,3.24,1,4.91,1.54a53.06,53.06,0,0,0,5.37,1.36c.26,0,.54.09.86.12a7.55,7.55,0,0,0,1.2.07,6.11,6.11,0,0,0,1.17-.15l.5-.15a5.09,5.09,0,0,0,.72-.34,3.45,3.45,0,0,0,.45-.3,3.8,3.8,0,0,0,.47-.42,4.4,4.4,0,0,0,.88-1.33,4.54,4.54,0,0,0,.31-1.41,5.72,5.72,0,0,0,0-.72c0-.12,0-.23-.05-.34l0-.16a4.84,4.84,0,0,0-.46-1.16l-.07-.13,0-.06-.08-.12-.16-.23a4.16,4.16,0,0,0-.33-.41l-.46-.49-.38-.34c-.26-.23-.46-.37-.69-.55-.42-.32-.82-.6-1.22-.87-1.56-1-3.06-1.94-4.58-2.82-3-1.75-6-3.39-9.09-5,4.29,2.47,5.78,3.73,5.33,3.85s-2.88-.89-6.46-2.74l-2.39-2.38c-4.88-1.89,7.28,4.26-2.52-.07-9-4.81-5.61-4.16-.23-1.73l-11.24-5.39c-.52-.59,2.15.59,3,.61C620,1091,606,1082.25,598.92,1080l-.5-.57c-24.59-12.07-35.93-17.11-56.06-26.7-.76.57-8.54-3.35-14.83-5.59-14.67-7.28-30.83-15.65-48.71-24-12.73-5.53-4-1.08-9.83-3.28-.59-1.13-18.47-9.44-9-5.6-10.74-5-17.61-8.14-25.21-11.59L422.27,997l-3.69-1.66-.95-.43-.09,0h0c0,.06.07-.15-.08.14-.4.57-.46,1-.28,1.29a1.48,1.48,0,0,1-.17,1.06.73.73,0,0,1-.73.33c-.46-.16.08,0,.18.26a.92.92,0,0,1,0,.91,2,2,0,0,1-.84.8c-.33-.07-.78.66-.76.84h0l.09,0,.48.21,2.05.92,9.32,4.18c-2.81-1.67-6.05-3.36-4.23-2.79,5,2.21,11,5.59,10.18,5.59l-1.33-.54c30.85,13.38,69.2,35.18,94.17,45l-1.39-.57,25.54,10.93c11.54,5.48-7.2-2.68,1.18,1.71,27.74,11.38,42.95,19.91,65.85,29.17,8.29,4.9,23.79,11.76,40.38,18.4,4.15,1.65,8.37,3.29,12.6,4.84,2.12.77,4.24,1.53,6.39,2.23,1.07.35,2.16.69,3.27,1a34.35,34.35,0,0,0,3.6.84l.53.08.63,0a6.47,6.47,0,0,0,.78,0,5.53,5.53,0,0,0,1.12-.13l.16,0h.08l.14-.05a3.54,3.54,0,0,0,.57-.22,4.05,4.05,0,0,0,1.27-.84,4.36,4.36,0,0,0,1.17-1.87,4.28,4.28,0,0,0,.19-1,3.84,3.84,0,0,0,0-.48l0-.35a5,5,0,0,0-.27-1.11c-.1-.24-.21-.47-.3-.65a6.67,6.67,0,0,0-.51-.8,14,14,0,0,0-1.53-1.7c-.46-.43-.9-.81-1.33-1.18-1.73-1.44-3.36-2.64-5-3.81l-8.78-6.31,1,1.27c-5.93-3.19-6.68-4.61-10.81-7.32.38.72,5.91,4.24,2.23,2.29-12.12-7.33-24.48-14.61-36.94-22s-25-14.78-37.66-22.23l-75.53-44.51c-18.24-10.68-11.8-3.57-34.2-18.07l7,2.95Q473,986,459,977.76c-4.65-2.75-9.29-5.54-13.88-8.38s-9.16-5.74-13.47-8.76c-1.07-.76-2.12-1.53-3-2.28-.46-.38-.92-.77-1.18-1l-.11-.13c.08-.08-.22.19-.42.33l-.62.44a5.15,5.15,0,0,1-.58.37,3,3,0,0,1-.49.28,2.57,2.57,0,0,1-.75.26c-.16,0-.26,0-.19,0a.46.46,0,0,1,.09.12,1,1,0,0,1,.11.31,2.11,2.11,0,0,1,.09.45,2.59,2.59,0,0,1,0,.56c0,.2,0,.46,0,.68l0,.75,0,.41,0,.19h0l.21,0,.72.17c.53.15,1.11.35,1.7.55,1.19.42,2.41.89,3.63,1.38,4.88,2,9.78,4.18,14.64,6.38L474.31,984a41.3,41.3,0,0,1-6.21-2.4c3.83,2.22,11.17,5.76,17.61,8.69s12,5.26,12.16,5c5.84,2.89,1.13,1.14,4.61,3.15,7.79,4.23,20.42,8.83,24.35,11.51.67.45-2.34-.87-3.83-1.52,5.35,2.2,24.22,11.7,19.59,8.57,14,7.12,27.29,12.53,38.44,18.25,7.79,2.61,24.25,11.62,27.17,11.47-.79.38,5.37,3.47,12.93,6.82s16.54,7,21.25,8.57c-3.23-.9,7.82,3.73,4,2.75,10.49,4.35,20.34,7.84,18.74,6.47a169.73,169.73,0,0,0,28.71,10.27c4.58,1.23,8.93,2.25,12.91,3.13s7.58,1.62,10.86,2.24a23.58,23.58,0,0,0,6.06-.63A11.86,11.86,0,0,0,727,1085a8.65,8.65,0,0,0,2.83-2.78,8.84,8.84,0,0,0,1.21-4.77,13.49,13.49,0,0,0-.68-3.82,28.85,28.85,0,0,0-2.74-5.8,78,78,0,0,0-6.83-9.34c-4.81-5.74-9.86-10.93-14.93-16-10.16-10-20.41-19.22-30.6-28.24.86-.14,7.11,5.44,13,10.93s11.57,10.9,11.6,9.94c-10.56-9.87-19.25-17.16-27.87-24.48s-17.24-14.57-27.88-24c-5.45-5,3.54,2.29,5.57,3.76-22-18.42-42-36.21-61.41-52.62a45.48,45.48,0,0,1,4.28,3.32c-3.79-3.29-8.53-7.93-8.53-7.09l3.74,3.15c2.68,3-1.35,0-6.13-3.76s-10.24-8.51-10.72-8.67c3.69,2.31-.82-2.08-4.62-6.22a41.72,41.72,0,0,1-4.18-5c-.56-1,0-.84,2.59,1.21-2.31-2.27-5-5.16-4.89-4.35l-.25-.34-.14-.19-.2-.32A5.41,5.41,0,0,1,559,909c-.14-.29-.19-.48-.15-.55s.52.26,1.22.79a10.12,10.12,0,0,1-1-1.36,1.55,1.55,0,0,1-.27-1.22,1,1,0,0,1,.74-.45,4.8,4.8,0,0,1,.72-.08,7.48,7.48,0,0,1,1.38.09,23.92,23.92,0,0,1,3.39,1c1.66.59,3.78,1.42,6.67,2.71-.17.25-3.19-1-4.84-1.23,7.66,2.53,15.39,5.66,27.41,12.3-.81-.23.49.72-3.13-1.2l28.61,14.85c9.17,4.83,18.52,10,29.61,16.71-7.27-2.73,7.42,4.8,8,6.46l12.23,6.75L665,961.26c10.56,6.18,20.3,10.94,29.21,16.55l-8.09-4.18L706.06,985l-11-6.88c11,5.71-.45-1.88,13.49,6.54-2.92-1.55,10.59,6.13,15.83,9.84l0,0c5.45,2.67,11,5.41,18.87,10,1.89,1.44-2.26.19-1,1.13,2.86,1,9.19,4.38,15.83,7.64,3.32,1.63,6.72,3.22,9.79,4.49.77.31,1.51.61,2.23.88l1.06.39,1.2.42a26.24,26.24,0,0,0,4,1.08,6.74,6.74,0,0,0-2.43-.26c-.3.09-.09.36.46.61a27.63,27.63,0,0,0,3,.51,18.13,18.13,0,0,0,2.53,0,5.9,5.9,0,0,0,3.48-.35,1.83,1.83,0,0,0,.82-.9,3.75,3.75,0,0,0,.22-.74c.08-.75.22-.65.47-.06a7.64,7.64,0,0,0-.61-2.77,13.28,13.28,0,0,0-1-2.07,13.61,13.61,0,0,0-1.6-2.13c-.63-.63-.32,0-.15.51s.26.84-.51-.12l-2.09-2.56-1.72-2-2.22-2.5c1.15,1.12.72.47,3.06,2.87-3.39-3.89-7-7.42-10.54-10.84s-7.2-6.66-10.8-9.86c-7.2-6.38-14.35-12.5-21.29-18.76-3.42-4.48,12.5,10.51,8.36,5.65-20.43-17.6-43.29-35.19-63-52.24l3.62,3.23c-3.78-1.12-14.31-13.11-24.7-21.19,2.5,2,3.76,2.1,3,1.67l-10.19-9c-3.48-3.1-7.11-6.29-10.7-9.81-.89-.89-1.77-1.79-2.58-2.72a12.76,12.76,0,0,1-1-1.34A2,2,0,0,1,638,883l0,0h0l-.13,0a1.63,1.63,0,0,0-.23.07,1.3,1.3,0,0,1-.4.09c-.15,0-.28,0-.34,0a.55.55,0,0,1-.25,0c-.06,0-.06,0-.09,0l0,0,0,0a1.09,1.09,0,0,1,.14.33,2.73,2.73,0,0,1,.09.79v.28h0s0,0,0,0h.11l.34.07c.25.07.53.15.83.26.58.21,1.19.46,1.81.73,1.23.55,2.49,1.18,3.77,1.84,5.1,2.65,10.48,5.8,16.26,9.28l-3-1.42c8.71,5.82,23.15,15.09,32.52,21.5,3,1.52,8.42,5.16,5.45,2.48,14,10.63,28,19.64,41.79,28.22Q746.92,954,757,960.2c6.73,4.18,13.25,8.44,20,12.57-3.36-1.74-8-4.08-5.41-2.58,2,1.08,3.91,2.15,5.94,3.15,1,.5,2,1,3.14,1.43.54.23,1.11.44,1.71.64a7.33,7.33,0,0,0,2.26.42,2.12,2.12,0,0,0,.48,0,2.64,2.64,0,0,0,2.07-1.52,2.64,2.64,0,0,0,.19-.88,3,3,0,0,0,0-.62,4.51,4.51,0,0,0-.23-.81,9.74,9.74,0,0,0-1.07-1.84,33,33,0,0,0-2.25-2.71c-1.54-1.69-3.12-3.26-4.72-4.82a13.37,13.37,0,0,0,1.9,2.7,45.13,45.13,0,0,1,3.61,4.71c-2.41-2.51-7.92-7.52-12.71-12,8.93,7.9.73-.91-2.82-4.67.49.74-1-.28-.79.17-4.69-5.13-5.37-5.25-6.53-5.77s-2.83-1.42-9.61-8l1,.39c-5.4-4.55-10.6-8.49-16.25-13.61-1.83-2.69,5.89,4.69,6.69,4.52-8-7-16.85-12.82-23.51-19.89,3.52,2.87,8.41,7.21,12,10.05-7.26-7.7-8.34-8.33-14-13.68l.56.53c-4.36-4.15-8.72-8.33-12.83-12.64,1,1.14,2,2.26,3.08,3.38a49.38,49.38,0,0,1-7.69-6.53,11.05,11.05,0,0,1-1.48-1.88l-.1-.2,0-.06v0s0,0-.13,0c-.33,0-.44,0-.44-.05s0,0,.08.14a.57.57,0,0,1,0,.14,1.89,1.89,0,0,1,0,.23s.17,0,.34.06.35.09.55.16a31.4,31.4,0,0,1,4.75,2.32c6.36,3.66,13,8.15,20.84,12.57-15.32-8.59-2.82-1-4.44-1,3.69,2.75,9.33,6.9,7.53,6,7.47,4.15,11.44,8.45,22,14.33.28.55,7.53,5.15,5.53,4.67,9.32,6-1.89-1.88-.91-1.67,7.36,4.38,15.51,10.26,24.62,16.44,2.28,1.55,4.62,3.11,7,4.66,1,.63,3,1.9,4.83,3s3.71,2.16,5.51,3.07a27.5,27.5,0,0,0,4.88,2,15.88,15.88,0,0,0,3.71.64,4.5,4.5,0,0,0,1.73-.19,1.37,1.37,0,0,0,.87-.7,2.3,2.3,0,0,0,.13-1.07,9.39,9.39,0,0,0-1.41-3.7,27.54,27.54,0,0,0-2.15-3.35c-.89-1.15-1.83-2.28-2.81-3.37-1.93-2.15-3.84-4.09-5.48-5.71l-2-1.9-1.82-1.7c-1.2-1.08-2.33-2.12-3.46-3.15-4.55-4.07-8.9-8.06-16.14-14.72-2.23-2.47-1.07-1.72.65-.35s4,3.38,4,3.38a230.43,230.43,0,0,0-21.07-19.77c1.69,1.18.28-.39-1.81-2.69-6.12-5.32-4.75-2.81-12.53-10.15a70.7,70.7,0,0,1,6.88,4.44c-3.68-3-7.41-6-11.14-9-1.85-1.49-3.72-3-5.52-4.56a32.87,32.87,0,0,1-2.56-2.4c-.19-.2-.36-.4-.5-.58l-.14-.21h0l-.22.07a1.15,1.15,0,0,1-.17.06,2.61,2.61,0,0,1-.33.06.5.5,0,0,1-.21,0l0,0a.07.07,0,0,1,0,.06.72.72,0,0,1,.09.21,2,2,0,0,0,0,.32,1.48,1.48,0,0,1,0,.21c0,.06,0,.19,0,.15h.12a5.57,5.57,0,0,1,.7.2c.51.34.42.43,0,.36a6.49,6.49,0,0,0-.77-.11h-.07v-.2c0-.07,0-.11,0-.17a2.16,2.16,0,0,0,0-.67.63.63,0,0,0,0-.19.71.71,0,0,0-.07-.15c-.1-.13,0,0,.38,0a1.47,1.47,0,0,0,.3-.08l.41-.14.21-.1a1.42,1.42,0,0,0,.14-.07h0a12,12,0,0,0,.93,1c.42.39.88.8,1.34,1.19.92.79,1.84,1.52,2.53,2-1-.89-2.13-1.87-3.17-2.89a12.38,12.38,0,0,1-1.29-1.41l0,0h0l-.19.08a5.28,5.28,0,0,1-1.14.45c-.34.06-.44,0-.48,0s0,0,.06.09a.53.53,0,0,1,.08.32,1.82,1.82,0,0,1,0,.57c0,.15,0,.44-.06.72l0,.16h0l.05,0a1.6,1.6,0,0,1,.37.1,35.88,35.88,0,0,1,4.17,1.93l4.21,2.24c5.47,3,10.21,5.38,11.91,5.85-2-1.24-4-2.51-6.06-3.78,3.53,2,1.46,1.65-1.21.28a88.33,88.33,0,0,1-9.1-5.14,17.52,17.52,0,0,1-3-2.2c2.06.85,4.15,2,6.2,3.07a19.86,19.86,0,0,0-2.65-2,22.86,22.86,0,0,0-3.81-2.07,3.26,3.26,0,0,0-1.12-.26c-.37,0-.17.46.06.79a13.38,13.38,0,0,0,1.76,2c1.31,1.27,2.78,2.52,4.3,3.79,6.11,5,13.11,10.41,18.37,15.16l-5.26-3q5.8,4.4,11.55,8.88c2.06,2.33,3.16,4.25-2.14-.3,7.08,7.28,6.94,5.72,12.81,12.2.63.74.27.48-.41-.1q3.72,3.28,7.38,6.62c-1.57-1.17.56,1.78-3.66-2.6,6.12,6.44,11.28,11.42,15.48,15.4,2.09,2,3.92,3.77,5.46,5.39l1,1.05c.29.33.55.63.79.93a10.15,10.15,0,0,1,1.11,1.58l-.84-.82c3.2,3.35,5,5.51,6.14,6.81a7.39,7.39,0,0,0,1.93,1.94,4.72,4.72,0,0,1,1.79,1.48,5.56,5.56,0,0,1,.52.94,2.79,2.79,0,0,1,.22.69,1,1,0,0,1-.16.82,1.16,1.16,0,0,1-.85.33,4.7,4.7,0,0,1-1-.07,18.36,18.36,0,0,1-2.51-.65,34.43,34.43,0,0,1-3.42-2c-.56-.37-1.13-.78-1.69-1.2l-1.57-1.21a53.66,53.66,0,0,1-4.63-4A8.82,8.82,0,0,1,789,947c-2.15-1.36-6.36-4.12-5.38-3.93-8.3-4.59,1.14,1.22-3.8-1.27-9.85-7.33-28.33-18.46-29.8-21.22-4-1.9,9.39,7-1.71.08-2.21-3.4-12.65-8.31-21.55-15.15,3.31,1.24,11.87,7.54,3,.67-3.19-1.32-7.67-4.43-12.42-7.77s-9.74-6.94-14.18-9.06c-.12.1-.5,0-1.14-.17l-1.17-.37c-.24-.07-.5-.14-.8-.2a3.34,3.34,0,0,0-1.27-.07,1.58,1.58,0,0,0-.61.21,1.53,1.53,0,0,0-.64.71,1.73,1.73,0,0,0,0,1.23,4.17,4.17,0,0,0,.57,1.14,16.53,16.53,0,0,0,1.38,1.77c1,1.16,2.15,2.36,3.41,3.63,5,5,11.64,11.13,17.67,16.31-.5-.2,5,4.9,11.93,11.25s15.42,14,20.79,19.07l-.45-.16c2.86,1.09,14.12,11.32,22.2,18.84-.77.18-2.35-1-6.93-4.89,2.53,2.35,5.05,4.72,7.5,7.14a39.72,39.72,0,0,1,3.49,3c.71.66,1.49,1.43,2.35,2.35.42.46.86.95,1.3,1.49a9.44,9.44,0,0,1,1.11,1.63,19.1,19.1,0,0,0-1.86-1.33c.24.31.48.61.68.91a4.48,4.48,0,0,1,.44.73l0,0h0l.07,0,.17,0c.25-.05.41-.11.59-.15l.48-.06a1,1,0,0,1,.51.06l0,0a.08.08,0,0,1,0,0l0,0a.47.47,0,0,1-.07-.12,2.29,2.29,0,0,1-.15-.79c0-.19,0-.43,0-.64s0-.17,0-.2l-.29,0a15,15,0,0,1-2.11-.71c-.75-.31-1.53-.66-2.3-1-3.12-1.47-6.28-3.18-9.52-5-6.48-3.66-13.26-7.84-20.6-12.89-1.26.1,10.78,9.48-5.37-.31-.36-.73-.56-1.7,3.68.84-1.39-.83-5-2.85-7.66-4.78l6.7,3.52c-6.64-4.67-3.88-1.82-9.28-5.42.43-.43-3.79-3-2.75-2.87,1.41.86,4.6,3.31,6.81,4.47-6.08-4.09-13.27-9.25-15.46-11.24.34.63-.44.66-5-2.23-11.58-7.62-3.56-3.22-10.13-7.94-3-1.51-10.16-6.76-10.85-6.15a26.07,26.07,0,0,1-5-4.06c-3.1-1.82-10.11-6.42-15.59-9.88s-9.41-5.8-6.26-3.2l1.51,1-1-.6,0,0,0,0c-5.05-3-10.14-6.2-15.28-9.4s-10.3-6.47-15.7-9.44a41.35,41.35,0,0,0-4.23-2,9.93,9.93,0,0,0-1.2-.4,6.3,6.3,0,0,0-.71-.15l-.44,0a2.14,2.14,0,0,0-.61.1,1.7,1.7,0,0,0-.39.18,2,2,0,0,0-.39.37,2,2,0,0,0-.25.48,1.7,1.7,0,0,0-.06.42,2.32,2.32,0,0,0,.21,1,7.14,7.14,0,0,0,.66,1.21,33.54,33.54,0,0,0,3,3.64c1,1.13,2.12,2.22,3.2,3.29,4.33,4.25,8.78,8.23,13.22,12l-.22.19c10.7,9,23.66,20.08,31.67,26,3.15,2.66,7.08,6.69,5.51,5.82,8.27,6.71,9.41,7.21,20.82,17.53-8.5-6.53,2.53,2.73-8.61-6.8,10.39,9.14,12.48,11.51,24.27,20.56-4.32-2.72,7.27,7.51,12.34,11.68l-6.94-6.77c5.65,4.75,10.46,9.06,15.31,13.48l-3.31-1.61c5.07,4.91,10,9.43,14.77,13.74s9.28,8.41,13.36,12.57l2,2a15.84,15.84,0,0,1,1.4,1.7,6,6,0,0,1,.57,1,1.25,1.25,0,0,1,.08,1.08,1.1,1.1,0,0,1-1,.35,4.8,4.8,0,0,1-1.06-.13,15.09,15.09,0,0,1-2.07-.66l-1-.42-1.39-.64a78.73,78.73,0,0,1-7.07-3.8c-3.48-1.31-.13.5,3.35,2.25,1.74.87,3.51,1.71,4.45,2.2.33.19.44.3.42.37s-.08,0-.21,0l-.25,0c-.12,0-.31-.08-.5-.13a135.85,135.85,0,0,1-16.35-8.73c-4.71-2.87-8.4-5.28-10.18-6.25a137.89,137.89,0,0,0-15.36-8,128.11,128.11,0,0,1-15.9-8.35c1.9,1.49,3.37,3.46-8.88-3.23-11.21-6.65-13.1-9.34-5.84-5.45,2.71,1.54,4,2.4,3.78,2.44,3.71,2,8.57,4.62,4.3,1.71l-1.64-.54c-5.42-3.54-20.92-12.54-17-10.93-8.67-4.67-3.93-1.61,2.28,2.22-14.18-8.87-22.54-13.2-37.24-22.15,2.27,1.54,4.23,3.17,1.88,1.8-21.62-13-10-5-24.86-13.4-8.18-5.28,3.68.58-11.54-7.51-9-5.47-1.48-1.93,2.31-.12-14-7.13-25.49-14.62-33.5-18.83q3.76,1.77,7.52,3.58c-4.48-2.17-8.11-4-11.84-5.89l3.93,2.78c-4.29-2.34-8-4.13-7.84-4.36-4.78-1.73,3,2.68-6.36-.94a71.07,71.07,0,0,0-9.68-4l-.35-.12-.47-.14-1-.29c-.64-.19-1.28-.34-1.91-.49a18.2,18.2,0,0,0-3.47-.44c-2.06,0-3.67.48-4.66,1.59a7.66,7.66,0,0,0-1,2.26,4.3,4.3,0,0,1,.26-1.49,5.66,5.66,0,0,1,.49-.95,4.79,4.79,0,0,1,2.71-1.61A9.5,9.5,0,0,1,557,900a22.33,22.33,0,0,1,2.83.23c1,.1.35-.16-.37-.44s-1.45-.53-.35-.5c.28,0,.67,0,1.22.14s1.28.22,2.18.48l1.49.42,1.11.34q1.14.38,2.64.93l-2.61-.89-.71-.23-.38-.13-.6-.18c-.82-.25-1.66-.5-2.52-.69a17.07,17.07,0,0,0-5.13-.58,6.67,6.67,0,0,0-4.23,1.66c-.76.7.4-1,2-1.55a6.63,6.63,0,0,0-1.77.86,14.54,14.54,0,0,0-1.17,1.11,6.16,6.16,0,0,0-1.13,3.42,9.48,9.48,0,0,0,.53,3.1,19.12,19.12,0,0,0,2.85,4.94c.49.65.94,1.22,1.39,1.72.26.29.5.54.74.76.47.47.9.84,1.36,1.24,1.83,1.53,3.91,3.4,10.77,10.16-2.24-1.43,2.67,4,5.19,6.2-5.94-5.66-2.25-3.31,3.51,1.49,9.29,9.09,10.65,9.25,15.69,13.8l-5.66-5.29c2.31,1.35,7.09,5.71,14,11.52.3.82-6.35-5.19-4-2.93,8.14,5.91,16.44,15.6,27.42,24.24,4.66,4.5-.18,1.17,4,5.06,12.28,9.71,12.34,11.61,25.08,22-3.09-3.65-3.82-4.08,5.33,3Q647.37,996.66,637,988l13.76,10.59c-6.13-5.38-13.27-11-16.89-14.24,6.63,5,5.87,4.55,3.31,1.54,7.73,8.11,17.12,14,26.29,23.12L662,1010.1c7,6.72,13.52,12.3,20.53,18.43a290.88,290.88,0,0,1,23,22q-2.65-3-5.39-6c2.89,1.87,10.93,11,16.14,17-.92-.21,2.09,3.82,3.61,6.78,0-.2,1.3,1.47,2.62,3.86a18.65,18.65,0,0,1,1.64,3.83,6.92,6.92,0,0,1,.27,1.64,2.22,2.22,0,0,1-.2,1,2.91,2.91,0,0,1-1.4,1.23,13.64,13.64,0,0,0-1.55.8,36.64,36.64,0,0,1-10.38-1.4c-4.82-1-8.63-1.91-11.93-2.68l-8.84-2.09a139.45,139.45,0,0,1-20.05-6.27c5.72,1.44-2.43-2,10,2-6.11-2.19-11.51-4.4-11.76-4-3.42-1.67-17.08-5.89-22.38-8.75-2.63-.83-3.71-.59-10.42-3.51-.68-.43.14-.26.14-.26-.14.27-10.67-4.18-5.06-1-8.86-4.83-21.69-10.51-34.19-16.16s-24.67-11.25-32.25-15.7c-13-5.89-28.52-13.13-40.19-18.7.82.2.17-.25,2.34.87-15.83-8.23-10.62-3.23-28.63-12.61-8.93-5.37,9.93,4.23,4.27,1.09-1.69-3-22.17-10.43-34-17.33l3,1.32a186.49,186.49,0,0,0-17.06-8c-6.66-2.8-14-5.93-22.07-9.2,0,0,.86.15.2-.23-1.44-.43-3-.91-4.89-1.34a13.8,13.8,0,0,0-1.56-.28,6.19,6.19,0,0,0-1.12,0,3.35,3.35,0,0,0-.45.07l-.27.07-.38.14a3,3,0,0,0-.45.29,2.22,2.22,0,0,0-.47.49,2.32,2.32,0,0,0-.42,1.3,2.5,2.5,0,0,0,.36,1.31,3,3,0,0,0,.38.56,5.89,5.89,0,0,0,.67.71c.43.4.85.74,1.27,1.06,3.36,2.51,7.08,4.74,11,7.12,7.76,4.7,16.09,9.53,23.22,13.62-4.78-2-6.61-3.49-4.34-1.22,6.38,3.68-1.22-2.15,11.53,5.16,3.89,2.79,12.86,8.46,13.66,9.87l-12-7c5.57,4.53,15.5,9,21.73,12.85l-1.05-.06c18.47,10.5,19.32,9.62,39.07,21l-1.87-1.48c11.4,5.18,8.74,5.76,20,11.19l2.68,2.9c7.28,3.84,25.58,13.32,38.48,20.49-7.69-3.41-22.88-11.61-32.42-16.46,7.08,4.06,24.09,13.7,28.07,15.31-2.91-1.54-6.65-3.35-9.37-5.12,9.14,4.17,20.79,10.33,34.84,18.49-1.83.28,7.27,5.7,17.94,12s22.89,13.66,27.44,17.49c6.23,3.55,12.35,7.23,18.33,11.15,3,2,6,4,8.69,6.13.68.54,1.34,1.09,1.9,1.62a6.08,6.08,0,0,1,.68.7l.08.11h0l.16-.1c.3-.17.47-.31.72-.44a4.35,4.35,0,0,1,1.15-.48.94.94,0,0,1,.43,0,.15.15,0,0,1-.1-.11,1,1,0,0,1-.25-.59l-.1-.34a4.48,4.48,0,0,1-.11-.72c0-.13,0-.22,0-.38l0-.48h-.15a8.74,8.74,0,0,1-1-.16c-.76-.17-1.6-.4-2.43-.66-3.38-1-6.86-2.37-10.35-3.74s-7-2.84-10.61-4.35L638,1096.36c10.18,6.35-9-3.83-7.82-1.35-7.19-3-9.89-4.26-10.48-4.65l-21.12-10.66c-4.88-2.79,6.93,2.68,6.44,2-15.5-7.14-6.2-3.65-16.29-8.76,1.84,1.56-5.79-1.59-14.54-5.87l12.12,6.46c-22.11-9-18.12-10-40.36-19.17l7.15,2.67c-11.36-4.85-41.29-19.18-52.86-23-1.89-1.12-4.29-2.8.69-.61-26.63-12.71-60.07-26.59-80.41-37.25l2.22.56c-1.26-.56-2.45-1-3.64-1.52l-.89-.35-.46-.18-.27-.11-.08,0-.2-.08a3.47,3.47,0,0,0-.56-.15,3.32,3.32,0,0,0-1.57.1,3.54,3.54,0,0,0-1.43.85,3.37,3.37,0,0,0-.66,1,3.28,3.28,0,0,0-.29,1.36,3.39,3.39,0,0,0,1.62,2.89l.22.12h0l.08,0,1.85.76a72.9,72.9,0,0,1,7.93,3.75c-.4,0-2.2-.54.1.57,2.7,1.09,13.58,5.48,20.07,8.81l-5.86-2.18c25.81,12.74,40.51,17.64,62.46,27.67-.62,1.17,19.66,11.25,29.76,16.31h-.43c30.16,14.58,51.8,23.57,79.79,36.93,4.14,2.47,9.83,5.57,16.42,9.12l10.44,5.67c3.6,2,7.44,4.1,10.94,6.37.42.28.85.57,1.2.84s.34.26.5.38l.15.14h0l.13-.12.29-.27c.18-.16.45-.35.56-.48a4.09,4.09,0,0,1,.9-.68c.2-.1.26-.18.36-.23a1.13,1.13,0,0,1,.32-.13h.12l.06,0s.1,0,.06,0a1,1,0,0,1-.21-.38,8.4,8.4,0,0,1-.23-2.17v-.83h-.06c-.26,0-.74-.12-1.21-.23-1.94-.45-4.1-1.13-6.2-1.81-4.24-1.4-8.5-2.93-12.68-4.48-8.37-3.11-16.43-6.29-23.57-9.25,4.33,1.92-1.09.69-6.26-1.18-6.68-2.86-19-6.45-17.52-7.16l2.4,1c-4.66-3.1-18.65-8.29-29.47-12.64l-2.37.76c-27.47-13.43-74.5-28.89-89.29-36.84-7-2.31-15.52-5.62-22.52-7.81l.67-.66c-4.79-1.84-9-3.42-13.08-4.82-1-.34-2.06-.67-3.17-1a18.38,18.38,0,0,0-1.89-.45c-.19,0-.43-.07-.72-.09l-.26,0h-.34a3.13,3.13,0,0,0-.47,0l-.32,0a4.83,4.83,0,0,0-.5.12l-.28.1-.14.06-.25.12a4.3,4.3,0,0,0-1,.67,4,4,0,0,0-1,1.48,4.09,4.09,0,0,0-.28,1.47,4.22,4.22,0,0,0,.24,1.46,3.79,3.79,0,0,0,.18.42,5.07,5.07,0,0,0,1.33,1.65,14.79,14.79,0,0,0,1.74,1.23c.49.31,1,.59,1.43.86.94.54,1.87,1,2.8,1.54,7.45,3.92,15.44,7.7,26.92,13l-4.92-1.65c12.87,6.12,17.32,5.4,29.25,10.86l3.06,2.8c22.56,10.34,45,21.73,67.72,30.87-.44,0-1.26,0-4.93-1.59,10.62,4.86,40.67,19.6,37.55,16.26-.22,1.15,23.18,10.81,35.36,16.27l-2.23-.16c5.28,2,8,3,11.17,4.38.78.35,1.59.73,2.45,1.16.43.21.86.44,1.3.69s.93.55,1.14.7h0s0,0,0,0l.14-.14a3.68,3.68,0,0,1,.6-.51,2.1,2.1,0,0,1,.41-.32,1.27,1.27,0,0,1,.23-.08.1.1,0,0,1,.07,0c.09,0,.06,0,0,0s0-.09-.06-.15,0-.13-.06-.23a8.08,8.08,0,0,1-.08-1.37,3.62,3.62,0,0,1-.63-.07c-.58-.1-1.26-.26-2-.45-1.45-.37-3.1-.86-5-1.45-3.49-1.31-2.86-1.66,1.73.1-5.78-2.15-8.12-2.83-10.78-3.57a102.46,102.46,0,0,1-12.61-4.49l5.45,1.47c-12-4.55-11.11-3.94-17.93-5.88-7.65-2.56-22.61-9-24.09-10.37-1.78-.2-8.55-2.19-15.5-5.16-.84-.64,1.78.21,3.1.63-19.75-8.38-30-10.81-43.43-17a5.48,5.48,0,0,0-2.13-1.38c15.83,6.31,28.57,11.39,27.36,11,.28-.72-12.47-5.91-1.9-2.87-10.48-3.52-28.51-9.32-40.84-14.62a15.68,15.68,0,0,1-1.55-.9l1.32.43c-2.85-1.21-5.45-2.17-7.92-3-3.94-1.7-6.43-2.79-10.25-4.32-1.24-1.18-14.54-6.15-20.92-8.69.22,1-8.1-2.43-.52,1.3-1-.45,1.25.38,5.5,2,1,.36,2.11.79,2.76,1l-.46-.11,15.88,6.24a124.52,124.52,0,0,1-17.49-6.59c-3.47-.79-7.28-1.69-9.41-2.25-4.16-2.27-10.39-5.21-15.87-7.74L428,1045.6l-2.65-1.22c-.38-.17-.71-.32-1.11-.47l-.39-.12a2.23,2.23,0,0,0-.37-.07,2.34,2.34,0,0,0-.38,0h-.19l-.31,0a4.15,4.15,0,0,0-.62.14,3.39,3.39,0,0,0-1.95,4.72,4.15,4.15,0,0,0,.32.53l.19.23.13.15c.17.17.38.34.41.37l.33.27a12.62,12.62,0,0,0,1.17.61l1,.45,1.9.84,3.85,1.65,8,3.35c5.38,2.24,10.87,4.5,16.14,6.63,10.55,4.26,20.27,8,26.64,9.82a34,34,0,0,1,8.09,4.19c-3.23-1.2-7-2.81-8.79-3.33,11.13,4.27,32.58,13.6,35.63,13.68,13.63,6.31-8.17-2.34,10.9,5.53l-2.7-.78c18.35,8.72,33.81,14.51,49.73,20.64,8,3.06,16,6.21,24.61,9.89,4.29,1.84,8.71,3.81,13.26,6,1.14.55,2.29,1.12,3.43,1.71s2.32,1.21,3.33,1.86l.3.21s0,0,0,0,.3-.37.48-.55a4,4,0,0,1,.31-.29,1.15,1.15,0,0,1,.24-.18.14.14,0,0,1,.09,0h0a.09.09,0,0,1-.07-.12,1.49,1.49,0,0,1-.06-.73c0-.18,0-.4,0-.6v-.14h0l-.11,0-.39-.11c-.57-.16-1.21-.38-1.83-.6-1.26-.45-2.55-.94-3.85-1.46,2.89,1.13,4.33,1.62,4.86,2-3-.92-6-2-9-3.15l-9.09-3.37-18.33-6.85-37-13.8c-24.67-9.24-49.21-18.59-72.58-28.36-13.34-5.42-15.05-5.31-23.47-7.9l-2.6-1.94c-4.83-1.42-9.62-2.86-14.54-4.15l-1-.27c-.18,0-.34-.09-.58-.13l-.21,0h-.38a1.16,1.16,0,0,0-.73.43.94.94,0,0,0-.19.36,1.14,1.14,0,0,0,0,.75,1.16,1.16,0,0,0,.11.2.76.76,0,0,0,.11.14,2,2,0,0,0,.19.17,1.11,1.11,0,0,0,.18.12c.72.41,1.27.63,1.88.91l3.52,1.55c2.31,1,4.56,2,6.78,3,4.43,2,8.75,4.12,13.25,6.24a303,303,0,0,0,31.44,13.08l-3-1.88c8.92,3.77,28.54,11.25,26.78,11.28a26.74,26.74,0,0,1,6.57,2.33l.09.55,22.35,8.19c17,7.24-3.39.67,21.52,10.85,9.34,3.58,26.93,9.39,23.56,7.69-3.73-1.54-9.45-4.14-9.55-4.69l8.57,3.19c2.07-.67,9.12.64-11.33-8.68l-14.83-5.07-4.41-2.52,12.22,4.9c-6.69-3.39-11.29-4.65-16.35-6.28a32.53,32.53,0,0,0-5.8-3.15L527,1099.49c-1.52-1.2,6.79,1.59-2.65-2.57-6.9-2.13,5.94,3.74-5.25-.37-6.7-3.4-4.48-3.06-12.82-5.87-1-.8.8-.31,4.09.86-7.41-2.55-19.24-7.64-23.25-8.48-6.93-3.67-24.5-9.83-23.28-10.76-2.39-.65-13.12-4.3-19.75-7,6.36,1.8.15-.79-7.07-3.94-1.79-.79-3.69-1.63-5.32-2.43l-.54-.28-.18-.1h0l-.08.15c-.32.51-.52.85-.78,1.24a7.75,7.75,0,0,1-1.13,1.5c-.08.06-.11,0,0,.07a.12.12,0,0,1,0,.1.2.2,0,0,0,0,.15,3,3,0,0,1-.07.9,2.08,2.08,0,0,0-.06.24l0,.36-.12.73-.15.71-.08.35h0l.15,0,.53.18c.77.26,1.54.55,2.24.82,2.79,1.11,4.45,2,3.49,2.07,9.56,1.94,33,11.73,49.34,17.14a29.38,29.38,0,0,1-4.17-1.31c9,3.57,11.47,5,17.19,7.45,1.58-.65,15.76,4.49,23.61,6.72,10.68,5.3-7.23-1.29-4.14,1.06-.22-1.1,19.6,6.49,16.12,4.3,8.23,3.9,7.18,3.11,11.21,5.69,2-.81,8,2.78,15.34,4.6,12,5.34,2.68,2.5,16.35,7.17C582,1123.77,569.75,1119.74,569.75,1119.74Zm-74.08-42v0l-6.6-2.57Zm26.82,10.63-11.62-4.64c-.83-.64.29-.52,3,.57C512.32,1083.89,518.58,1086.55,522.49,1088.36Zm-54.55-27.95c4.29,1.58,5.65,2.3,6.17,2.69l-7.46-2.85-.54-.11A7.82,7.82,0,0,1,467.94,1060.41Z"/>
            <path class="cls-2" d="M459.9,1058.42c-.62-.22-1-.33-1.77-.63l2.46,1.17,1.61.35Z"/>
            <path class="cls-2" d="M673.71,902.58l-.5-.35a12.37,12.37,0,0,1,1,.8C673.89,902.77,673.91,902.75,673.71,902.58Z"/>
            <polygon class="cls-2" points="468.37 1047.69 468.41 1047.47 466 1046.73 468.37 1047.69"/>
            <path class="cls-2" d="M769,953.33a14,14,0,0,0-1.4-1.58A17.4,17.4,0,0,0,769,953.33Z"/>
            <path class="cls-2" d="M717.94,907.51q-3.48-3.37-6.91-6.77C714,903.72,716.17,905.83,717.94,907.51Z"/>
            <path class="cls-2" d="M720,904.45a3,3,0,0,0,1.06.26l-.09-.06Z"/>
            <path class="cls-2" d="M592.6,941.13c.53.47,1.06.93,1.54,1.32C597.82,945.49,595.35,943.39,592.6,941.13Z"/>
            <path class="cls-2" d="M724.33,994.45c-2.38-1.17-4.73-2.34-7.18-3.63C721,993.09,724,994.8,724.33,994.45Z"/>
            <path class="cls-2" d="M646.35,1064.9h0l-1.6-.66Z"/>
            <path class="cls-2" d="M707.09,985c3.77,2.37,7,4.19,10.06,5.8C714,989,710.34,986.75,707.09,985Z"/>
            <path class="cls-2" d="M740.39,885.23l2.18,1.31c0-.07.15,0,.33,0Z"/>
            <path class="cls-2" d="M742.9,886.57l2.51,1.33A20.1,20.1,0,0,0,742.9,886.57Z"/>
            <path class="cls-2" d="M750.75,890.63c-1.8-.9-3.57-1.81-5.34-2.73A40,40,0,0,0,750.75,890.63Z"/>
            <path class="cls-2" d="M769.94,911.79l.8.33C770.38,911.87,770.1,911.75,769.94,911.79Z"/>
            <path class="cls-2" d="M785.23,926.62c-3.5-3.66-8.55-9.49-13.84-14.22l-.65-.28a73.4,73.4,0,0,1,6.9,6.81A105.59,105.59,0,0,0,785.23,926.62Z"/>
            <path class="cls-2" d="M762.68,928.82q7.29,5.07,14.65,10c-2.42-2-5.58-4.58,1.21-.21-9.08-6.55-8.2-5.79-7.5-5S772.3,935.37,762.68,928.82Z"/>
            <path class="cls-2" d="M717.18,897.6c8.11,5.11.17-.47.69-.34C712.59,894.21,711.3,893.49,717.18,897.6Z"/>
            <path class="cls-2" d="M695.09,939.19l-1.23,0C699.56,943.82,694.1,939,695.09,939.19Z"/>
            <polygon class="cls-2" points="755.4 985.92 750.37 980.77 747.35 979.03 755.4 985.92"/>
            <path class="cls-2" d="M776.07,1015.32a.37.37,0,0,0,.21-.38,1.37,1.37,0,0,0-.18-.49c.15.25.24.68-.05.8a1.54,1.54,0,0,1-.8.08,10,10,0,0,1-1.76-.41,12.92,12.92,0,0,0,1.34.37A2.49,2.49,0,0,0,776.07,1015.32Z"/>
            <path class="cls-2" d="M578.48,1026.59l1.62,1.8C584.68,1030.33,586.07,1029.81,578.48,1026.59Z"/>
            <path class="cls-2" d="M524.92,1023.05a89,89,0,0,0,14,8.36C533.28,1028.13,527.85,1024.59,524.92,1023.05Z"/>
            <polygon class="cls-2" points="542.35 1068.99 547.87 1070.85 537.6 1067.03 542.35 1068.99"/>
          </g>
        </g>
        <g class="cls-1">
          <g>
            <path class="cls-2" d="M1603.21,887.25c-.87,1.74-.91,2.21,0,1.09s2.58-3.88,5.41-8.46q1.62-3.51,3.39-7C1608.86,877.6,1606,882.4,1603.21,887.25Z"/>
            <path class="cls-2" d="M1648.77,871.07c1.4,6.17,2.27,12.95,2.93,17.13s1.14,5.77,1.38,1.63c-.85-6.26-1.39-10.15-2.09-14.15-.36-2-.76-4-1.38-6.35a45.06,45.06,0,0,0-2.91-8.11,20,20,0,0,0-4-6.58,9,9,0,0,0-2.79-1.94,8.48,8.48,0,0,0-2.85-.62,13.16,13.16,0,0,0-3.69.53c-.7.18-.91.16-.48-.11a27.79,27.79,0,0,0-3.94,2.38,40.59,40.59,0,0,0-4.82,4.2,53.71,53.71,0,0,0-7.56,9.49c2.26-2.7,4.71-5.56,7.52-8.34a48.06,48.06,0,0,1,4.55-4,19.84,19.84,0,0,1,5.53-3.12,9.29,9.29,0,0,1,3.29-.51,7,7,0,0,1,3.27.94,12.62,12.62,0,0,1,4.5,5.08,51.51,51.51,0,0,1,4.3,13.12C1650,875.71,1649.13,871.92,1648.77,871.07Z"/>
            <path class="cls-2" d="M1750.51,1027.92l.48-6.75C1750.82,1023,1750.66,1025.32,1750.51,1027.92Z"/>
            <path class="cls-2" d="M1851.32,904.22a64.36,64.36,0,0,0-.17-7.27C1851.19,901.55,1851.23,905.32,1851.32,904.22Z"/>
            <path class="cls-2" d="M1849.36,1015.18c0-2.38.07-4.38.1-6.54C1849.36,1011.14,1849.29,1013.65,1849.36,1015.18Z"/>
            <path class="cls-2" d="M1750.51,1027.92l-1.15,17.34C1749.63,1046.49,1750,1036.37,1750.51,1027.92Z"/>
            <path class="cls-2" d="M1664.7,892.64c-.69,3.57-1.2,6.56-1.63,9.3.56-2.93,1.1-5.77,1.67-8.71A4.18,4.18,0,0,1,1664.7,892.64Z"/>
            <path class="cls-2" d="M1755.82,782.87l-1.38,5.06c-.28,1.52-.52,3-.7,4.32C1754.4,789.11,1755.08,786,1755.82,782.87Z"/>
            <path class="cls-2" d="M1701.63,989.09a6.72,6.72,0,0,0,1,2.06,3.25,3.25,0,0,0,.62.61,1.64,1.64,0,0,0,.88.36,2.32,2.32,0,0,0,1.42-1,10.24,10.24,0,0,0,.79-1.36,7.19,7.19,0,0,1-.78,1.14,2,2,0,0,1-1.37.82,1.94,1.94,0,0,1-1.15-.92,6.65,6.65,0,0,1-.64-1.28,21.28,21.28,0,0,1-1-3.3A7.12,7.12,0,0,0,1701.63,989.09Z"/>
            <path class="cls-2" d="M1678.84,845.28l-1.35,6C1677.84,849.74,1678.43,847.1,1678.84,845.28Z"/>
            <path class="cls-2" d="M1757.62,899a10.15,10.15,0,0,0-.43,2A5.8,5.8,0,0,0,1757.62,899Z"/>
            <path class="cls-2" d="M2241.62,1209.27c.08.17.09-.08.15,0C2241.52,1208,2241.41,1207.6,2241.62,1209.27Z"/>
            <path class="cls-2" d="M2211.73,956.12l.53,3.49c.21.35.41.72.57.69Z"/>
            <path class="cls-2" d="M1859.32,1219.38c-.27-.46-.32-.6-.52-1-.39-.73-.63-1.3-.82-1.74s-.34-.78-.42-1c-.17-.44-.18-.46-.09-.2A25.29,25.29,0,0,0,1859.32,1219.38Z"/>
            <path class="cls-2" d="M2117.83,927.32c-1.41-21.08,4.47,34.08,2.06,2.37C2119.88,932.67,2115.58,901.1,2117.83,927.32Z"/>
            <path class="cls-2" d="M1666,887.08l1.88-8.83C1667,882.26,1666.38,885,1666,887.08Z"/>
            <path class="cls-2" d="M2119.89,929.69h0l-.26-3.27C2119.74,927.78,2119.8,928.54,2119.89,929.69Z"/>
            <path class="cls-2" d="M1984.35,777a37.14,37.14,0,0,0-2.46,3.93A44.16,44.16,0,0,0,1984.35,777Z"/>
            <path class="cls-2" d="M1903,1114.24l1.85-8.43C1904.12,1109.15,1903.53,1111.86,1903,1114.24Z"/>
            <path class="cls-2" d="M2038.58,906.45c.54,4.66.62,6.25,1.53,12.58,0-.59-.08-1.18-.14-1.94C2039.57,914.81,2039.13,911.76,2038.58,906.45Z"/>
            <path class="cls-2" d="M2057.08,1093.81c0-1-.07-2.32-.11-3.48-.16-1.86-.35-4-.52-5.95Z"/>
            <path class="cls-2" d="M2196.11,998.21c-.24-4.13-.27-6.71-.25-8.73C2195.6,992.43,2192.21,965,2196.11,998.21Z"/>
            <path class="cls-2" d="M1665.18,892.64a35.14,35.14,0,0,1,.79-5.56c-.42,2.12-.83,4.16-1.23,6.15C1664.75,893.79,1664.84,893.93,1665.18,892.64Z"/>
            <path class="cls-2" d="M2046.15,913.21q1.81,14.88,3.44,29.79C2048.72,934.66,2047.5,923.83,2046.15,913.21Z"/>
            <path class="cls-2" d="M2179.56,1164.74l1.06,6.79C2180.27,1168.9,2179.9,1166.49,2179.56,1164.74Z"/>
            <path class="cls-2" d="M2058.53,1031.48c.18,5.35.5,11,.89,16.85.17,1.23.35,2.64.51,3.45Z"/>
            <path class="cls-2" d="M2195.87,989.41c0,.07,0,.07,0,.07S2195.87,989.48,2195.87,989.41Z"/>
            <path class="cls-2" d="M2211.53,986.28c-4.52-28.18-3.21-13.06-4.8-18.93-5.83-33.56-1.76-15.69-3.1-27.22-1.91-10.47-3.84-19.69-5.69-28.24-.93-4.27-1.84-8.38-2.77-12.41-.46-2-.93-4-1.45-6a30.75,30.75,0,0,0-1-3.24,6,6,0,0,0-.24-.57,4.41,4.41,0,0,0-.22-.42l-.18-.28a4.35,4.35,0,0,0-.37-.45l-.12-.12a2.75,2.75,0,0,0-.26-.22,4.13,4.13,0,0,0-.59-.37,1.51,1.51,0,0,0-.26-.11,2.06,2.06,0,0,0-.35-.12,3.88,3.88,0,0,0-.75-.11,3.22,3.22,0,0,0-1.43.29,3.51,3.51,0,0,0-1,.68,4.15,4.15,0,0,0-.42.52c-.06.08-.14.23-.16.25l-.06.13-.12.27a3.47,3.47,0,0,0-.14.38l-.07.3-.08.39a15.37,15.37,0,0,0-.13,1.94c-.19,1.32-.14,4.53-.47.72.15,3,.46,6.14.78,9.59s.7,7.08,1.08,10.94c.81,7.69,1.7,16.11,2.6,24.65,1.86,17.06,3.92,34.55,6,47.49.12,1.95.14,2.94.12,3.43.06-4.27.55-5,1.05-4.17,1.48,12.7,3.43,23.49,3.27,28.36a111.5,111.5,0,0,0-1.9-12l1.87,13.27c.37,12.1-2.49-18.13-3.25-18,3.35,25.92,7.82,56,9.92,76-.53,4.28-5.91-46.44-3.64-19.81l-3.26-30.81c1.18,23.7-2.1-18.71-1.26,3.1,4.51,40.52,5.91,45.22,10.49,85.63,1.66,9,.46-3.11,2.12,5.92,7.95,57.25,2.93,45.47,9.35,87.49,2,10.84,3.79,14.92,6.63,45l-2.34-10.11c2.24,19.6,3.27,25.15,4.26,30.93.49,2.9,1,5.85,1.54,10.65.29,2.4.6,5.27.93,8.81.16,1.77.33,3.71.5,5.85.07,1.06.15,2.17.22,3.34,0,.57.06,1.16.09,1.76s0,1.23,0,1.65c0-.63-.15-1.85-.29-3.12s-.3-2.8-.47-4.35c-.35-3.12-.74-6.55-1.08-9.56-.69-6-1.2-10.43-.94-7.46,1,13.33,1.58,18,2.14,21.85.06.47.13.93.19,1.39s.12.93.14,1.23a.32.32,0,0,1,0,.07h.11l.58,0c.37,0,.8.11,1.11.15a4.51,4.51,0,0,1,.8.17.62.62,0,0,1,.24.1c.07,0,.08,0,.08.07s0,0,.08-.11a.54.54,0,0,1,.22-.15,4.49,4.49,0,0,1,.76-.38c.29-.12.72-.32,1.09-.45l.29-.1.19-.06h0s0,0,0-.08l-.11-.28c-.15-.45-.3-1-.46-1.6-.62-2.42-1.29-5.72-2.1-10.78l.33-4.36c-3.31-20.7-6.66-42.52-10.12-64.89s-6.95-45.32-10.33-68.34c.66,2.5,2.1,10.35.87-.47-8.8-58-17.58-124-25.53-180.14l-4.17-21.26c-.77-5-1.06-9.29,0-3.93-3.13-21.86-.73-1-2.74-11.47-2.06-12.39-2.18-16.47-.62-8.65-1.76-9.59-3.87-21.21-6.42-33.88-.64-3.16-1.32-6.4-2-9.68s-1.48-6.59-2.63-10.13c-.16-.46-.32-.91-.54-1.43-.12-.26-.23-.52-.42-.86-.08-.15-.23-.37-.37-.58s-.23-.28-.35-.41a2.87,2.87,0,0,0-.31-.29,2.75,2.75,0,0,0-.44-.31,3.55,3.55,0,0,0-.69-.31,3.34,3.34,0,0,0-1.14-.14,3.18,3.18,0,0,0-1.12.28,2.7,2.7,0,0,0-.73.47,3.28,3.28,0,0,0-.7.82,4.4,4.4,0,0,0-.27.51,7.09,7.09,0,0,0-.36,1.2,13.73,13.73,0,0,0-.21,1.61c-.15,1.93-.14,3.68-.13,5.47,0,3.55.21,7.06.38,10.58.76,14,1.86,28.06,2.82,41.17s1.88,25.26,2.51,35.5l-.93-7.95c2.36,31.88,4.9,35.77,6.74,65.35l-.67-5.64c5.88,69.09,13.93,145.29,17.18,198.09,1.07,5,2.42,22,3.65,38.44s2.32,32.09,3.32,34.25c.42,9.87.55,16.57.5,21.87,0,2.63-.1,5-.33,7a5,5,0,0,1-.2,1,8,8,0,0,1,1.22.41,2.82,2.82,0,0,1,.48.19l.4.21a1.57,1.57,0,0,1,.28.21.36.36,0,0,1,.14.16s0,.07.06-.07.06-.09.14-.21a1.6,1.6,0,0,1,.26-.26,5.25,5.25,0,0,1,.84-.63,6.49,6.49,0,0,1,.55-.36,4,4,0,0,1,.41-.22l0,0c-.09-.22-.24-.69-.37-1.14s-.26-1-.38-1.49c-1-4.21-1.81-9.19-3-16.43s-2.66-16.87-4.66-30.64c-2.2-14.71-4.45-21.75-7.32-39.93l.85-.58-4.55-24.58-.79-13.32-2.67-17.06c.91,6.82,1.65,14.53,1.24,13.53-2.11-13.32-4.26-29.61-5.82-42.67-.78-6.53-1.42-12.25-1.84-16.38a59.88,59.88,0,0,1-.53-6.86l-9.69-63.08c.57,1.35,2.19,11.92,3.61,20.25-5.71-33.6.1-6.27-5.15-37,.39,4.17-.86-2.16-1.15-2.84-1.64-15.48-6.67-50.55-10.81-76.44l1.37,4.88c-3.44-23.43-7.26-48.1-11.75-73.44-1.14-6.34-2.32-12.72-3.62-19.14-.65-3.21-1.34-6.43-2.09-9.67a101.05,101.05,0,0,0-2.73-9.92c-.16-.44-.33-.89-.54-1.37a12.09,12.09,0,0,0-.81-1.61,6.85,6.85,0,0,0-.87-1.18l-.44-.41a5,5,0,0,0-.7-.49,3.34,3.34,0,0,0-.51-.26,5.25,5.25,0,0,0-.63-.22,4.42,4.42,0,0,0-1.68-.11,4.24,4.24,0,0,0-.84.19,3.86,3.86,0,0,0-.72.31,4.51,4.51,0,0,0-.54.35,3,3,0,0,0-.42.35,6.27,6.27,0,0,0-.56.62,4.9,4.9,0,0,0-.31.48,5,5,0,0,0-.39.75c-.08.19-.16.4-.22.57a13.56,13.56,0,0,0-.45,1.73c-.1.52-.16,1-.23,1.46-.12.92-.2,1.8-.27,2.68-.26,3.47-.31,6.81-.34,10.17,0,6.7.11,13.36.3,20-.12-9.57.24-13.28.56-12.62s.69,5.67,1,13.48l-.77,6.27c1,10-.2-16.31,1.27,4.34.71,19.86-.56,13.4-1.36,2q.66,12.07,1.45,24.12c-.22,1.43-.66-4.22-1.1-5.67,1,9.87,1.26,41.68,3.24,55.88l-.2,1.38c1.67,26.51,3.09,45.76,4.44,63.79s2.66,34.8,4.31,56.38c.9.78,2,17.66,3.63,30.46,2.15,31.72,4.24,67,7.38,105.13,2.58,26.8,1.34,7.78,2.82,19.8-.61,2,2.56,40.16.4,20.43,2,22.9,3.22,37.53,4.61,53.67.73,8.06,1.49,16.51,2.4,26.55.22,2.51.46,5.12.7,7.85q.09,1,.18,2v.35c-.18,0,.91,0,1.31-.05s1.3.14,1.49-.13c.49.11.14.13.62-.09.23.25,1,0,1.53-.07s1.53-.21,1.25-.16c0,0,0,0,0,0v-.09l0-.24c0-.34-.07-.69-.1-1-.13-1.42-.26-2.87-.4-4.36-.53-6-1.1-12.51-1.74-19.75.17,6.32.58,13.4,0,9.76-.94-10.51-1.53-24-1-22.48l.3,2.77c-6.15-65-9.6-150.34-15.61-202l.32,2.9-5.44-53.63c-2-24.71,1.87,14.77.74-3.55-6.39-57.8-8.05-91.52-13.75-139.09-.59-14.32-2.78-37.07-5.85-62.45-1.54-12.68-3.3-26-5.33-39.3-1-6.63-2.1-13.25-3.36-19.78-.21-1-.41-2-.61-3-.29-1.4-.61-2.88-.94-4.28a57.77,57.77,0,0,0-2.27-7.74,12,12,0,0,0-2.76-4.45,7.79,7.79,0,0,0-1.43-1.08,4.59,4.59,0,0,0-2-.55,7.06,7.06,0,0,0-1.34.38,4.48,4.48,0,0,0-.9.54,8,8,0,0,0-1.5,1.56,10.41,10.41,0,0,0-1.37,2.54,25.31,25.31,0,0,0-1.08,3.77c-.63,2.83-1.05,6.06-1.42,9.19-.13,1.21-.27,2.42-.4,3.61l-.25,2.57c-.66,6.78-1.13,13.09-1.59,18.81l.69-2.87c-.14,13-1,15.67-1.49,25.21.45-1.34,1-14,1-6-.81,27.43-1.17,55.26-1.51,83.35s-.53,56.43-.8,84.86c-.38,56.85-.76,114-1.13,170.17-.11,20.53.55,26.35,1.08,33.52s.91,15.66.07,41.53l-.88-14.7c.16,20.71.11,41.65-.22,62.65-.17,10.5-.41,21-.78,31.53s-.82,21-1.77,31.35c-.24,2.57-.53,5.14-.92,7.59a32.26,32.26,0,0,1-.71,3.41,6.33,6.33,0,0,1-.21.62l-.07.17h0l.2.12a10.6,10.6,0,0,1,.94.56,5,5,0,0,1,1.18,1c.22.23.19.48.2.32v0a.29.29,0,0,1,0-.09,1,1,0,0,1,.09-.15,1.84,1.84,0,0,1,.41-.49,3.35,3.35,0,0,1,.66-.57,7.23,7.23,0,0,1,.9-.63,1.87,1.87,0,0,0,.26-.15l.05,0v0s0,0,0-.06-.06-.12-.1-.22a6.84,6.84,0,0,1-.24-.66c-.17-.49-.32-1-.47-1.62-.29-1.15-.54-2.38-.77-3.62-.46-2.49-.85-5-1.21-7.6-1.4-10.26-2.4-20.65-3.37-31-1.91-20.68-3.55-41.22-5.29-61.42.58,4.8.89,4.92,1.47,12.81-.28-8.56-1.42-24.35-2.54-38-.56-6.84-1.13-13.16-1.59-17.78a58.48,58.48,0,0,0-1-7.61c-.82-12.6.32-3,.08-10.74-.78-17.18-4-43-3.91-52.13,0-1.56.58,4.8.86,7.93-1.13-11.15-3.74-52.06-3.77-41.3-1.88-30.4-4.86-58.06-6.45-82.31-1.14-7.85-2.16-20.85-3.18-32.49s-2-21.93-2.89-24.37c.78,1-.23-12.3-1.9-28.26s-4-34.54-5.56-44.06c1.22,6.35-1.67-16.69-.16-9.26-2.78-21.84-6.16-41.76-6.26-37.86a455,455,0,0,0-10.57-58c-2.2-8.87-4.54-17.14-6.9-24.57s-4.73-14-7.13-19.59a50.34,50.34,0,0,0-3.53-5.61,27.68,27.68,0,0,0-4.8-5.19,14.39,14.39,0,0,0-7.46-3.31,12.7,12.7,0,0,0-4.36.33,14.9,14.9,0,0,0-3.72,1.59,23.54,23.54,0,0,0-5.43,4.59,43.39,43.39,0,0,0-3.94,5.17,87.54,87.54,0,0,0-6,10.82,217.89,217.89,0,0,0-8.8,22.15c-2.54,7.41-4.81,14.82-6.94,22.21-4.24,14.78-7.92,29.46-11.36,44s-6.6,29-9.65,43.4c-.43-1.18,3-17.06,6.52-32.33s7.27-29.91,6.27-28.87c-6.68,27.14-11,48.72-15.27,70.21s-8.39,43-13.89,70c-2.94,14,1-8.08,1.71-12.86-10.31,54.7-20.39,105.64-30,154.14a29,29,0,0,1,.52-3.38c.37-2,.84-4.5,1.3-7-1.94,9.56-5,22.1-4.12,21.16l1.86-9.31c2-7.51.53,2.05-1.65,13.69s-5.17,25.33-5.18,26.23c1.13-8.25-1.82,3.61-5,14.1a126.54,126.54,0,0,1-4.13,12.11c-.92,2-.9,1.09.53-5.27-.91,3-1.93,6.45-2.67,8.93s-1.18,4-.72,3.43a39.42,39.42,0,0,1-3.68,7.46c-.48.51.24-.8,1.85-5.17a44.4,44.4,0,0,1-4,7.89c-.16.22-.32.44-.48.64a2.43,2.43,0,0,1-.22.29.64.64,0,0,0-.11.13,3.33,3.33,0,0,1-.42.42,1.53,1.53,0,0,1-.93.38,1.49,1.49,0,0,1-.89-.42,2.58,2.58,0,0,1-.32-.34,3.07,3.07,0,0,1-.31-.43,20,20,0,0,1-1.52-3.08,51.51,51.51,0,0,1-1.94-5.9c-1.07-4.2-2.27-9.64-3.53-21.94.3.09,1.08,6.38,1.89,9.53-1.34-7.8-2.35-15.74-3.18-25s-1.42-20-1.71-33.34c.23,1.6.35-1.51.62,6.45-.85-22.91-1.46-42.47-1.9-62.59s-.61-40.82-.18-66c1.2,14.87.53-17.14,1.68-19.8l-.11-27.11L1855,978c.22-23.74-.39-44.73.12-65.15l.32,17.66.08-44.51-.57,25.19c-.43-24-1.41,2.56-1-29,.1,6.42.1-23.76.67-36.14V846c-.42-11.75-.86-23.83-1-41.4.25-4.57,1.32,3.65,1.49.67-.6-5.79-1-19.7-1.82-34-.42-7.15-1-14.4-1.71-20.76a110.44,110.44,0,0,0-2.68-15.44,20.56,20.56,0,0,0,1.26,4.1c.26.45.38.08.31-.74a71.54,71.54,0,0,0-2.94-9.52,21,21,0,0,0-.72-2c-.15-.36-.28-.71-.44-1l-.49-.94a7.43,7.43,0,0,0-2.32-2.59l-.66-.3-.65-.18a3.6,3.6,0,0,0-1.19,0,5,5,0,0,0-1.65.61,10.31,10.31,0,0,1-1.28.77c-.1,0,0-.35.48-.8a12.07,12.07,0,0,0-2.65,2.95c-.16.25-.37.54-.5.74s-.23.39-.34.58c-.23.38-.43.74-.62,1.09-.76,1.4-1.28,2.58-1.7,3.55a34.29,34.29,0,0,0-1.38,3.64c-.32,1.16.23.16.72-.66s.9-1.45.21.4-2.43,6.2-5.4,15.6c.85-3,.26-1.6,2.14-7.79-3.19,9.41-5.68,18.81-8,28.11s-4.35,18.51-6.31,27.64c-3.91,18.25-7.42,36.17-11.09,53.92-1.57,5.14-.13-2.64,1.33-10.23s2.94-15,1.26-9.07c-10.13,51.31-18.76,106.61-28.24,156.27l1.83-9.24c.28,7.18-7.56,36.89-11.84,62.09,1.11-6.16.73-8.22.58-6.53-2.13,10.38-4.25,20.9-6.64,32-1.21,5.54-2.48,11.23-4,17.06-.26,1-.53,2-.79,3.08-.24.88-.49,1.78-.78,2.69s-.59,1.86-1,2.79a10.93,10.93,0,0,1-.65,1.39c-.26.41-.56,1-1.1,1a.93.93,0,0,1-.62-.57,4.91,4.91,0,0,1-.32-.83,16.3,16.3,0,0,1-.37-1.77c-.18-1.21-.3-2.49-.4-3.81,0-.68-.07-1.35-.11-2l-.09-2.47q-.09-3.24-.11-6.6c-.06-9,.14-18.51.46-28.67l.16,6.51c1.06-20.35,2.88-53.62,4.48-75.61,0-6.55.89-19.13-.2-11.52,3.35-33.84,5.26-66.2,6.77-97.63q1.14-23.56,2-46.52.43-11.5.87-22.89c.25-7.6.49-15.17.45-22.79.3,7.28.49,17.29.54,11.53q0-3.4-.1-6.81l-.11-3.42-.08-1.71,0-1.07-.08-1.21a46.28,46.28,0,0,0-1.23-8.87,15.26,15.26,0,0,0-1.25-3.11,3.88,3.88,0,0,0-2.26-2.13,3.59,3.59,0,0,0-2.5,1.33,14.72,14.72,0,0,0-1.79,2.36,34.89,34.89,0,0,0-3.09,7.06c-.46,1.32-.89,2.7-1.26,3.91l-.86,2.94c-.56,2-1.1,3.93-1.61,5.9a50.42,50.42,0,0,0,2.21-5.89l.66-2c.28-.81.59-1.7.92-2.68a50.34,50.34,0,0,1,3-7,63.24,63.24,0,0,0-2.32,6.77l-.59,2c-.18.64-.36,1.31-.54,2-.36,1.35-.73,2.76-1.11,4.22-1.5,5.85-3.08,12.48-4.56,18.67,5.11-22.55-1.24-.1-3.77,9.58.58-1.59,0,1.8.44,1-3.56,13-3.41,14.15-3.53,16.53s-.45,6-4.62,23.81l0-2c-2.63,13.46-4.69,25.93-7.78,40.39-2,5.85,2.58-14.37,2.12-15.42-4.14,20.34-6.74,40.45-11.49,58.65,1.65-8.66,4.25-21.08,5.81-29.76-5.09,19.85-5.34,22.22-8.72,37l.34-1.46q-2,8.56-4.08,17.08l-2.16,8.49-1.13,4.23-.43,1.51-.33,1.13.37-1.13.19-.59.29-1,1.22-4.29c-.18,1.07-.37,2.14-.56,3.22s-.35,1.9-.53,2.86c-.27,1.52-.63,3.19-1.05,4.94s-.93,3.58-1.54,5.42a28.39,28.39,0,0,1-1,2.73,9.08,9.08,0,0,1-.69,1.31c-.27.38-.59.87-1.09.88s-.66-.59-.82-1a8.4,8.4,0,0,1-.34-1.31,25.13,25.13,0,0,1-.34-2.78c-.14-1.89-.18-3.83-.19-5.81s0-4,.08-6c.08-2.44.16-4.91.24-7.43.4-10.09,1-20.81,1.31-32.45-.52,17-.34,18.42-.07,15.92s.8-8.93,1.16-7.6c.83-8.9,2.12-22.42,2.09-18.55.48-16.54,2.67-27.48,3.39-50.85.38-1,1.37-17.65,1.82-13.88,1.37-21.48-.88,5-1.12,3.21.74-16.58,2.51-36,3.89-57.29.67-10.65,1.29-21.77,1.25-33.29,0-2.88-.08-5.78-.23-8.72l-.15-2.21-.09-1.12-.11-1.19a34.9,34.9,0,0,0-1-6.12,10.29,10.29,0,0,0-2.33-4.44,3.42,3.42,0,0,0-1-.69,2.4,2.4,0,0,0-1.27-.28,4,4,0,0,0-2.19.93,13.31,13.31,0,0,0-3.38,4.16c-.51.88-1,1.83-1.4,2.77l-.63,1.44-.46,1.14c-2,4.86-3.42,9.28-4.7,13.32s-2.34,7.73-3.29,11.16c-1.91,6.85-3.39,12.67-4.82,18.41-2.82,11.48-5.67,22.57-10.13,41.13-1.79,6.19-1.41,3.57-.57-.6s2.18-9.88,2.18-9.88c-5.68,20-9.15,35.3-13,54.52.58-3.93-.5,0-2.06,5.8-3.12,15.41-1.11,10.51-5.58,30.75.37-3.55.74-8.13,1.92-15.63-1.71,9.11-3.27,18.19-4.9,27.32-.82,4.56-1.65,9.15-2.63,13.7-.5,2.28-1,4.57-1.73,6.72a14.16,14.16,0,0,1-.59,1.52,4.66,4.66,0,0,1-.32.6c0,.05-.11.17-.12.15h0a1.4,1.4,0,0,0,.16.22.76.76,0,0,1,.17.35s0,.08,0,.1v0a.42.42,0,0,1,0-.1s.06-.1.1-.14l.16-.16c.2-.19.16-.12.15-.16a2,2,0,0,1-.22-.48A9.55,9.55,0,0,1,1653,950c0-1.21.09-1.14.3-.26a15.64,15.64,0,0,0,.49,1.68,1.62,1.62,0,0,0,.17.33l0,0a3,3,0,0,0-.32.24,1.75,1.75,0,0,0-.5.51c-.07.16,0,.08-.05,0a1.87,1.87,0,0,0-.1-.25c-.06-.1-.13-.15-.26-.36a2.2,2.2,0,0,0-.2-.23c-.07-.07-.17-.16-.14-.12s0,0,0-.05a1.12,1.12,0,0,0,.09-.17,15.65,15.65,0,0,0,1-2.84c.31-1.12.59-2.31.85-3.47.52-2.33.94-4.59,1.22-6.24-.55,2.61-1.16,5.42-1.92,8.24a23.77,23.77,0,0,1-1.34,3.91c-.06.14-.11.2-.16.3s0,0,0,.06,0,0,0,0a2,2,0,0,0,.2.17,1.62,1.62,0,0,1,.32.32c.42.51.46.72.45.79s.1-.31.57-.63a3.69,3.69,0,0,1,.4-.29l.23-.13s0,0,0,0l0-.07-.11-.33a7.08,7.08,0,0,1-.22-.93,39,39,0,0,1-.48-4.5c-.1-1.56-.16-3.14-.21-4.71-.1-3.15-.13-6.29-.17-9.3-.11-12.09-.37-22.36-.84-25.68,0,4.61-.13,9.23-.24,13.84,0-7.86.71-4,.83,1.76.26,9.24.15,15.88.07,20.32s-.15,6.69-.23,7.21c-.52-4.41-.56-9-.66-13.52-.21,1.75-.35,3.92-.41,6.43a53.49,53.49,0,0,0,.38,8.44,6.08,6.08,0,0,0,.67,2.19.64.64,0,0,0,.39.29.61.61,0,0,0,.44-.18,3.18,3.18,0,0,0,.68-1,28,28,0,0,0,1.66-4.88c.9-3.44,1.64-7.1,2.38-10.88,2.85-15.12,5.57-32,8.45-45.44l-1.08,11.48q2.3-13.92,4.79-27.81c1.62-5.79,3.17-9.64.44,3.65,2.4-9.56,3.28-13.82,4.08-17.76s1.54-7.53,3.88-15.66c.55-1.79.41-.95,0,.74q2.1-9.39,4.37-18.74c-.69,3.71,1.65-2.88-1.48,8.51,4.62-16.62,8.24-30.07,11.09-40.94S1698,775,1700.51,769l-.82,2.76c1.77-5.7,3.23-10,4.41-13.25s2.13-5.54,2.56-6.59c1.06-2.46,1.21-2.82,1-2.9s-.53.17.3-1.6a10,10,0,0,1,1-1.63,5.31,5.31,0,0,1,.94-1,1.86,1.86,0,0,1,1.54-.45,2.48,2.48,0,0,1,1.4,1.24,9.47,9.47,0,0,1,.93,2.07,31,31,0,0,1,1.28,6.21c0,.6,0,1.07,0,1.59l0,1.52c0,1-.08,2-.13,3.05-.11,2-.26,4-.43,6.06-.34,4-.76,8-1.24,12.06l.79,4.73c-.17,4.94-.71,14.7-1,12.87-.32,18.41.57-3.11.6,7.59-2.07,23.72-4.14,65.52-6,70.76,0,8.57,2.29-22.66.81,2.72-2.11,7.1-2,29.31-4.3,51-.34-6.73,1.61-27.25-.71-5.59.22,6.6-.61,17.15-1.46,28.38-.42,5.61-.84,11.39-1.11,16.94l-.09,2.15c0,.93-.06,1.85-.08,2.75,0,1.83-.07,3.62,0,5.33s.09,3.31.21,4.76a30.71,30.71,0,0,0,.54,3.64c.12-.16.31.35.62,1.32.15.49.33,1.1.59,1.8a9.34,9.34,0,0,0,.49,1.1,1.93,1.93,0,0,0,1.1,1,1.56,1.56,0,0,0,1.09-.49,6,6,0,0,0,.78-.88,17.11,17.11,0,0,0,1.31-2.22,45.31,45.31,0,0,0,2.57-6.17c.86-2.56,1.72-5.5,2.55-8.59.37-1.4.74-2.82,1.12-4.27s.67-2.68,1-4c2.7-11,5.39-23.18,7.64-34.33,0,1,3.16-13.15,7-31s8.44-39.55,11.6-53.51v.86c.09-5.64,6.27-34.53,11.36-55.39.45,1-.31,4.77-2.67,16.16,1.53-6.55,3.1-13.09,4.81-19.57.44-2.34,1-5,2-8.69.23-.84.47-1.73.74-2.68.2-.73.41-1.44.67-2.26s.56-1.68.93-2.61a14.08,14.08,0,0,1,1.44-2.88,20.85,20.85,0,0,0-1.24,4.58,18.12,18.12,0,0,1,.77-1.68,6.67,6.67,0,0,1,.5-.8,1.05,1.05,0,0,1,.77-.49c.41.08.59.5.74.85a8.2,8.2,0,0,1,.33,1.13,22.31,22.31,0,0,1,.37,2.38c.1.81.17,1.65.23,2.51l.11,1.93c0,.78.07,1.56.1,2.34.24,6.29.27,12.76.2,19.44-.16,13.37-.73,27.62-1.8,43.37.66,2,3.56-27.4,2.16,9.2-.49,1.34-1.27,2.65-.92-6.93-.11,3.14-.26,11.19-.81,17.5l.12-14.65c-1.18,15.73.13,8.27-.67,20.85-.57-.28-1,9.29-1.34,7.46.14-3.22.9-11,1-15.8-.92,14.19-2.36,31.31-3.17,37,.41-1.21.8,0,.2,10.45-1.71,26.86-1.31,9.14-2.64,24.79,0,6.53-1.57,23.64-.71,24.14a95.65,95.65,0,0,1-1.46,12.31c-.25,7-1.26,23.2-1.9,35.76s-.93,21.41,0,13.59l.26-3.56c0,.67,0,1.46-.09,2.28v0c-.53,13.63-1.07,27.59-1.61,41.66-.24,7-.44,14.11-.45,21.2,0,1.82,0,3.38.07,5.68.06,2.13.14,4.28.33,6.32a33,33,0,0,0,.89,5.53,16.29,16.29,0,0,0,.75,2.33,5.38,5.38,0,0,0,.58,1,1.74,1.74,0,0,0,1,.79,2.17,2.17,0,0,0,1.5-.74,8.31,8.31,0,0,0,1-1.22,22,22,0,0,0,1.64-2.9,51,51,0,0,0,2.84-7.62c.42-1.4.83-2.85,1.22-4.25l.92-3.43c.59-2.29,1.16-4.57,1.71-6.86,2.19-9.13,4.1-18.22,5.85-27.17l.28.13c5.07-26.59,11.17-59.17,14-78.28,1.45-7.87,3.94-18.47,3.67-15,3.51-20.37,3.58-22.72,9.5-52-3.28,20.53,1.74-7-3.5,21,5.13-26.36,6.68-32.25,11.3-60.72-1.11,9.78,4.75-19.66,7.1-32.2l-4.21,18.34c2.66-14.1,5.22-26.38,7.93-38.83l-.45,6.94c3-13.36,5.94-26.07,8.71-38.26s5.55-23.77,8.85-34.72c.83-2.74,1.7-5.42,2.66-8a63.24,63.24,0,0,1,3.2-7.48c.15-.29.3-.58.46-.85l.24-.41.19-.33a7.34,7.34,0,0,1,.6-.86,1.69,1.69,0,0,1,3.23.28c.17.31.31.63.45,1l.28.8q.16.44.3.9a85.79,85.79,0,0,1,2.76,15.43c.53,5.23.82,10.46.94,15.66.82,7.19.52-.23,0-7.82s-1.57-15.26-.27-9a334.57,334.57,0,0,1,1.85,36.06c.07,10.71-.1,19.27,0,23.22.09,17.28.48,25.34,1,33.61s.89,16.75.68,34.86c.35-4.63,1.35-9,1.58,18.07-.26,25.31-1.69,31.09-1.86,15.12,0-6.07.14-9,.25-8.74-.08-8.17-.2-18.89-.62-8.88l.34,3.28c-.41,12.55-.65,47.35-1.17,39.17.18,19.12.52,8.18.82-6-.78,32.44-.48,50.7-1.06,84.1.24-5.31.69-10.2.65-4.91-.39,24.5-.21,29.9,0,33.32s.53,4.86.61,21.47c-.5,18.87-1.36-6.77-.74,26.67-.18,20.43-.92,4.33-1.26-3.78.86,30.46.38,57,1.14,74.43q-.54-8-1-16.08c.5,9.62.86,17.5,1.34,25.53l.21-9.23c.32,9.45.93,17.45.62,17.3.6,4.85.76,3,1,2.27s.58-.17,1.81,9.43a166.51,166.51,0,0,0,2.72,20,67.49,67.49,0,0,0,2.86,10.39c.32.81.65,1.59,1,2.34.18.39.39.72.63,1.15a9.39,9.39,0,0,0,.89,1.25,8.7,8.7,0,0,0,2,1.93,7,7,0,0,0,2.3.9,6.81,6.81,0,0,0,3.47-.64,16.61,16.61,0,0,0,2-1.21,8.62,8.62,0,0,1-3.16,1.9,8,8,0,0,1-1.37.25h-1c-3-.38-4.79-2.9-5.82-4.6a25.85,25.85,0,0,1-1.72-3.78c-.77-2.06-1.11-3.27-1.35-3.93-.45-1.33-.35-.44-.24.46s.21,1.8-.32.44-1.69-5-3-13.05c.56,3.24,1.2,6.85,2.2,10.88a54.15,54.15,0,0,0,2,6.42c.25.57.44,1.14.75,1.74a17.49,17.49,0,0,0,1,1.9,10.27,10.27,0,0,0,4.32,4.07c.55.24.69.32.53.28s-.24-.06-.47-.14a3,3,0,0,1-.82-.35,10.51,10.51,0,0,1-1-.65l-1.13-1-1.08-1.3a5.14,5.14,0,0,1-.5-.72l-.38-.61c.14.24.38.69.64,1.08l.84,1.08.42.53.47.44a11.46,11.46,0,0,0,.93.81,9.11,9.11,0,0,0,3.61,1.49h1.25l1.2-.17a8.76,8.76,0,0,0,2.2-.86,11.21,11.21,0,0,0,1.89-1.36,6.81,6.81,0,0,0,.84-.78l.67-.73a28,28,0,0,0,2.85-4.16,49.87,49.87,0,0,0,2.89-6.06,63.45,63.45,0,0,0,2.43-7.44c.58-2.16,1.21-4.53,2.3-8.62s2.69-9.83,5-18.82c-.73,5,3.27-8.59,4.6-14.87-1.85,7.71-2.55,9.49-2.35,7.58s1.24-7.53,2.67-14.64c3-12.22,4.35-18.92,5.35-24.16s1.62-9,3-15.47l-3.27,14.66c.54-5.09,3.2-17.36,6.48-34.56.71-1.39-2.87,15.64-1.45,9.55,3-19.23,9.52-42.89,14.06-69.61,2.75-12.25,1.22-1,3.56-11.78,5.13-29.93,7-32.13,12.69-63.52-2.51,8.87-2.69,10.48,1.11-11.67q-5,25.74-9.78,51.53l5.52-33.22c-3.13,15.51-6,32.85-8,42.14,2.51-15.86,2.37-14.2.33-6.88,5.22-21,7.67-42.27,13.49-66.64l1.58,1.11c4.23-18.33,7.54-34.7,11.37-52.4,1.91-8.84,4-18,6.39-27.9s5.23-20.5,8.82-32.13c-1.6,5-3.12,10-4.61,15a184.91,184.91,0,0,1,5.08-18.79c2.55-8.3,5.76-17.57,8.48-24.94,0,1.57,3.71-7.53,7-13.25a24.85,24.85,0,0,1,2.21-4.67c.78-1.43,1.74-3.11,2.88-4.83a37.66,37.66,0,0,1,3.92-5.08,14.91,14.91,0,0,1,4.7-3.53,5.84,5.84,0,0,1,4.38-.08,13,13,0,0,1,3.58,2.25c1,.81,1.66,1.51,2.09,1.82a49.28,49.28,0,0,1,5,9.14c1.39,3.25,2.6,6.6,3.68,10,3.18,9.17,5.18,16.6,7,23s3.16,11.77,4.51,17.12a398.18,398.18,0,0,1,8.06,40.05c-1.22-5.59-1.25-4.11-1.54-4.37s-.78-2.24-3.21-14.68c1.12,6.22,2.07,12.14,2.8,16.53s1.24,7.23,1.46,7.3c.38,3.68,1.89,12.31,3.34,21.51s2.86,18.92,3.3,24.73c.91,5.27,1.76,6.92,3.36,21,.06,1.55-.3,0-.3,0,.32,0,2.89,22.07,2.16,9.65,1.26,19.49,4,46.6,6.52,73.13s4.71,52.43,5.26,69.43c2.4,27.54,5,60.75,6.87,85.79-.29-1.59-.3-.06-.58-4.8,1.92,34.58,3.21,21.12,5.37,60.47.46,20.15-2-20.84-1.46-8.29-1.56,5.59,3.57,47.43,4.44,74l-.59-6.4c.42,10.13,1.54,22.46,3,36.38.71,7,1.5,14.31,2.36,22s1.77,15.68,3,24c0,0-.42-1.58-.32-.15.56,2.82,1.15,5.94,2.1,9.38a27.53,27.53,0,0,0,.9,2.7,9.46,9.46,0,0,0,.81,1.57,4.2,4.2,0,0,0,.37.49l.26.27c.12.1.25.21.38.3a2.31,2.31,0,0,0,.55.29,2.36,2.36,0,0,0,.74.18,2.6,2.6,0,0,0,1.49-.33,3.22,3.22,0,0,0,1.18-1.2,5.31,5.31,0,0,0,.44-.91,12.82,12.82,0,0,0,.5-1.57c.25-1,.43-2,.58-3,.59-3.94.89-8,1.17-12.19s.46-8.51.63-12.9c.65-17.56.9-36.25,1.05-52.19.59,9.93.12,14.49,1,8.45.15-14.29-1.27,4.16-1.06-24.35.56-9.27,1.11-29.83,1.95-32.55l-.22,26.9c1.24-13.77.3-34.83.55-49l.46,1.82c0-41.23-1.18-41.8-1-86.1l-.36,4.58c-1.16-24.2.66-20.29-.21-44.44l1.18-7.31c-.28-16-1.15-55.94-1.32-84.59.84,16.23,1.28,49.75,1.8,70.49,0-15.84-.07-53.8-.64-62,.11,6.38.39,14.42.2,20.72-.91-19.43-1.35-45-1.17-76.53,1.14,2.8,1.37-17.75,1.69-41.86s.84-51.77,2.07-63.16c.15-12.18.47-24.31,1.1-36.48.32-6.08.71-12.18,1.3-18.25l.16-1.55.1-.86c.08-.58.16-1.15.25-1.71s.2-1.11.34-1.65c.08-.27.16-.53.26-.79s.23-.54.53-.59.52.53.68.85.26.71.37,1.07c.21.71.37,1.43.52,2.14l.21,1,.28,1.49c.38,2,.73,4,1.07,6,1.35,8,2.5,16.26,3.61,24.63,2.21,16.75,4.21,34.11,6.28,52.28-.4-11.55.15-6.84,1,.24s1.85,16.53,2.55,14.44c1.73,15,2.28,20.79,2.3,22.15q1.82,22.88,3.45,45.76c.52,10.88-1.78-14.29-2.07-12.86,3.06,33,.57,13.91,2.16,35.79.23-4.54,2,11.39,3.48,30.23l-1.6-26.57c5.23,46,2.15,40,7.19,86.44l-1.86-14.66c2.47,23.84,7.52,88.07,10.88,111.37.13,4.24.09,9.87-.91-.64,4.48,57.1,11.68,127,14.21,171.44l-.79-4.3c.24,2.66.51,5.15.78,7.59l.21,1.84.11.93.07.49,0,.16,0,.16v.06a3,3,0,0,0,.18.67,3.23,3.23,0,0,0,.81,1.23,3.4,3.4,0,0,0,2.54.94,3.23,3.23,0,0,0,1.23-.33,3.33,3.33,0,0,0,1.33-1.16,3.4,3.4,0,0,0,.54-1.44,3,3,0,0,0,0-.43v-.41c-.13-1.23-.26-2.48-.4-3.74-.53-5-1-10.27-1.36-17,.24.67.8,4.25.42-.68-.62-5.63-3.12-28.23-4-42.36l1.5,12c-4-55.73-8.2-85.36-12.19-132,1.32,0-1.67-43.84-3.09-65.73l.24.75c-2.36-32.44-4.64-60-6.86-86.9s-4.42-53.25-6.39-83.3c-.16-9.35-.64-21.92-1.13-36.46-.25-7.27-.5-15-.68-23.1-.08-4-.14-8.16-.15-12.33s0-8.4.28-12.55c.06-1,.14-2.06.25-3,.06-.48.12-1,.2-1.39a5.91,5.91,0,0,1,.23-1c.31.11-.77-.32-1.25-.57-.31-.19-.51-.27-.72-.42a5.74,5.74,0,0,1-.5-.4l-.14-.16a.5.5,0,0,1-.08-.14s0-.09,0,0v0a.19.19,0,0,1,0,.08.74.74,0,0,1-.08.15.79.79,0,0,1-.14.23l-.08.09-.12.15a8.88,8.88,0,0,1-1.34,1.14l-.47.34,0,0,0,.05a4.34,4.34,0,0,1,.2.39,23.71,23.71,0,0,1,.94,2.66c1.19,3.94,2.12,8.24,3,12.5,1.78,8.56,3.32,17.24,4.78,25.8,2.9,17.12,5.41,33.77,7.49,48.64-1.16-9.11,1.26,1.31,3,11.86,1.86,14,6.64,38.42,5.11,36.38l-.71-5c.38,10.69,4.84,39.32,8,61.73l2.09,3.48c3,29.46,8.62,67.84,13.81,102.88s10,66.74,11.4,82.88c2.49,14.08,5.14,31.6,7.83,45.54l-1-.62c1.56,9.8,3,18.36,4.61,26.51.41,2,.84,4.05,1.37,6.1.27,1,.54,2,1,3.25.11.3.24.63.41,1l.16.32.21.37a5,5,0,0,0,.32.47l.23.29a3.72,3.72,0,0,0,.4.41,3.81,3.81,0,0,0,.64.49,5.05,5.05,0,0,0,.51.28,4,4,0,0,0,.64.23,4.23,4.23,0,0,0,1.87.08,4.31,4.31,0,0,0,.91-.27,3.48,3.48,0,0,0,.71-.4,4.66,4.66,0,0,0,.87-.78,3.94,3.94,0,0,0,.38-.53l.16-.26.08-.17.16-.34a8.33,8.33,0,0,0,.43-1.53,27.76,27.76,0,0,0,.32-3.52c0-1.06,0-2.08,0-3.11,0-2,0-4-.11-6.08-.6-16.16-1.93-33.28-4-57.69l1.41,9.91c-2.17-27.55-5.32-34.56-7.6-59.92l.58-7.74c-4.31-48-7.77-96.6-13.26-143.86.25.76.75,2.13,1.51,9.89-1-11.29-2.87-33.12-4.43-51.11s-3.07-32.09-3.58-27.91c.55-.33-.52-12.7-2-28.23s-3.3-34.19-4.36-47.13l1.1,4c-1.25-10.89-1.89-16.51-2.35-23.2-.11-1.67-.21-3.41-.26-5.3q0-1.41,0-2.94a19.09,19.09,0,0,1,.2-2.95l0-.11v0h0l-.08,0a3,3,0,0,1-1.4-.84s0-.09,0,0,0,0,0,0a.36.36,0,0,1,0,.11s0,0-.07.1l-.12.16-.33.31a2.88,2.88,0,0,1-.43.33l-.23.17h0l0,.06a8.62,8.62,0,0,1,.6,1.45c.4,1.17.78,2.5,1.15,3.92.74,2.85,1.47,6.12,2.25,9.85,1.26,7.14.59,6.34-1.09-3.11,2.17,11.84,3.1,16.47,4.24,21.7s2.32,11.11,4.45,25.62l-2.29-10.7c4,24.57,3.86,22.58,6.61,36,2.75,15.42,6.88,46.73,6.67,50.48.95,3.25,3.55,16.65,5.46,31.2,0,2-.94-3.26-1.42-5.91,5.46,41.28,9.85,61.14,13.1,89.6a19.74,19.74,0,0,0,.19,4.86c-4.66-32.75-8.43-59.12-8-56.66-.76.11,2.92,26.57-1.17,5.69,3.64,21.14,10.08,57.27,13.4,83.1.11,1.26.21,2.49.22,3.45l-.46-2.66c.77,6,1.6,11.28,2.45,16.28,1.05,8.25,1.7,13.49,2.82,21.39-.2,3.14,4,30.39,5.89,43.58.68-1.21,3.06,16.08,1.39-.2.25,2.1-.46-2.48-1.76-11.24-.32-2-.66-4.32-.9-5.61.06.25.13.55.2.89-1.26-8.66-2.89-20-4.76-32.78,1.92,10.36,3.83,21.19,5.47,35.84,1.51,6.7,3.15,14.06,4,18.22.73,9.11,2.22,22.38,3.61,34,.71,5.82,1.38,11.22,1.91,15.47l.74,5.5c.11.76.2,1.43.34,2.1,0,.17.08.35.14.57s.08.25.15.44.12.25.19.37l0,0,.08.13.19.27c.07.08.13.16.21.24l.11.11.05.06.11.1a3.4,3.4,0,0,0,2.71.78,3.43,3.43,0,0,0,2.35-1.49,4.24,4.24,0,0,0,.3-.56,2.49,2.49,0,0,0,.11-.29l.06-.18a4.79,4.79,0,0,0,.14-.61l.07-.53c0-1,0-1.55-.07-2.25l-.15-2-.38-4q-.42-4-.86-8.06c-.63-5.42-1.28-11-1.93-16.6-1.33-11.23-2.74-22.65-4.14-33.6-2.8-21.9-5.57-41.9-7.88-54.5a127,127,0,0,1-1.42-17.58c1,6.61,1.89,14.5,2.55,18.06-3.17-22.92-8.38-68-10.14-73.36-3-29,3,16.14-2-23.6l1,5.32c-3.83-39.22-8.33-70.93-12.77-103.72-2.21-16.4-4.42-33.08-6.42-51.1-1-9-1.95-18.36-2.71-28.17-.18-2.45-.36-4.94-.5-7.45s-.26-5.07-.19-7.52c0-.3,0-.6.06-.84a2.13,2.13,0,0,1,0-.24c-.12,0-.53-.16-.72-.22a2.47,2.47,0,0,1-.51-.23.38.38,0,0,1-.13-.12s0,0,0,0,0,0,0,.07a.4.4,0,0,1-.11.14,2.27,2.27,0,0,1-.46.38l-.35.23c-.09.06-.3.18-.25.14l0,.09c0,.08.08.21.12.34s.17.55.25.84c.32,1.2.59,2.48.86,3.76.52,2.58,1,5.22,1.44,7.9-1-6-1.64-8.87-1.76-10.08,1.37,6,2.44,12.15,3.55,18.3s2.12,12.36,3.18,18.57q3.08,18.66,6.19,37.49c4.07,25.12,8.16,50.4,12.24,75.64,8.09,50.5,15.94,100.88,22.77,149.55,4,27.65,5.21,30.53,8.45,47.28l.09,6.12c1.94,9.54,3.81,19.07,6.06,28.59.15.64.29,1.28.46,1.92.09.32.17.64.29,1a3.11,3.11,0,0,0,.12.3.93.93,0,0,0,.1.21c0,.06,0,0,.1.17l.13.15c.07.06,0,0,.29.22a1.12,1.12,0,0,0,1.4-.27.92.92,0,0,0,.16-.24c0-.06.05-.11.07-.17a2.42,2.42,0,0,0,.07-.32c0-.12,0-.24,0-.33,0-1.45-.14-2.64-.24-3.92q-.39-3.75-.76-7.4c-.52-4.87-1-9.62-1.52-14.33-1-9.42-1.89-18.67-2.87-28.27-2-19.18-4.26-39.7-8.42-65.55l.28,6.77c-2.35-18.65-8.24-59-7.13-55.94a100.24,100.24,0,0,1-2.12-13.35l.39-.63-7-45.65c-4.49-35.51,2.63,5.3-4.34-46.46-2.81-19.22-8.87-54.59-8.19-47.33,1,7.77,2.42,19.88,2,20.52l-2.65-17.56c-1.83-3-5.09-16.33-.15,27l5,30,.65,9.79-3.5-25.32c1.34,14.45,3.14,23.48,4.91,33.63a118.69,118.69,0,0,0,1,12.71l5.33,29.37c-.06,3.65-2.87-13.11-.49,6.76,2.49,13.76-.58-13.44,2.92,9.42,1.32,14.49.24,10.36,3.05,27.18,0,2.43-.74-1.12-1.8-7.8,2.45,15,5.51,39.79,7.28,47.46,1.23,15.11,6.88,50.78,5.37,49.47.93,4.69,4.45,26.38,6.18,40.2-2.36-12.54-.72.41,1,15.66.41,3.8.84,7.79,1.09,11.42,0,.44,0,.87.07,1.3v.67l.45,0,.56,0c.35,0,.69.06,1,.11l.25,0,.19,0,.36.06c.12,0,.26.08.34.09a.57.57,0,0,1,.22.07c.17.08.1.12.15,0s.08-.11.14-.14a2,2,0,0,0,.23-.14,3.93,3.93,0,0,1,.65-.32c.3-.15.61-.28.92-.4l.48-.17.59-.23.2-.08h0l0-.06-.12-.47-.26-1.17c-.33-1.62-.61-3.21-.85-4.66-.95-5.8-1.31-9.39-.61-7.8-4.66-18.26-11.52-67.07-17.43-99.93.4,1.83,1.19,5.42,1.57,8.34-2.78-18.59-3.19-24-4.78-36-1.53-2.2-6.29-31.09-9.44-46.57-2.42-22.94,3.52,13.62,3.48,6.3-.76,1.29-7.1-39.41-6.68-31.54-2-17.52-2-15.06-2.45-24.18-1.94-2.82-2.8-16.17-6-30.46-3.3-25.3.34-6.7-4.55-34.3C2207,961.76,2211.53,986.28,2211.53,986.28Zm3.07,164.9h0c.83,5.67,1.54,10.51,2,13.6C2216.18,1162,2215.61,1158,2214.6,1151.18Zm-7.95-55.42c1,6.74,2.15,15.15,3.42,24,0,2-.61-.08-1.39-5.65C2209.3,1117.15,2207.6,1104.06,2206.65,1095.76Zm11,118c-1.38-8.75-1.63-11.71-1.63-12.94.62,4.14,1.34,9,2.3,15.33l.25,1A26.67,26.67,0,0,1,2217.63,1213.81Z"/>
            <path class="cls-2" d="M2221,1229.43c.2,1.26.31,2,.58,3.6-.2-1.8-.38-3.51-.57-5.26-.24-1-.49-2.13-.71-3.06C2220.54,1226.3,2220.78,1228,2221,1229.43Z"/>
            <path class="cls-2" d="M1751.07,1020l-.08,1.18c.09-1,.17-1.87.25-2.46C1751.16,1019.49,1751.13,1019.49,1751.07,1020Z"/>
            <polygon class="cls-2" points="2188.83 1226.38 2188.63 1226.49 2189.53 1231.3 2188.83 1226.38"/>
            <path class="cls-2" d="M1744.94,810.77c-.21.55-.54,1.67-1.11,3.9C1743.92,814.51,1744.38,812.82,1744.94,810.77Z"/>
            <path class="cls-2" d="M1717.21,941.05c-1.45,6.1-2.93,12.2-4.48,18.26C1714.78,951.44,1716.14,945.67,1717.21,941.05Z"/>
            <path class="cls-2" d="M1706.25,940a9.85,9.85,0,0,0-.24-2v.2Z"/>
            <path class="cls-2" d="M1896.07,1120c.27-1.35.53-2.68.77-3.87C1898.55,1107,1897.35,1113.21,1896.07,1120Z"/>
            <path class="cls-2" d="M1854.63,846c.18,5.14.34,10.22.44,15.58C1855.13,853,1855.11,846.29,1854.63,846Z"/>
            <path class="cls-2" d="M2045.75,909.94c0-.05,0,0,0-.05.14,1.15.27,2.17.42,3.32Z"/>
            <path class="cls-2" d="M1855,884.16c.2-8.63.18-15.84.06-22.54C1855,868.7,1854.91,877,1855,884.16Z"/>
            <path class="cls-2" d="M1653.88,924.33l0-4.94c0,.08-.1-.21-.13-.59Z"/>
            <path class="cls-2" d="M1653.8,918.8l-.1-5.49C1653.71,915.84,1653.71,918,1653.8,918.8Z"/>
            <path class="cls-2" d="M1653.36,901.74q.23,5.79.34,11.57C1653.7,909.31,1653.66,904.36,1653.36,901.74Z"/>
            <path class="cls-2" d="M1674.63,849.43l.07-1.58A3.61,3.61,0,0,0,1674.63,849.43Z"/>
            <path class="cls-2" d="M1684.93,809.46c-2.73,9.45-7.13,23.68-10.17,37.09l-.06,1.3c.53-3.19,2.52-10.53,4.69-18.18S1683.92,814,1684.93,809.46Z"/>
            <path class="cls-2" d="M1709.63,844.84c.92-11.47,1.8-22.94,2.56-34.41-.69,6-1.61,13.88-.74-1.77-1.81,21.66-1.56,19.43-1.11,17.42S1711.32,822.29,1709.63,844.84Z"/>
            <path class="cls-2" d="M1701.37,951.59c.94-18.55-.5.19-.61-.8-.18,5.9-.25,9.57-.17,10S1700.85,958.51,1701.37,951.59Z"/>
            <path class="cls-2" d="M1789.16,948.29l.41,2C1792,936.18,1789.31,950.07,1789.16,948.29Z"/>
            <path class="cls-2" d="M1813.35,802.34,1810,815.86l-.66,6.63Q1811.28,812.41,1813.35,802.34Z"/>
            <path class="cls-2" d="M1842.11,728.09a.75.75,0,0,0-.83-.14,1.87,1.87,0,0,0-.64.61,2,2,0,0,1,.61-.57.68.68,0,0,1,.78.1,2,2,0,0,1,.51.66c.08.13.13.26.2.4l.4,1.07a71.8,71.8,0,0,1,2.53,11.06c-.46-2.83-1-5.64-1.69-8.31a37.33,37.33,0,0,0-1.19-3.77A3.29,3.29,0,0,0,1842.11,728.09Z"/>
            <path class="cls-2" d="M2053.62,1060.48l.58-4.39C2053.21,1046.48,2052,1044.55,2053.62,1060.48Z"/>
            <path class="cls-2" d="M2094.3,1154.36c.48-6.11.79-21.89.32-31.61C2094.56,1135.36,2094.19,1147.94,2094.3,1154.36Z"/>
            <polygon class="cls-2" points="2160.4 1080.19 2158.51 1069.07 2161.74 1090.08 2160.4 1080.19"/>
          </g>
        </g>
        <g class="cls-3">
          <path class="cls-4" d="M474.88,489.64c-29-70.83-12.11-151.65-10.65-159.11C499.6,150.09,695.53,48.12,807.92,3.32l-.59-1.62-5.67-.56L798.83.87c-1-.1-1.9-.16-2.82-.19q-5.6-.24-11.21-.4C781.05.18,777.3.1,773.53,0c-1.87,0-3.77-.06-5.64,0L762.32.2c-7.42.31-15,.56-22.31,1.33-3.7.34-7.39.72-11.11,1.1s-7.45.75-11.09,1.35q-11,1.64-22.06,3.6c-1.84.33-3.69.64-5.52,1l-5.46,1.19c-3.63.81-7.28,1.63-10.91,2.5s-7.29,1.74-10.94,2.67-7.3,1.85-10.88,3c-7.18,2.16-14.38,4.41-21.56,6.82S616.08,29.6,609,32.44c-3.55,1.4-7.09,2.84-10.64,4.29s-7,3-10.54,4.63c-7,3.17-14,6.44-20.9,10.06s-13.84,7.23-20.61,11.21a424.2,424.2,0,0,0-77.88,57.61,379.86,379.86,0,0,0-34.84,37.08,375.83,375.83,0,0,0-30.52,42.84A356.54,356.54,0,0,0,361,300.68c-2.28,9-4,17.89-5.61,26.84-.71,4.47-1.41,8.94-2.06,13.42s-1.06,9-1.53,13.46a386.19,386.19,0,0,0-1.43,54A367.43,367.43,0,0,0,356.81,463l1.38,6.89,1.63,7c.58,2.34,1.08,4.62,1.74,7l2,7.09,1,3.53,1.14,3.63,2.35,7.23c.37,1.19.85,2.46,1.3,3.7l1.37,3.73,1.39,3.72c.44,1.21,1,2.5,1.51,3.81l3.29,7.74c.55,1.33,1.11,2.48,1.67,3.64l1.68,3.51c1.13,2.34,2.27,4.67,3.44,7s2.46,4.55,3.69,6.81l3.79,6.75c1.3,2.21,2.68,4.38,4,6.55l4.11,6.48,4.34,6.25a294,294,0,0,0,38.76,44.57,329.39,329.39,0,0,0,43.42,34.2A372.05,372.05,0,0,0,530.92,679a423.21,423.21,0,0,0,45.29,18.37c3.77,1.33,7.53,2.5,11.29,3.69l5.63,1.78c1.87.58,3.74,1.1,5.61,1.65s3.74,1.08,5.62,1.6,3.74,1,5.61,1.52l11.19,2.86c7.45,1.75,14.86,3.52,22.25,5s14.74,2.94,22.09,4.24c14.69,2.54,29.27,4.59,43.75,6.39,29,3.45,57.55,5.62,85.84,7.17,14.16.69,28.21,1.38,42.23,1.85l10.48.42,10.47.34,20.87.69c55.54,1.58,110.23,3,164.57,5.91q40.76,2.18,81.27,5.42c13.51,1.08,27,2.33,40.49,3.56l40.45,3.74q48.18,4.5,96.28,9.43l31.78-15-74.75-2.33C901.66,716.27,551.11,675.92,474.88,489.64Z"/>
          <path class="cls-4" d="M1464.23,1806.39c-179.42,18.69-204.47,59.43-403.44,106.9-245.42,58.55-550.46,131.33-762.07-24.14-115-84.49-198.45-233.47-196.55-386.21,1.86-150.29,86.07-281.44,165.51-351.72,79.78-70.59,181-103,294.93-110.7l38.09,2-12.3-15.33-3.43.08-10.28.35c-3.43.1-6.86.33-10.29.47-6.87.28-13.72.8-20.59,1.22-27.45,2-54.93,5-82.35,9.83l-5.14.87-5.13,1c-3.42.68-6.86,1.26-10.28,2-6.82,1.47-13.67,2.9-20.49,4.57l-5.12,1.22c-1.71.4-3.4.89-5.1,1.33L400,1052.83c-6.77,2-13.58,3.87-20.32,6.07-3.38,1.06-6.77,2.12-10.11,3.33s-6.75,2.28-10.1,3.48c-6.67,2.52-13.4,5-20,7.74l-5,2c-1.67.68-3.29,1.44-4.95,2.15-3.29,1.46-6.61,2.86-9.89,4.37l-9.8,4.66c-1.65.76-3.27,1.57-4.88,2.41l-4.84,2.48c-12.92,6.66-25.69,13.86-38.1,21.8s-24.61,16.42-36.31,25.43a610.09,610.09,0,0,0-66.21,59.29c-2.55,2.71-5.22,5.35-7.74,8.1l-7.62,8.26-7.45,8.43c-1.26,1.41-2.46,2.85-3.67,4.29l-3.67,4.3c-9.73,11.52-19.14,23.45-28.07,35.86-2.24,3.09-4.4,6.25-6.6,9.39s-4.33,6.34-6.45,9.55c-4.32,6.38-8.4,13-12.52,19.54q-12.1,19.9-22.76,41.14c-7.09,14.14-13.48,28.79-19.41,43.8l-4.29,11.35c-1.4,3.8-2.67,7.66-4,11.51-.66,1.93-1.34,3.86-2,5.8l-1.81,5.86-1.78,5.89c-.59,2-1.19,3.93-1.7,5.92l-3.17,12c-1.05,4-1.91,8.06-2.86,12.1l-1.39,6.09-1.22,6.13c-.78,4.1-1.62,8.21-2.34,12.34-1.33,8.28-2.75,16.61-3.65,25-1.07,8.4-1.66,16.79-2.33,25.24-.28,4.22-.44,8.43-.64,12.66l-.26,6.35-.06,6.33c0,4.22-.08,8.46,0,12.69l.33,12.69c.67,16.89,2.11,33.79,4.42,50.54a543.43,543.43,0,0,0,64.71,191.19q12.56,22.14,27,43.28c9.76,14,20.06,27.67,31.12,40.84,2.72,3.32,5.61,6.52,8.43,9.78l4.26,4.86,4.4,4.76c2.94,3.17,5.87,6.34,8.89,9.45l9.18,9.24,2.3,2.3,2.38,2.24,4.75,4.49,4.78,4.47c1.59,1.49,3.26,2.91,4.89,4.37,3.29,2.9,6.56,5.8,9.9,8.65l10.2,8.39c13.78,11,28.2,21.5,43.09,31.17s30.31,18.51,46,26.57a551.39,551.39,0,0,0,97,38.65c16.44,4.87,32.93,8.87,49.38,12.21s32.85,6,49.15,8c8.14,1,16.28,1.81,24.36,2.49,4.05.38,8.08.66,12.11.94s8.06.53,12.06.7c8,.41,16,.67,23.95.83s15.85.14,23.71,0c15.72-.26,31.29-.89,46.67-2,7.68-.57,15.35-1.18,22.94-2q5.71-.54,11.38-1.19c3.77-.43,7.57-.83,11.31-1.33,15.06-1.84,29.9-4.13,44.61-6.62,7.36-1.24,14.65-2.63,21.93-4s14.5-2.89,21.68-4.44c57.52-12.37,112.55-28.6,165.87-46.7q20-6.81,39.7-13.86c13.13-4.71,26.21-9.38,39.17-14.25s25.86-9.73,38.69-14.62l19.2-7.34,19.42-7.49,19.82-7.72c3.3-1.3,6.6-2.53,9.89-3.89l9.87-4.07,19.67-8.14,19.54-8.54,9.75-4.25,9.66-4.41c6.43-3,12.9-5.84,19.26-8.87l19-9,18.74-9.13,36.62-18,9-4.39,8.91-4.25c3-1.39,6-2.82,9-4.18l8.88-4,8.91-4,8.91-3.71c3-1.25,6-2.44,9-3.67s6-2.25,9-3.39c12-4.62,24.31-8.66,36.71-12.55l18.82-5.34c1.58-.44,3.14-.9,4.73-1.31l4.78-1.18,9.58-2.32c6.4-1.52,12.78-3.17,19.29-4.42l19.49-4,4.89-1,5-.9,10-1.81c6.65-1.22,13.3-2.35,19.93-3.49s13.27-2.24,19.91-3.27,13.25-2.09,19.89-3,13.26-1.83,19.89-2.69l10-1.19,10-1.09c13.28-1.41,26.56-2.55,39.86-3.29a700.47,700.47,0,0,1,79.76-.28l9.94.68,5,.34,5,.46,9.92.93,9.89,1.17,4.94.59c1.65.21,3.29.47,4.93.71l9.85,1.44c3.28.52,6.54,1.12,9.81,1.67s6.55,1.12,9.79,1.81l9.75,2c3.26.63,6.47,1.46,9.71,2.18s6.47,1.47,9.68,2.31l9.62,2.54,4.8,1.28,4.77,1.41,9.53,2.83c3.17,1,6.3,2.06,9.45,3.08s6.32,2,9.41,3.2q5.15,1.83,10.24,3.76l17-11-40.54-10.35C1704.39,1781.38,1575.64,1794.78,1464.23,1806.39Z"/>
          <path class="cls-4" d="M2107.15,992.25c23.11,71.25-5.24,156.26-46.36,207.24-218,270.28-985.87-193.78-1498.18-159L507,1041.87l24.84,14.47c4.74-.67,9.49-1.3,14.25-1.85a671.88,671.88,0,0,1,79.8-4c26.71.15,53.45,1.81,80.08,4.57,53.27,5.55,106.07,15.73,158.11,28.92s103.36,29.53,154.12,47.56c25.39,9,50.63,18.53,75.81,28.28s50.27,19.85,75.36,30c50.17,20.39,100.32,41.22,151,61.47s101.92,39.72,154.37,57.37c26.24,8.82,52.74,17.21,79.69,24.93s54.26,14.85,82.12,21.06c6.94,1.59,14,3,21,4.52s14.09,2.84,21.22,4.12q21.3,4,43.13,7.06a813,813,0,0,0,89.65,7.85,583.68,583.68,0,0,0,95.38-4.45,440.77,440.77,0,0,0,50.08-9.62,365.83,365.83,0,0,0,51.07-17.09,309.53,309.53,0,0,0,50.09-26.62,285.4,285.4,0,0,0,45.37-36.94c3.41-3.52,6.9-7,10.09-10.67s6.5-7.3,9.48-11.13a277.07,277.07,0,0,0,16.88-23.14c5.18-7.8,9.76-15.72,14.08-23.71s8.2-16.07,11.78-24.26a341.68,341.68,0,0,0,17.44-50.37c2.25-8.61,4.1-17.37,5.7-26.2s2.71-17.82,3.53-26.89a285.84,285.84,0,0,0-.46-55.68l-.38-3.53-.49-3.55c-.34-2.37-.63-4.73-1-7.1l-1.27-7.11c-.4-2.36-1-4.75-1.48-7.12-1-4.73-2.31-9.48-3.55-14.19-1.44-4.72-2.81-9.41-4.55-14.07a229.24,229.24,0,0,0-26.67-52.52,248.79,248.79,0,0,0-36.77-42.21,292.44,292.44,0,0,0-41.35-31.45,367.35,367.35,0,0,0-42.73-23c-14.3-6.58-28.62-12.17-42.87-17.12s-28.47-9.27-42.63-13-28.25-7.08-42.3-10.06-28.06-5.5-42-7.83c-7-1.12-14-2.25-20.91-3.24s-13.9-2-20.84-2.95-13.87-1.8-20.79-2.58-13.83-1.61-20.74-2.36c-27.62-2.93-55.11-5.29-82.52-7.29-54.83-3.94-109.3-6.65-163.63-9.28s-108.46-5.12-162.52-8.17c-50.44-2.88-100.79-6.26-151-10.54l-49.28,13.67,89.52,2.57C1648.51,781.18,2046.12,804,2107.15,992.25Z"/>
          <path class="cls-4" d="M2411.62,2493.16c-.46-16.26-1.43-32.41-3-48.37l-1.22-11.94-1.52-11.87c-1-7.91-2.26-15.74-3.5-23.55-.32-1.95-.59-3.9-1-5.84l-1.11-5.82-2.25-11.59-2.51-11.5-1.27-5.73-1.38-5.7-2.78-11.36-3-11.26-1.53-5.61-1.63-5.58-3.28-11.12q-6.87-22.12-14.9-43.61t-17.43-42.35c-6.23-13.93-12.72-27.66-19.93-41.36-3.59-6.87-7.32-13.67-11.45-20.85-4-6.59-8-12.94-12-19.36l-12.47-18.85c-4.31-6.17-8.7-12.26-13-18.33a711,711,0,0,0-120.88-127,839.05,839.05,0,0,0-141.07-93c-24.61-13-49.74-24.72-74.9-35.55A819.66,819.66,0,0,0,1865,1817q-20.65-6.59-41.65-11.89l-28.66,7.81,48.94,10.62a639.59,639.59,0,0,1,96.52,38c57.32,28.1,231.91,115.89,317.24,320.69,9,21.69,83.62,208,17.24,413.8-32.64,101.17-124.85,286-518.39,468.81-583,270.73-1275.39,280.56-1681.81,259.35l-.37,5.67c13.53.44,27,1.22,40.56,2s27,1.62,40.53,2.5,27,1.77,40.53,2.71,27,1.84,40.55,2.83l162.53,11.44,20.37,1.44,20.38,1.31c13.59.84,27.2,1.88,40.81,2.56s27.24,1.68,40.88,2.4l20.46,1,20.47,1.1c54.62,2.5,109.43,4.68,164.43,5.94,55,1.06,110.2,1.72,165.6,1.22,6.93,0,13.85-.15,20.78-.26l20.8-.36,20.82-.38c6.94-.15,13.88-.44,20.82-.66l41.73-1.31,41.77-2,10.46-.5c3.49-.17,7-.32,10.46-.57l20.91-1.37,20.94-1.38c7-.48,14-.85,21-1.49l41.91-3.56,10.49-.92c3.5-.29,7-.72,10.47-1.07l21-2.23,21-2.23,10.5-1.13,10.48-1.3,41.94-5.49,10.5-1.4,10.46-1.62,21-3.26,21-3.31,10.48-1.7,10.45-1.9,20.91-3.82,20.91-3.94,10.46-2,10.42-2.19c7-1.44,13.88-3,20.83-4.48l20.84-4.53,10.43-2.28,10.37-2.54,41.5-10.29,10.37-2.63,10.32-2.87,20.62-5.8,20.62-5.88,10.31-3c3.43-1,6.83-2.13,10.25-3.2l20.47-6.49,20.46-6.58,10.23-3.32c3.42-1.09,6.77-2.36,10.16-3.53l20.29-7.23,20.28-7.29c6.74-2.48,13.53-4.83,20.2-7.53,13.37-5.3,26.76-10.59,40.11-16l10-4,5-2,5-2.13,19.9-8.61c13.25-5.68,26.45-11.86,39.64-17.94,3.3-1.54,6.6-3,9.88-4.62l9.86-4.8,19.69-9.65c3.28-1.59,6.54-3.31,9.81-5l9.79-5.08c6.52-3.42,13.06-6.72,19.56-10.27l19.47-10.7c3.23-1.8,6.48-3.56,9.71-5.4l9.68-5.62,19.31-11.28,19.2-11.82,9.58-5.94,9.53-6.19c6.35-4.15,12.7-8.24,19-12.49l18.87-13,4.7-3.27,4.68-3.38,9.32-6.83a907.25,907.25,0,0,0,72.74-59.21,807.53,807.53,0,0,0,67.92-69.12,692.5,692.5,0,0,0,60.26-80.26l3.46-5.34,3.34-5.49,6.6-11q6.48-11.12,12.56-22.54c3.95-7.71,8-15.27,11.62-23.19,1.84-3.93,3.71-7.83,5.5-11.78s3.47-8,5.16-11.95a572.19,572.19,0,0,0,31.41-98.3c.47-2.06.94-4.12,1.35-6.19l1.2-6.19,2.34-12.37c.37-2.07.8-4.11,1.12-6.18l1-6.21,1.88-12.38c.68-4.1,1.06-8.26,1.53-12.4l1.32-12.38.33-3.09.24-3.1.46-6.19.88-12.34c.29-4.11.35-8.23.51-12.34l.37-12.29C2411.7,2509.44,2411.78,2501.28,2411.62,2493.16Z"/>
        </g>
        <g class="cls-3">
          <path class="cls-5" d="M464.23,330.53c-1.46,7.46-18.34,88.28,10.65,159.11C548,668.4,873.81,712.77,1216,743.53c7.4.66,9.89-9.64,3-12.42h0l-10.8-.93q-20.18-1.77-40.33-3.76c-13.44-1.34-26.87-2.7-40.26-4.35q-40.2-4.87-80.06-12.11t-79.09-17.28q-39.23-10-77.55-22.84c-25.48-8.57-50.62-18-75.07-28.44l-9.15-3.93-9.08-4c-6.06-2.64-12-5.42-18-8.21-11.86-5.65-23.55-11.44-35-17.44-22.86-12-44.68-24.83-64.92-38.19l-7.46-5.1c-2.5-1.67-4.85-3.49-7.29-5.16-1.21-.85-2.44-1.69-3.62-2.55l-3.51-2.61c-2.35-1.73-4.7-3.44-6.93-5.23s-4.57-3.45-6.74-5.25l-6.51-5.29c-2.09-1.8-4.14-3.62-6.24-5.35s-4-3.58-6-5.35a266.62,266.62,0,0,1-21.1-21.52,174.63,174.63,0,0,1-16-21,130.7,130.7,0,0,1-10.58-19.69l-1-2.33-.85-2.36c-.28-.79-.61-1.55-.9-2.31s-.49-1.56-.75-2.33-.56-1.51-.77-2.29-.42-1.55-.65-2.31l-.35-1.13a5.87,5.87,0,0,1-.28-1c-.09-.59-.2-1.16-.33-1.73l-.87-4.28-.45-2.51-.25-1.25-.22-1.39c-.14-.92-.29-1.84-.46-2.75s-.27-2-.41-2.92l-.44-2.94-.35-3.1c-1-8.26-1.58-17.14-1.78-26.1s0-18.06.63-27.05c.21-2.24.36-4.48.53-6.72s.49-4.44.71-6.67c.58-4.4,1.12-8.88,1.83-13a258.37,258.37,0,0,1,14-51.22c3.33-8.71,7.22-17.51,11.59-26.46s9.34-17.94,14.71-27.11c1.4-2.27,2.73-4.58,4.18-6.85l4.37-6.86c1.48-2.31,3-4.64,4.52-6.93l2.32-3.46,2.42-3.44c3.15-4.65,6.46-9.3,9.89-13.93.84-1.17,1.74-2.3,2.6-3.46l2.59-3.53,5.35-7c3.69-4.6,7.31-9.37,11.15-14l2.88-3.51c1-1.16,2-2.31,2.92-3.51,1.91-2.38,3.91-4.71,5.89-7.07,4-4.67,8-9.42,12.19-14.15,2.08-2.36,4.19-4.67,6.28-7.08s4.19-4.82,6.33-7.2c4.27-4.79,8.66-9.51,13.13-14.22,2.27-2.29,4.44-4.79,6.68-7.19s4.49-4.84,6.77-7.25,4.58-4.78,6.9-7.17l3.51-3.56L737,87.12q7-7.38,14.2-14.61c9.51-9.92,19.36-19.7,29.29-29.91l3.76-3.77c1.25-1.27,2.47-2.63,3.72-3.93,2.49-2.63,5-5.26,7.53-7.86s5.1-5.2,7.68-7.79c1.31-1.24,2.55-2.71,3.83-4.06l3.84-4.11-2.88-7.76C695.53,48.12,499.6,150.09,464.23,330.53Z"/>
          <path class="cls-5" d="M1756.19,3064.86c393.54-182.76,485.75-367.64,518.39-468.81,66.38-205.78-8.21-392.11-17.24-413.8-85.33-204.8-259.92-292.59-317.24-320.69a644.45,644.45,0,0,0-66.15-28c-7-2.5-12.32,6.36-6.85,11.34h0a535.88,535.88,0,0,1,62.38,28.27,620.32,620.32,0,0,1,67.88,41.39l4.05,2.84,4,2.91c2.65,2,5.32,3.88,7.92,5.9l7.82,6,7.68,6.17c10.15,8.33,20,16.91,29.53,25.89,2.4,2.21,4.7,4.53,7,6.81s4.68,4.52,6.93,6.87c4.51,4.7,9.05,9.35,13.37,14.18,8.79,9.54,17,19.54,25,29.62,7.8,10.25,15.41,20.55,22.3,31.31l5.2,8,5,8.16,2.47,4.06,1.23,2,1.17,2.07,4.6,8.31,2.28,4.14,2.16,4.22,4.29,8.41c1.46,2.77,2.75,5.64,4.09,8.48s2.63,5.69,3.93,8.53c.67,1.4,1.26,2.86,1.86,4.3l1.8,4.33,3.6,8.62c2.21,5.83,4.43,11.62,6.53,17.43l5.76,17.63,2.56,8.88c.84,3,1.73,5.88,2.49,8.86l4.25,17.81c1,5.32,2.1,11.16,3,17,.49,2.91.92,5.92,1.37,8.87s.85,6,1.21,9,.76,6,1.07,9,.68,6,.91,9.08c1.07,12.12,1.77,24.28,2.1,36.39s.22,24.19-.17,36.16l-.41,9-.22,4.47-.31,4.46-.64,8.87-.83,8.84-.42,4.4-.53,4.38-1.05,8.73-1.26,8.67c-.43,2.88-.81,5.75-1.31,8.6-1,5.72-1.84,11.4-3,17l-1.65,8.41-1.89,8.33c-1.16,5.55-2.7,11-4.07,16.44-.36,1.36-.67,2.72-1.07,4.07l-1.19,4q-1.2,4-2.3,8c-1.58,5.32-3.33,10.56-4.94,15.8l-5.48,15.43-2.91,7.58-1.44,3.78-.72,1.88-.79,1.86-3.15,7.39c-1,2.46-2.05,4.92-3.19,7.33l-3.29,7.23-1.62,3.61c-.54,1.2-1.18,2.36-1.75,3.54l-3.53,7.05-1.74,3.51c-.59,1.17-1.25,2.29-1.84,3.44-1.22,2.28-2.36,4.61-3.62,6.83l-3.72,6.67c-1.26,2.2-2.58,4.34-3.86,6.51s-2.6,4.28-3.95,6.39-2.55,4.25-4,6.3l-4.08,6.19c-1.37,2.06-2.82,4.06-4.2,6.1l-2.09,3c-.69,1-1.46,2-2.18,3-1.47,2-2.92,4-4.33,6l-4.51,5.87-2.24,2.93c-.74,1-1.56,1.93-2.32,2.9l-4.64,5.79c-1.53,1.93-3.23,3.8-4.82,5.7l-2.39,2.86c-.79,1-1.57,1.92-2.43,2.85l-5,5.62-2.47,2.83-2.59,2.79q-20.55,22.34-44.21,43.75c-15.76,14.31-32.49,28.39-50,42.26s-35.89,27.51-54.83,41l-7.11,5.06c-1.19.85-2.35,1.71-3.55,2.54l-3.65,2.49-14.55,10c-4.89,3.32-9.92,6.55-14.86,9.85l-7.43,4.94-7.6,4.83-15.19,9.71-15.51,9.52-7.74,4.78c-2.6,1.59-5.26,3.12-7.88,4.69l-15.77,9.4c-2.6,1.59-5.32,3.09-8,4.63l-8,4.62c-5.37,3.06-10.63,6.22-16.07,9.24l-16.29,9.09-8.13,4.58c-2.72,1.52-5.5,3-8.25,4.47-11,5.94-21.91,12.1-33.15,17.88l-16.71,8.88-4.18,2.22-4.24,2.15-8.46,4.31c-11.3,5.73-22.56,11.57-33.84,17.39-5.59,3-11.35,5.7-17,8.51l-17.12,8.44c-91.22,45.27-185.37,87.11-282,126.36l-9,3.73-9.12,3.55-18.23,7.13-18.26,7.19-9.14,3.59-9.2,3.43-36.87,13.81-9.23,3.49-9.28,3.32-18.6,6.64c-24.76,9.08-49.85,17.22-74.92,25.81-6.26,2.18-12.58,4.1-18.89,6.14l-18.94,6-19,6.05c-3.16,1-6.34,2-9.52,2.92l-9.55,2.85c-50.82,15.73-102.37,29.46-154.28,42.59l-19.51,4.73-19.55,4.65c-3.26.77-6.52,1.58-9.78,2.32l-9.81,2.18-19.65,4.32c-26.18,5.93-52.54,11-78.93,16.17-26.43,4.84-52.91,9.71-79.51,13.85l-19.95,3.2c-6.66,1-13.32,2-20,3l-20,2.84c-6.67.94-13.35,1.93-20,2.76q-80.19,10.68-161.07,16.9c-53.88,4.11-107.91,6.5-162,6.85-13.51.06-27,0-40.54-.13s-27-.54-40.52-.93-27-1.11-40.49-1.82-27-1.77-40.42-3l-.28,4.3C480.8,3345.42,1173.22,3335.59,1756.19,3064.86Z"/>
          <path class="cls-5" d="M2060.79,1199.49c41.12-51,69.47-136,46.36-207.24-58.62-180.78-427.74-209-801.76-240.93-8-.68-10.59,10.39-3.19,13.37h0q32.64,3.39,65.23,7.11c53.72,6.21,107.33,13.22,160.64,21.67s106.29,18.25,158.48,30.21c13,3,26,6.12,39,9.38s25.77,6.7,38.53,10.26c25.52,7.15,50.68,15,75.19,23.7,12.23,4.39,24.33,8.94,36.19,13.74s23.47,9.89,34.78,15.22c22.58,10.68,43.91,22.57,62.63,35.68s34.6,27.51,45.48,42.2a106.53,106.53,0,0,1,12.81,21.79,84.24,84.24,0,0,1,6.1,21.45c.34,1.78.43,3.7.7,5.51.1,1.92.35,3.75.36,5.72,0,1,.13,1.9.1,2.9v3c0,1-.08,2-.1,3l0,1.49-.11,1.53c-.2,4-.77,8.23-1.36,12.44s-1.56,8.52-2.52,12.82a190.06,190.06,0,0,1-20.83,51,169.64,169.64,0,0,1-15.23,21.88,113.09,113.09,0,0,1-8.1,8.8c-1.29,1.42-2.76,2.61-4.13,3.9s-2.87,2.42-4.28,3.65a119.41,119.41,0,0,1-18.77,12.5,145.84,145.84,0,0,1-22.36,9.68,209.61,209.61,0,0,1-26.3,7.09,297.68,297.68,0,0,1-29.8,4.38,487.53,487.53,0,0,1-66.62,1.56c-11.66-.45-23.5-1.15-35.53-2.19s-24.16-2.16-36.46-3.6-24.65-2.94-37.14-4.69c-6.23-.81-12.51-1.77-18.78-2.64s-12.57-1.85-18.9-2.87c-25.27-3.88-50.83-8.19-76.59-12.68s-51.73-9.19-77.86-13.91c-52.27-9.5-105.22-19.13-158.61-28.46s-107.22-18.37-161.26-27c-108.12-17.21-216.8-33.51-325.39-46.72-54.31-6.53-108.68-12.08-163.24-15.39-27.28-1.63-54.61-2.73-82-2.86-12.55-.12-25.11,0-37.68.36h0a6.27,6.27,0,0,0,3.06,11.85C1103.29,1022.73,1846.81,1464.74,2060.79,1199.49Z"/>
          <path class="cls-5" d="M267.68,1151.22C188.24,1221.5,104,1352.65,102.17,1502.94c-1.9,152.74,81.54,301.72,196.55,386.21,211.61,155.47,516.65,82.69,762.07,24.14,199-47.47,224-88.21,403.44-106.9,104.36-10.87,224-23.32,353.08,9.79a6.49,6.49,0,0,0,6-11.09h0q-19.08-4.87-38.39-8.8c-3.36-.75-6.76-1.32-10.14-2s-6.77-1.29-10.16-1.88c-6.79-1.09-13.57-2.34-20.39-3.27l-10.22-1.5-10.24-1.3-5.12-.66-5.13-.56-10.27-1.13c-54.79-5.54-110-6.09-164.75-4.89-13.71.25-27.36.71-41,1.06l-20.43.59-10.19.28-5.09.15-5.19.2-20.8.79c-6.94.16-13.91.69-20.89,1.12l-10.49.64-5.25.3c-1.75.13-3.5.31-5.26.46l-21.1,1.88c-14.07,1.65-28.27,3.11-42.39,5.43-3.53.55-7.1,1-10.61,1.65l-10.55,1.9-10.58,1.86-10.45,2.09-10.46,2.12c-3.47.72-6.86,1.5-10.3,2.25l-10.3,2.23-10.15,2.25-20.11,4.51-9.94,2.21-5,1.09-4.91,1-19.61,4.12-19.45,3.8c-6.48,1.23-13,2.29-19.4,3.44l-9.68,1.69-9.71,1.48-19.39,2.89-19.47,2.51-9.71,1.25c-3.23.42-6.52.72-9.77,1.09l-19.53,2.1-20,2.08-20.27,2-40.3,3.9c-26.75,2.53-53.28,5-79.58,6.9-52.57,4-104.15,6.76-154.08,7s-98.18-1.58-143.35-7.29c-11.3-1.36-22.4-3-33.26-4.9-2.73-.44-5.42-1-8.1-1.47s-5.39-1-8-1.53-5.33-1-7.94-1.63l-7.85-1.73a494.47,494.47,0,0,1-59.19-17.33,382.38,382.38,0,0,1-52.6-23.75q-12.34-6.78-24-14.37c-7.75-5.12-15.24-10.54-22.71-16.24-29.82-23-58.14-51.52-83-83.57A483.92,483.92,0,0,1,224.55,1584c-4.24-9.49-7.72-19.22-11.15-29l-2.49-7.4c-.78-2.48-1.48-5-2.24-7.47l-1.13-3.75-1-3.77c-.67-2.51-1.42-5-2.05-7.58-1.17-5.06-2.5-10.17-3.44-15.3-.49-2.57-1.17-5.16-1.56-7.75l-1.39-7.82c-.42-2.62-.74-5.26-1.13-7.91l-.56-4-.41-4c-.26-2.68-.62-5.38-.81-8.08l-.57-8.16c-.53-10.92-.94-22.08-.53-33.37s1.21-22.73,2.64-34.25,3.35-23.14,5.79-34.79c1.31-5.79,2.55-11.66,4.11-17.45.76-2.91,1.5-5.83,2.37-8.72s1.65-5.81,2.55-8.71c3.53-11.6,7.62-23.12,12.12-34.59s9.65-22.74,15.23-33.86a403.4,403.4,0,0,1,39.6-63.5c1.91-2.47,3.86-4.89,5.79-7.36s4-4.79,6-7.21,4.15-4.62,6.22-7c1-1.15,2.08-2.33,3.15-3.47l3.26-3.36,3.27-3.37c1.08-1.14,2.18-2.27,3.32-3.33,2.26-2.17,4.51-4.37,6.8-6.52s4.71-4.18,7.06-6.28c1.19-1,2.36-2.11,3.57-3.13l3.67-3a314.53,314.53,0,0,1,30.88-22.45A331.1,331.1,0,0,1,395,1097.22a364,364,0,0,1,35.76-15.61c12.2-4.69,24.72-8.68,37.4-12.21a492.17,492.17,0,0,1,63.67-13.06h0c6.63-3.42,3.58-13.52-3.83-12.66C428.22,1055.28,339.3,1087.86,267.68,1151.22Z"/>
        </g>
      </g>
    </g>
  </g>
</svg>
