<svg xmlns="http://www.w3.org/2000/svg" width="1920" height="2395.26" viewBox="0 0 1920 2395.26">
  <defs>
    <style>
      .cls-1 {
        fill: #4b6496;
      }

      .cls-2 {
        fill: #ffb419;
      }
    </style>
  </defs>
  <g id="Layer_2" data-name="Layer 2">
    <g id="Landing">
      <g id="Content">
        <path class="cls-1" d="M1920,2395.26H0V0H412.9a95.33,95.33,0,0,1,95.34,95.34h0a95.33,95.33,0,0,0,95.34,95.33H1306a104,104,0,0,1,104,104V514.83a142.8,142.8,0,0,0,142.8,142.8h0a142.8,142.8,0,0,0,142.8-142.8V280.46a104,104,0,0,1,104-104H1920Z"/>
        <g id="ribbon">
          <path class="cls-2" d="M1584.79,372.11c-11.53-11.53-27-11.41-32.25-11.41s-20.73-.12-32.26,11.41c-10.4,10.4-2.79,26.34,1.3,33.18a4,4,0,0,0,5.31,1.54,55,55,0,0,1,51.29,0,4,4,0,0,0,5.31-1.54C1587.58,398.45,1595.19,382.51,1584.79,372.11Z"/>
          <path class="cls-2" d="M1511.6,385.92a2.14,2.14,0,0,0-3.78-1.36c-6.59,7.84-15.9,21.4-15.47,35.67a62.58,62.58,0,0,0,.77,7.69,72.3,72.3,0,0,0,10,26.52c6.13,10.27,36.83,61,80.47,130.83a5.34,5.34,0,0,0,9,.05l18.87-29.43a5.34,5.34,0,0,0-.16-6c-4.65-6.51-8.36-11.66-10.58-14.73,0,0-54.87-76.07-84.17-130.31a40.46,40.46,0,0,1-4.23-11.53,41.77,41.77,0,0,1-.74-7.33Z"/>
          <g>
            <path class="cls-2" d="M1540.58,515.94c.88,1.43,1.78,2.88,2.68,4.36C1542.36,518.82,1541.46,517.37,1540.58,515.94Z"/>
            <path class="cls-2" d="M1543.51,520.7q1.35,2.2,2.75,4.45Q1544.86,522.9,1543.51,520.7Z"/>
            <path class="cls-2" d="M1552.54,535.33l-6-9.79,6,9.79Z"/>
            <path class="cls-2" d="M1529.17,505.23a2.28,2.28,0,0,0-3.81-.09c-12.33,18-21,30-21,30-2.22,3.07-5.93,8.22-10.58,14.73a5.36,5.36,0,0,0-.16,6l18.87,29.43a5.34,5.34,0,0,0,9-.05c9.21-14.72,17.83-28.6,25.78-41.43a8.76,8.76,0,0,0,0-9.2C1540.66,524,1534.6,514.09,1529.17,505.23Z"/>
            <path class="cls-2" d="M1529.91,498.56l2.44,4Z"/>
            <path class="cls-2" d="M1532.49,502.77q2.51,4.1,5.19,8.45Q1535,506.86,1532.49,502.77Z"/>
            <path class="cls-2" d="M1537.72,511.29l2.67,4.34Z"/>
          </g>
          <g>
            <path class="cls-2" d="M1555.66,469.28c-.14-.21-.28-.42-.41-.64C1555.38,468.86,1555.52,469.07,1555.66,469.28Z"/>
            <path class="cls-2" d="M1558.65,473.84l-.38-.58Z"/>
            <polygon class="cls-2" points="1552.54 464.48 1552.54 464.48 1552.54 464.49 1552.54 464.48"/>
            <path class="cls-2" d="M1574.25,489.83a3.77,3.77,0,0,0,6.34-.15c11.21-18.36,18.67-30.72,21.37-35.24a72.3,72.3,0,0,0,10-26.52,62.58,62.58,0,0,0,.77-7.69c.43-14.27-8.88-27.83-15.47-35.67a2.14,2.14,0,0,0-3.78,1.36V386a41.77,41.77,0,0,1-.74,7.33,40.82,40.82,0,0,1-4.22,11.53c-9.09,16.81-20.62,35.72-32.22,53.8a3.77,3.77,0,0,0,0,4.08C1562.47,472.25,1568.57,481.43,1574.25,489.83Z"/>
            <path class="cls-2" d="M1567.17,486.66l-.23-.33Z"/>
            <path class="cls-2" d="M1564.29,482.36c-.07-.11-.14-.22-.22-.33C1564.15,482.14,1564.22,482.25,1564.29,482.36Z"/>
          </g>
        </g>
      </g>
    </g>
  </g>
</svg>
