<?xml version="1.0" encoding="utf-8"?>
<!-- Generator: Adobe Illustrator 23.0.0, SVG Export Plug-In . SVG Version: 6.00 Build 0)  -->
<svg version="1.1" id="Layer_1" xmlns="http://www.w3.org/2000/svg" xmlns:xlink="http://www.w3.org/1999/xlink" x="0px" y="0px"
	 viewBox="0 0 500 500" style="enable-background:new 0 0 500 500;" xml:space="preserve">
<style type="text/css">
	.st0{fill:#FFFFFF;}
</style>
<g>
	<g>
		<path class="st0" d="M305.97,495.16c-36.79,0-73.59,0-110.38,0c-3.03-0.33-6.05-0.8-9.08-0.96c-20.11-1.07-40.37-0.95-60.32-3.35
			C90.5,486.56,60.34,471,37.76,442.32c-15.5-19.69-24.08-42.45-26.75-67.05c-2.16-19.83-2.22-39.89-3.27-59.84
			c-0.16-3.04-0.63-6.05-0.96-9.08c0-36.79,0-73.59,0-110.38c0.33-3.03,0.8-6.04,0.96-9.08c1.07-20.11,0.95-40.36,3.34-60.3
			c4.31-35.87,19.98-66.13,48.88-88.72c19.6-15.32,42.2-24.08,66.64-26.43c26.27-2.52,52.75-3.76,79.15-4.01
			c42.57-0.41,85.15,0.21,127.72,0.88c14.15,0.22,28.38,1.22,42.4,3.12c35.45,4.82,65.46,20.03,87.91,48.56
			c15.5,19.69,24.34,42.42,26.71,67.03c2.53,26.27,3.75,52.75,4.01,79.15c0.41,42.57-0.21,85.15-0.88,127.72
			c-0.22,14.15-1.22,28.38-3.13,42.4c-4.82,35.45-20.05,65.45-48.59,87.9c-19.56,15.39-42.14,23.97-66.56,26.66
			c-19.98,2.2-40.2,2.27-60.31,3.34C312.01,494.36,308.99,494.83,305.97,495.16z M451.22,251.34c-0.32,0-0.65,0-0.97,0
			c0-29.68,0.62-59.37-0.26-89.02c-0.45-15.21-2.56-30.56-5.75-45.46c-4.05-18.91-14.83-34.16-30.44-45.78
			c-14.43-10.75-31.06-15.82-48.64-17.32c-18.62-1.59-37.33-2.83-56-2.87c-49.52-0.11-99.05,0.1-148.56,1.08
			c-14.72,0.29-29.59,2.55-44.01,5.68c-19.07,4.14-34.45,14.96-46.11,30.77c-10.58,14.34-15.6,30.82-17.1,48.23
			c-1.59,18.45-2.83,37-2.87,55.51c-0.11,49.84,0.11,99.7,1.08,149.53c0.28,14.56,2.54,29.27,5.63,43.53
			c4.14,19.08,14.92,34.47,30.71,46.16c14.32,10.6,30.79,15.75,48.21,17.14c20.87,1.66,41.85,2.97,62.77,2.92
			c52.09-0.13,104.18-0.82,156.26-1.92c18.7-0.4,36.91-4.45,53.11-14.56c22.91-14.29,35.56-35.64,38.65-61.89
			c2.64-22.36,3.35-44.98,4.15-67.52C451.73,287.5,451.22,269.41,451.22,251.34z"/>
		<path class="st0" d="M375.65,251.19c0,69.12-55.87,124.86-125.14,124.84c-69.01-0.02-124.63-55.98-124.6-125.38
			c0.03-68.91,56.09-124.4,125.62-124.36C319.9,126.34,375.65,182.44,375.65,251.19z M250.48,332.54
			c45.58,0.02,81.64-35.56,81.69-80.6c0.05-46.04-35.34-82.12-80.6-82.17c-46.23-0.05-82.15,35.4-82.17,81.08
			C169.37,296.62,205.01,332.53,250.48,332.54z"/>
		<path class="st0" d="M409.54,120.97c-0.01,16.27-12.16,28.58-28.33,28.69c-16.22,0.11-28.95-12.54-28.94-28.75
			c0.01-16.37,12.42-28.57,29-28.52C397.57,92.45,409.55,104.56,409.54,120.97z"/>
	</g>
</g>
</svg>
